<svg width="30" height="30" viewBox="0 0 30 30" fill="none" xmlns="http://www.w3.org/2000/svg">
<path d="M21.6273 1.24341C20.5023 1.24341 19.5063 1.86626 18.8207 2.79438C18.1352 3.72251 17.7309 4.96411 17.7309 6.32817C17.7309 7.5645 18.0648 8.70122 18.6391 9.59185C18.3051 9.6856 17.9945 9.82036 17.7074 9.97857C17.1098 9.48052 16.3832 9.18169 15.6039 9.18169C14.473 9.18169 13.477 9.80278 12.7914 10.7286C12.516 11.1036 12.2875 11.5254 12.1117 11.9883C11.8305 11.8477 11.5316 11.7364 11.2035 11.6602C11.7543 10.7754 12.0707 9.66216 12.0707 8.45513C12.0707 7.09575 11.6664 5.85181 10.9809 4.92368C10.2953 3.99556 9.29922 3.37095 8.17422 3.37095C7.04922 3.37095 6.05312 3.99556 5.36523 4.92368C4.68027 5.85181 4.27773 7.09575 4.27773 8.45513C4.27773 9.69146 4.61113 10.8282 5.18418 11.7247C3.30508 12.2579 2.2375 13.8985 1.70137 15.8262C1.12773 17.8887 1.06445 20.3555 1.06445 22.5997V23.1504H3.73047L4.12773 28.9688H5.22637L4.7998 22.7286L4.55957 18.0411L3.4668 18.0997L3.67012 22.0547H2.1666C2.18066 19.9922 2.28203 17.8301 2.75781 16.1251C3.27227 14.2735 4.12422 13.0313 5.76074 12.7149L6.03555 12.709C6.63906 13.2247 7.37734 13.5411 8.17422 13.5411C9.00039 13.5411 9.75039 13.2071 10.3656 12.6622H10.6352C11.0922 12.7325 11.4789 12.8672 11.8129 13.0547C11.7426 13.4415 11.7016 13.8458 11.7016 14.2618C11.7016 15.4981 12.0355 16.6348 12.6098 17.5313C10.7289 18.0645 9.6625 19.711 9.1293 21.6329C8.55508 23.6954 8.49062 26.1622 8.49062 28.4063V28.9571C9.76211 28.9395 10.9984 28.9688 12.2582 28.9688L12.2289 28.5411L11.9887 23.8536L10.893 23.9063L11.0922 27.8614H9.59219C9.60977 25.7989 9.70938 23.6368 10.184 21.9317C10.6938 20.0801 11.5492 18.8438 13.1781 18.5215L13.4652 18.5157C14.0688 19.0313 14.8012 19.3477 15.598 19.3477C16.4242 19.3477 17.1801 19.0137 17.7953 18.4688H18.0531C18.9555 18.6094 19.5824 18.9903 20.0746 19.5586C20.5727 20.127 20.9242 20.918 21.1586 21.8555C21.5863 23.584 21.6098 25.7754 21.6098 27.8614H20.2387L20.4437 23.9063L19.348 23.8536L19.102 28.6583L19.0844 28.9688C20.3031 28.9688 21.6215 28.9512 22.7113 28.9571V28.4063C22.7113 26.1739 22.7406 23.6836 22.2191 21.5918C21.9613 20.5489 21.557 19.5938 20.9066 18.8379C20.3383 18.1875 19.5766 17.7012 18.6332 17.4668C19.184 16.5821 19.4945 15.4688 19.4945 14.2618C19.4945 12.9434 19.1195 11.7305 18.4691 10.8165C18.6977 10.711 18.9438 10.6348 19.2133 10.5821H19.4887C20.0922 11.0977 20.8305 11.4141 21.6273 11.4141C22.4535 11.4141 23.2094 11.0743 23.8188 10.5352L24.0883 10.5293C24.9906 10.6758 25.6117 11.0508 26.1039 11.6192C26.602 12.1934 26.9535 12.9844 27.1879 13.9219C27.6156 15.6446 27.6391 17.836 27.6391 19.9219H26.268L26.473 15.9727L25.3773 15.9141L25.1371 20.584L24.6332 28.9688H25.7289L26.2094 21.0176H28.7348V20.4727C28.7348 18.2344 28.7699 15.7442 28.2484 13.6583C27.9848 12.6094 27.5805 11.6543 26.9301 10.9043C26.3676 10.2481 25.6059 9.76177 24.6566 9.52739C25.2074 8.64263 25.5238 7.53521 25.5238 6.32817C25.5238 4.96411 25.1195 3.72251 24.434 2.79438C23.7543 1.89849 22.5883 1.26333 21.6273 1.24341ZM21.6273 2.33853C22.3539 2.33853 23.0277 2.73052 23.5551 3.44419C24.0824 4.15845 24.4281 5.18267 24.4281 6.32817C24.4281 7.47075 24.0824 8.49614 23.5551 9.21099C23.0277 9.92583 22.3539 10.3184 21.6273 10.3184C20.9066 10.3184 20.227 9.92583 19.6996 9.21099C19.1723 8.49614 18.8266 7.47075 18.8266 6.32817C18.8266 5.18267 19.1723 4.15845 19.6996 3.44419C20.227 2.73052 20.9066 2.33853 21.6273 2.33853ZM8.17422 4.46606C8.90078 4.46606 9.57461 4.85981 10.102 5.57349C10.6293 6.28716 10.975 7.31255 10.975 8.45513C10.975 9.59771 10.6293 10.6231 10.102 11.3379C9.57461 12.0528 8.90078 12.4454 8.17422 12.4454C7.44766 12.4454 6.77383 12.0528 6.24648 11.3379C5.7209 10.6231 5.37285 9.59771 5.37285 8.45513C5.37285 7.31255 5.7209 6.28716 6.24648 5.57407C6.77383 4.85981 7.44766 4.46606 8.17422 4.46606ZM19.7641 5.77505V6.86724H21.0824V5.77505H19.7641ZM22.1723 5.77505V6.86724H23.4906V5.77505H22.1723ZM6.31094 7.90435V9.00005H7.6293V7.90435H6.31094ZM8.71914 7.90435V9.00005H10.0375V7.90435H8.71914ZM15.6039 10.2715C16.3246 10.2715 16.9984 10.6641 17.5258 11.379C18.0531 12.0938 18.4047 13.1192 18.4047 14.2618C18.4047 15.4102 18.0531 16.4297 17.5258 17.1446C16.9984 17.8594 16.3246 18.252 15.6039 18.252C14.8773 18.252 14.1977 17.8594 13.6703 17.1446C13.1488 16.4297 12.7973 15.4102 12.7973 14.2618C12.7973 13.1192 13.1488 12.0938 13.6703 11.379C14.1977 10.6641 14.8773 10.2715 15.6039 10.2715ZM13.7406 13.711V14.8067H15.0531V13.711H13.7406ZM16.1488 13.711V14.8067H17.4613V13.711H16.1488Z" fill="black"/>
</svg>
