<svg width="17" height="17" viewBox="0 0 17 17" fill="none" xmlns="http://www.w3.org/2000/svg">
<path d="M10.1574 12.5874L11.1562 11.5887L14.1666 14.5778L13.1466 15.5837L10.1574 12.5874ZM13.1041 1.41699C13.7616 1.41699 14.3922 1.67819 14.8571 2.14312C15.3221 2.60806 15.5832 3.23864 15.5832 3.89616C15.5832 4.55367 15.3221 5.18426 14.8571 5.64919C14.3922 6.11413 13.7616 6.37533 13.1041 6.37533C12.4466 6.37533 11.816 6.11413 11.351 5.64919C10.8861 5.18426 10.6249 4.55367 10.6249 3.89616C10.6249 3.23864 10.8861 2.60806 11.351 2.14312C11.816 1.67819 12.4466 1.41699 13.1041 1.41699ZM1.58658 5.03658L3.59117 3.03199C3.72628 2.89918 3.90816 2.82477 4.09762 2.82477C4.28708 2.82477 4.46896 2.89918 4.60408 3.03199L10.6037 9.04574C10.8799 9.32199 10.8799 9.76824 10.6037 10.0445L8.59908 12.042C8.53373 12.1093 8.45554 12.1627 8.36916 12.1992C8.28278 12.2357 8.18995 12.2545 8.09616 12.2545C8.00238 12.2545 7.90955 12.2357 7.82317 12.1992C7.73679 12.1627 7.6586 12.1093 7.59325 12.042L1.58658 6.04241C1.31033 5.75908 1.31033 5.31283 1.58658 5.03658Z" fill="white"/>
</svg>
