<svg width="21" height="21" viewBox="0 0 21 21" fill="none" xmlns="http://www.w3.org/2000/svg">
<path d="M16.625 16.625H18.375V18.375H16.625V16.625ZM16.625 14.875H18.375V13.125H16.625V14.875ZM2.625 11.375H4.375V9.625H2.625V11.375ZM2.625 14.875H4.375V13.125H2.625V14.875ZM2.625 7.875H4.375V6.125H2.625V7.875ZM2.625 4.375H4.375V2.625H2.625V4.375ZM6.125 4.375H7.875V2.625H6.125V4.375ZM13.125 18.375H14.875V16.625H13.125V18.375ZM9.625 18.375H11.375V16.625H9.625V18.375ZM13.125 18.375H14.875V16.625H13.125V18.375ZM6.125 18.375H7.875V16.625H6.125V18.375ZM2.625 18.375H4.375V16.625H2.625V18.375ZM18.375 7C18.375 5.83968 17.9141 4.72688 17.0936 3.90641C16.2731 3.08594 15.1603 2.625 14 2.625H9.625V4.375H14C14.6962 4.375 15.3639 4.65156 15.8562 5.14384C16.3484 5.63613 16.625 6.30381 16.625 7V11.375H18.375V7Z" fill="black"/>
</svg>
