<svg width="17" height="17" viewBox="0 0 17 17" fill="none" xmlns="http://www.w3.org/2000/svg">
<path d="M2.59968 11.5178L2.98218 11.8932L2.54301 12.3253C2.72075 12.6024 2.91968 12.8652 3.13801 13.1116L13.1113 3.13114C12.8642 2.91897 12.604 2.72261 12.3322 2.54322L11.893 2.9753L11.5176 2.59989L11.8576 2.25989C10.5161 1.5385 8.97787 1.26873 7.47098 1.4906C5.9641 1.71246 4.56887 2.41415 3.49225 3.49156C2.41564 4.56897 1.71499 5.96472 1.49423 7.47177C1.27348 8.97881 1.54438 10.5169 2.26676 11.8578L2.59968 11.5178ZM10.5259 3.59155L10.9013 3.96697L9.91676 4.95864L9.54134 4.58322L10.5259 3.59155ZM8.54968 5.57489L8.91801 5.9503L7.93343 6.94197L7.55801 6.56655L8.54968 5.57489ZM6.56634 7.55822L6.94176 7.93364L5.95009 8.91822L5.57468 8.5428L6.56634 7.55822ZM4.58301 9.53447L4.95843 9.91697L3.96676 10.9086L3.59134 10.5332L4.58301 9.53447ZM4.66801 14.4574L5.10718 14.0253L5.48259 14.4007L5.14259 14.7407C6.48406 15.4621 8.02232 15.7319 9.5292 15.51C11.0361 15.2881 12.4313 14.5865 13.5079 13.509C14.5845 12.4316 15.2852 11.0359 15.506 9.52884C15.7267 8.0218 15.4558 6.48373 14.7334 5.1428L14.4005 5.4828L14.018 5.10739L14.4572 4.6753C14.2794 4.39825 14.0805 4.13538 13.8622 3.88905L3.88884 13.8695C4.13594 14.0816 4.39618 14.278 4.66801 14.4574ZM13.0334 6.09905L13.4088 6.47447L12.4172 7.46614L12.0418 7.08364L13.0334 6.09905ZM11.0501 8.08239L11.4255 8.4578L10.4338 9.44239L10.0584 9.06697L11.0501 8.08239ZM9.06676 10.0586L9.44218 10.4341L8.45759 11.4257L8.07509 11.0503L9.06676 10.0586ZM7.08343 12.042L7.45884 12.4174L6.46718 13.4091L6.09176 13.0336L7.08343 12.042Z" fill="white"/>
</svg>
