<svg width="21" height="21" viewBox="0 0 21 21" fill="none" xmlns="http://www.w3.org/2000/svg">
<path d="M17.2812 13.5043V2.84375C17.2812 2.61169 17.1891 2.38913 17.025 2.22503C16.8609 2.06094 16.6383 1.96875 16.4062 1.96875H4.59375C4.36169 1.96875 4.13913 2.06094 3.97503 2.22503C3.81094 2.38913 3.71875 2.61169 3.71875 2.84375V18.1562C3.71875 18.3883 3.81094 18.6109 3.97503 18.775C4.13913 18.9391 4.36169 19.0312 4.59375 19.0312H16.4062C16.6383 19.0312 16.8609 18.9391 17.025 18.775C17.1891 18.6109 17.2812 18.3883 17.2812 18.1562V17.5136" stroke="black" stroke-linecap="round" stroke-linejoin="round"/>
<path d="M16.2461 16.4762L9.3135 9.52656V7.54687M16.2461 16.4762L18.2459 14.4716M16.2461 16.4762L17.3884 17.6207C17.454 17.6864 17.5319 17.7385 17.6176 17.7741C17.7034 17.8096 17.7953 17.8279 17.8881 17.8279C17.9809 17.8279 18.0728 17.8096 18.1585 17.7741C18.2442 17.7385 18.3221 17.6864 18.3877 17.6207L19.3878 16.6184C19.5204 16.4854 19.5949 16.3051 19.5949 16.1173C19.5949 15.9294 19.5204 15.7492 19.3878 15.6161L18.2459 14.4716M9.3135 7.54687H11.34L18.2459 14.4716M9.3135 7.54687H5.6875M5.6875 4.59375H15.3125M14.2853 10.5H15.3125M5.6875 10.5H10.2848M5.6875 13.4531H13.1202M5.6875 16.4062H15.3125" stroke="black" stroke-linecap="round" stroke-linejoin="round"/>
</svg>
