<svg width="30" height="30" viewBox="0 0 30 30" fill="none" xmlns="http://www.w3.org/2000/svg">
<path d="M24.6875 19.2919V4.0625C24.6875 3.73098 24.5558 3.41304 24.3214 3.17862C24.087 2.9442 23.769 2.8125 23.4375 2.8125H6.5625C6.23098 2.8125 5.91304 2.9442 5.67862 3.17862C5.4442 3.41304 5.3125 3.73098 5.3125 4.0625V25.9375C5.3125 26.269 5.4442 26.587 5.67862 26.8214C5.91304 27.0558 6.23098 27.1875 6.5625 27.1875H23.4375C23.769 27.1875 24.087 27.0558 24.3214 26.8214C24.5558 26.587 24.6875 26.269 24.6875 25.9375V25.0194" stroke="black" stroke-linecap="round" stroke-linejoin="round"/>
<path d="M23.2087 23.5375L13.305 13.6094V10.7812M23.2087 23.5375L26.0656 20.6737M23.2087 23.5375L24.8406 25.1725C24.9343 25.2663 25.0456 25.3407 25.168 25.3915C25.2905 25.4423 25.4218 25.4684 25.5544 25.4684C25.687 25.4684 25.8182 25.4423 25.9407 25.3915C26.0632 25.3407 26.1744 25.2663 26.2681 25.1725L27.6969 23.7406C27.8863 23.5505 27.9926 23.2931 27.9926 23.0247C27.9926 22.7563 27.8863 22.4989 27.6969 22.3087L26.0656 20.6737M13.305 10.7812H16.2L26.0656 20.6737M13.305 10.7812H8.125M8.125 6.5625H21.875M20.4075 15H21.875M8.125 15H14.6925M8.125 19.2187H18.7431M8.125 23.4375H21.875" stroke="black" stroke-linecap="round" stroke-linejoin="round"/>
</svg>
