<svg width="31" height="28" viewBox="0 0 31 28" fill="none" xmlns="http://www.w3.org/2000/svg">
<rect width="31" height="27.1209" rx="4.69697" fill="#E4453B"/>
<path d="M3.37636 13.2677C3.37636 12.0954 3.63 11.0526 4.13727 10.1395C4.64454 9.21518 5.34909 8.49936 6.2509 7.99209C7.164 7.47354 8.19545 7.21427 9.34527 7.21427C10.7544 7.21427 11.9605 7.58627 12.9638 8.33027C13.9671 9.07427 14.6378 10.0888 14.976 11.3739H11.7971C11.5604 10.8779 11.2222 10.5003 10.7825 10.241C10.3542 9.98173 9.86381 9.85209 9.31145 9.85209C8.4209 9.85209 7.69945 10.1621 7.14709 10.7821C6.59472 11.4021 6.31854 12.2306 6.31854 13.2677C6.31854 14.3048 6.59472 15.1334 7.14709 15.7534C7.69945 16.3734 8.4209 16.6834 9.31145 16.6834C9.86381 16.6834 10.3542 16.5537 10.7825 16.2945C11.2222 16.0352 11.5604 15.6575 11.7971 15.1615H14.976C14.6378 16.4466 13.9671 17.4612 12.9638 18.2052C11.9605 18.9379 10.7544 19.3043 9.34527 19.3043C8.19545 19.3043 7.164 19.0506 6.2509 18.5434C5.34909 18.0248 4.64454 17.309 4.13727 16.3959C3.63 15.4828 3.37636 14.4401 3.37636 13.2677ZM24.136 17.123H19.7058L18.9956 19.2197H15.9689L20.2638 7.34954H23.6118L27.9067 19.2197H24.8461L24.136 17.123ZM23.392 14.891L21.9209 10.5454L20.4667 14.891H23.392Z" fill="white"/>
</svg>
