<svg width="24" height="24" viewBox="0 0 24 24" fill="none" xmlns="http://www.w3.org/2000/svg">
    <path
        d="M10.0299 8.97015C9.96125 8.89647 9.87845 8.83736 9.78645 8.79637C9.69445 8.75538 9.59513 8.73334 9.49443 8.73156C9.39373 8.72979 9.2937 8.74831 9.20031 8.78603C9.10692 8.82375 9.02209 8.8799 8.95087 8.95112C8.87965 9.02233 8.82351 9.10717 8.78579 9.20056C8.74807 9.29394 8.72954 9.39397 8.73132 9.49468C8.73309 9.59538 8.75514 9.69469 8.79613 9.78669C8.83712 9.87869 8.89622 9.96149 8.96991 10.0302L10.9399 12.0002L8.96991 13.9702C8.89622 14.0388 8.83712 14.1216 8.79613 14.2136C8.75514 14.3056 8.73309 14.4049 8.73132 14.5056C8.72954 14.6063 8.74807 14.7064 8.78579 14.7998C8.82351 14.8931 8.87965 14.978 8.95087 15.0492C9.02209 15.1204 9.10692 15.1766 9.20031 15.2143C9.2937 15.252 9.39373 15.2705 9.49443 15.2687C9.59513 15.267 9.69445 15.2449 9.78645 15.2039C9.87845 15.1629 9.96125 15.1038 10.0299 15.0302L11.9999 13.0602L13.9699 15.0302C14.1121 15.1626 14.3001 15.2348 14.4944 15.2313C14.6887 15.2279 14.8741 15.1492 15.0115 15.0118C15.1489 14.8744 15.2277 14.689 15.2311 14.4947C15.2345 14.3004 15.1624 14.1123 15.0299 13.9702L13.0599 12.0002L15.0299 10.0302C15.1036 9.96149 15.1627 9.87869 15.2037 9.78669C15.2447 9.69469 15.2667 9.59538 15.2685 9.49468C15.2703 9.39397 15.2518 9.29394 15.214 9.20056C15.1763 9.10717 15.1202 9.02233 15.0489 8.95112C14.9777 8.8799 14.8929 8.82375 14.7995 8.78603C14.7061 8.74831 14.6061 8.72979 14.5054 8.73156C14.4047 8.73334 14.3054 8.75538 14.2134 8.79637C14.1214 8.83736 14.0386 8.89647 13.9699 8.97015L11.9999 10.9402L10.0299 8.97015Z"
        fill="black" />
    <path fill-rule="evenodd" clip-rule="evenodd"
        d="M12 1.25C11.063 1.25 10.167 1.557 8.723 2.051L7.996 2.301C6.515 2.807 5.371 3.199 4.553 3.531C4.141 3.698 3.786 3.861 3.501 4.026C3.226 4.186 2.951 4.385 2.764 4.652C2.579 4.915 2.483 5.239 2.423 5.552C2.36 5.876 2.323 6.265 2.298 6.712C2.25 7.598 2.25 8.814 2.25 10.39V11.991C2.25 18.092 6.858 21.017 9.598 22.215L9.625 22.226C9.965 22.375 10.285 22.514 10.652 22.608C11.039 22.708 11.451 22.75 12 22.75C12.55 22.75 12.96 22.708 13.348 22.608C13.715 22.514 14.035 22.375 14.374 22.226L14.402 22.215C17.142 21.017 21.75 18.092 21.75 11.991V10.39C21.75 8.814 21.75 7.598 21.702 6.711C21.6859 6.322 21.6441 5.9345 21.577 5.551C21.517 5.239 21.421 4.915 21.237 4.651C21.049 4.385 20.774 4.186 20.499 4.026C20.16 3.83733 19.8085 3.67195 19.447 3.531C18.629 3.199 17.485 2.807 16.004 2.301L15.277 2.051C13.833 1.557 12.937 1.25 12 1.25ZM9.08 3.514C10.695 2.962 11.342 2.75 12 2.75C12.658 2.75 13.305 2.962 14.92 3.514L15.492 3.71C17.005 4.228 18.108 4.606 18.882 4.92C19.269 5.078 19.549 5.21 19.746 5.324C19.843 5.38 19.91 5.426 19.954 5.463C19.992 5.493 20.007 5.511 20.009 5.513C20.0221 5.53655 20.0328 5.56134 20.041 5.587C20.061 5.643 20.083 5.723 20.104 5.835C20.1581 6.15182 20.1915 6.47183 20.204 6.793C20.25 7.634 20.25 8.808 20.25 10.417V11.991C20.25 17.167 16.38 19.714 13.801 20.84C13.43 21.002 13.215 21.094 12.976 21.155C12.748 21.214 12.47 21.25 12 21.25C11.53 21.25 11.252 21.214 11.024 21.155C10.784 21.095 10.57 21.002 10.199 20.84C7.619 19.714 3.75 17.166 3.75 11.991V10.417C3.75 8.808 3.75 7.634 3.796 6.793C3.80849 6.47183 3.8419 6.15182 3.896 5.835C3.917 5.723 3.939 5.643 3.959 5.587C3.977 5.537 3.989 5.517 3.991 5.513C4.00768 5.4946 4.0261 5.47786 4.046 5.463C4.11149 5.41086 4.18105 5.36405 4.254 5.323C4.451 5.209 4.731 5.078 5.118 4.921C5.892 4.606 6.995 4.228 8.508 3.711L9.08 3.514Z"
        fill="black" />
</svg>