<svg width="9" height="8" viewBox="0 0 9 8" fill="none" xmlns="http://www.w3.org/2000/svg">
<path d="M4.125 7.23044C4.01727 7.2307 3.9113 7.20307 3.81741 7.15025C3.72351 7.09743 3.64489 7.02121 3.58917 6.92901L0.0934029 1.21457C0.0344067 1.11823 0.00220013 1.00788 0.000108719 0.894928C-0.00198269 0.781976 0.0261164 0.670514 0.0815039 0.572052C0.136031 0.474528 0.215551 0.393288 0.311886 0.336686C0.408221 0.280084 0.517894 0.250163 0.629626 0.25L7.62037 0.25C7.73211 0.250163 7.84178 0.280084 7.93811 0.336686C8.03445 0.393288 8.11397 0.474528 8.1685 0.572052C8.22388 0.670514 8.25198 0.781976 8.24989 0.894928C8.2478 1.00788 8.21559 1.11823 8.1566 1.21457L4.66083 6.92901C4.60511 7.02121 4.52649 7.09743 4.43259 7.15025C4.3387 7.20307 4.23273 7.2307 4.125 7.23044Z" fill="#504F4F"/>
</svg>
