<svg width="21" height="21" viewBox="0 0 21 21" fill="none" xmlns="http://www.w3.org/2000/svg">
<g clip-path="url(#clip0_1477_1056)">
<path d="M19.25 1.96821H16.4062V0.655711C16.4064 0.481663 16.3373 0.314697 16.2143 0.191544C16.0914 0.0683913 15.9245 -0.000860374 15.7504 -0.000976407C15.5764 -0.00109244 15.4094 0.0679367 15.2863 0.190925C15.1631 0.313914 15.0939 0.480788 15.0938 0.654836V1.96821H11.1562V0.655711C11.1563 0.569531 11.1394 0.484184 11.1065 0.404542C11.0735 0.3249 11.0252 0.252523 10.9643 0.191544C10.9035 0.130565 10.8311 0.0821778 10.7515 0.0491451C10.6719 0.0161123 10.5866 -0.000918963 10.5004 -0.000976416C10.3264 -0.00109245 10.1594 0.0679367 10.0363 0.190925C9.91312 0.313914 9.84387 0.480788 9.84375 0.654836V1.96821H5.90625V0.655711C5.90631 0.569531 5.88939 0.484184 5.85646 0.404542C5.82354 0.3249 5.77525 0.252523 5.71435 0.191544C5.65345 0.130565 5.58114 0.0821778 5.50154 0.0491451C5.42194 0.0161123 5.33662 -0.000918963 5.25044 -0.000976416C5.07639 -0.00109245 4.90942 0.0679367 4.78627 0.190925C4.66312 0.313914 4.59387 0.480788 4.59375 0.654836V1.96821H1.75C1.28602 1.96821 0.841036 2.15247 0.512872 2.48046C0.184709 2.80846 0.000231989 3.25336 0 3.71734V19.2486C0 19.7127 0.184374 20.1578 0.512563 20.486C0.840752 20.8142 1.28587 20.9986 1.75 20.9986H19.25C19.7141 20.9986 20.1592 20.8142 20.4874 20.486C20.8156 20.1578 21 19.7127 21 19.2486V3.71734C20.9998 3.25336 20.8153 2.80846 20.4871 2.48046C20.159 2.15247 19.714 1.96821 19.25 1.96821ZM19.6875 19.2495C19.6875 19.3653 19.6415 19.4765 19.5597 19.5585C19.4778 19.6405 19.3668 19.6867 19.2509 19.687H1.75C1.63397 19.687 1.52269 19.6409 1.44064 19.5588C1.35859 19.4768 1.3125 19.3655 1.3125 19.2495V3.71821C1.31273 3.60233 1.35893 3.49128 1.44095 3.40942C1.52297 3.32756 1.63412 3.28159 1.75 3.28159H4.59375V4.59409C4.59363 4.76813 4.66266 4.9351 4.78565 5.05825C4.90864 5.18141 5.07551 5.25066 5.24956 5.25077C5.42361 5.25089 5.59058 5.18186 5.71373 5.05887C5.83688 4.93588 5.90613 4.76901 5.90625 4.59496V3.28159H9.84375V4.59409C9.84363 4.76813 9.91266 4.9351 10.0357 5.05825C10.1586 5.18141 10.3255 5.25066 10.4996 5.25077C10.6736 5.25089 10.8406 5.18186 10.9637 5.05887C11.0869 4.93588 11.1561 4.76901 11.1562 4.59496V3.28159H15.0938V4.59409C15.0936 4.76813 15.1627 4.9351 15.2857 5.05825C15.4086 5.18141 15.5755 5.25066 15.7496 5.25077C15.9236 5.25089 16.0906 5.18186 16.2137 5.05887C16.3369 4.93588 16.4061 4.76901 16.4062 4.59496V3.28159H19.25C19.3657 3.28182 19.4767 3.32789 19.5585 3.40973C19.6403 3.49156 19.6864 3.60248 19.6866 3.71821L19.6875 19.2495Z" fill="#504F4F"/>
<path d="M4.59375 7.875H7.21875V9.84375H4.59375V7.875ZM4.59375 11.1562H7.21875V13.125H4.59375V11.1562ZM4.59375 14.4375H7.21875V16.4062H4.59375V14.4375ZM9.1875 14.4375H11.8125V16.4062H9.1875V14.4375ZM9.1875 11.1562H11.8125V13.125H9.1875V11.1562ZM9.1875 7.875H11.8125V9.84375H9.1875V7.875ZM13.7812 14.4375H16.4062V16.4062H13.7812V14.4375ZM13.7812 11.1562H16.4062V13.125H13.7812V11.1562ZM13.7812 7.875H16.4062V9.84375H13.7812V7.875Z" fill="#504F4F"/>
</g>
<defs>
<clipPath id="clip0_1477_1056">
<rect width="21" height="21" fill="white"/>
</clipPath>
</defs>
</svg>
