<svg width="21" height="21" viewBox="0 0 21 21" fill="none" xmlns="http://www.w3.org/2000/svg">
<path d="M11.2482 14.4992C13.3583 12.9045 15.2597 10.8067 15.2597 8.79551V4.76001C14.3886 4.41657 13.0022 3.9502 10.5001 3.9502C7.99759 3.9502 6.61159 4.41613 5.74097 4.75957V8.79551C5.74097 10.8071 7.6419 12.9045 9.75197 14.4992V14.9411C8.64772 15.4928 8.03478 16.3761 8.03478 16.3761V17.0507H12.9658V16.3761C12.9658 16.3761 12.4715 15.6647 11.5724 15.12C10.6843 15.5663 9.26109 16.2658 9.26109 16.2658" stroke="#504F4F" stroke-linecap="round" stroke-linejoin="round"/>
<path d="M9.75189 14.499C3.79052 10.9294 4.04777 10.169 4.04777 6.85717C4.36714 6.55048 5.05402 6.2928 5.05402 6.2928M11.2481 14.499C17.21 10.9294 16.9523 10.169 16.9523 6.85717C16.6329 6.55048 15.946 6.2928 15.946 6.2928M9.4312 10.9946V5.63086M9.4312 10.9946H10.903C11.3195 10.9946 11.719 10.8291 12.0136 10.5346C12.3081 10.24 12.4736 9.84054 12.4736 9.42398V7.20148C12.4736 6.78493 12.3081 6.38543 12.0136 6.09088C11.719 5.79634 11.3195 5.63086 10.903 5.63086H9.4312M9.4312 10.9946H8.52645M9.4312 5.63086H8.52645" stroke="#504F4F" stroke-linecap="round" stroke-linejoin="round"/>
</svg>
