<svg
    xmlns="http://www.w3.org/2000/svg"
    width='24'
    height='24'
    viewBox="0 0 24 24"
    fill="none"
>
    <path
        d="M12.8565 16.5697C15.268 14.7472 17.441 12.3497 17.441 10.0512V5.43917C16.4455 5.04667 14.861 4.51367 12.0015 4.51367C9.1415 4.51367 7.5575 5.04617 6.5625 5.43867V10.0512C6.5625 12.3502 8.735 14.7472 11.1465 16.5697V17.0747C9.8845 17.7052 9.184 18.7147 9.184 18.7147V19.4857H14.8195V18.7147C14.8195 18.7147 14.2545 17.9017 13.227 17.2792C12.212 17.7892 10.5855 18.5887 10.5855 18.5887"
        stroke="currentColor"
        strokeLinecap="round"
        strokeLinejoin="round"
    />
    <path
        d="M11.1459 16.5696C4.33286 12.4901 4.62686 11.6211 4.62686 7.83607C4.99186 7.48557 5.77686 7.19107 5.77686 7.19107M12.8559 16.5696C19.6694 12.4901 19.3749 11.6211 19.3749 7.83607C19.0099 7.48557 18.2249 7.19107 18.2249 7.19107M10.7794 12.5646V6.43457M10.7794 12.5646H12.4614C12.9374 12.5646 13.394 12.3755 13.7306 12.0388C14.0672 11.7022 14.2564 11.2456 14.2564 10.7696V8.22957C14.2564 7.75351 14.0672 7.29694 13.7306 6.96031C13.394 6.62369 12.9374 6.43457 12.4614 6.43457H10.7794M10.7794 12.5646H9.74536M10.7794 6.43457H9.74536"
        stroke="currentColor"
        strokeLinecap="round"
        strokeLinejoin="round"
    />
</svg>