<svg width="9" height="7" viewBox="0 0 9 7" fill="none" xmlns="http://www.w3.org/2000/svg">
<path d="M4.125 6.98044C4.01727 6.9807 3.9113 6.95307 3.81741 6.90025C3.72351 6.84743 3.64489 6.77121 3.58917 6.67901L0.0934029 0.964569C0.0344067 0.868226 0.00220013 0.75788 0.000108719 0.644928C-0.00198269 0.531976 0.0261164 0.420514 0.0815039 0.322052C0.136031 0.224528 0.215551 0.143288 0.311886 0.0866858C0.408221 0.0300839 0.517894 0.000162953 0.629626 0L7.62037 0C7.73211 0.000162953 7.84178 0.0300839 7.93811 0.0866858C8.03445 0.143288 8.11397 0.224528 8.1685 0.322052C8.22388 0.420514 8.25198 0.531976 8.24989 0.644928C8.2478 0.75788 8.21559 0.868226 8.1566 0.964569L4.66083 6.67901C4.60511 6.77121 4.52649 6.84743 4.43259 6.90025C4.3387 6.95307 4.23273 6.9807 4.125 6.98044Z" fill="#001240"/>
</svg>
