<svg width="24" height="24" viewBox="0 0 24 24" fill="none" xmlns="http://www.w3.org/2000/svg">
<path d="M17.2902 9.31002C17.1977 9.21732 17.0878 9.14377 16.9668 9.09359C16.8459 9.04341 16.7162 9.01758 16.5852 9.01758C16.4543 9.01758 16.3246 9.04341 16.2036 9.09359C16.0826 9.14377 15.9727 9.21732 15.8802 9.31002L12.0002 13.19L8.12022 9.31002C7.93324 9.12304 7.67965 9.018 7.41522 9.018C7.1508 9.018 6.8972 9.12304 6.71022 9.31002C6.52324 9.497 6.4182 9.7506 6.4182 10.015C6.4182 10.2794 6.52324 10.533 6.71022 10.72L11.3002 15.31C11.3927 15.4027 11.5026 15.4763 11.6236 15.5265C11.7446 15.5766 11.8743 15.6025 12.0052 15.6025C12.1362 15.6025 12.2659 15.5766 12.3868 15.5265C12.5078 15.4763 12.6177 15.4027 12.7102 15.31L17.3002 10.72C17.6802 10.34 17.6802 9.70002 17.2902 9.31002Z" fill="black"/>
</svg>
