<svg width="18" height="18" viewBox="0 0 18 18" fill="none" xmlns="http://www.w3.org/2000/svg">
<path d="M0.84375 3.375H17.1562C17.38 3.375 17.5946 3.46389 17.7529 3.62213C17.9111 3.78036 18 3.99497 18 4.21875C18 4.44253 17.9111 4.65714 17.7529 4.81537C17.5946 4.97361 17.38 5.0625 17.1562 5.0625H0.84375C0.619974 5.0625 0.405362 4.97361 0.247129 4.81537C0.0888948 4.65714 0 4.44253 0 4.21875C0 3.99497 0.0888948 3.78036 0.247129 3.62213C0.405362 3.46389 0.619974 3.375 0.84375 3.375ZM3.375 8.71875C3.375 8.49497 3.46389 8.28036 3.62213 8.12213C3.78036 7.96389 3.99497 7.875 4.21875 7.875H13.7812C14.005 7.875 14.2196 7.96389 14.3779 8.12213C14.5361 8.28036 14.625 8.49497 14.625 8.71875C14.625 8.94253 14.5361 9.15714 14.3779 9.31537C14.2196 9.4736 14.005 9.5625 13.7812 9.5625H4.21875C3.99497 9.5625 3.78036 9.4736 3.62213 9.31537C3.46389 9.15714 3.375 8.94253 3.375 8.71875ZM6.75 13.2188C6.75 12.995 6.83889 12.7804 6.99713 12.6221C7.15536 12.4639 7.36997 12.375 7.59375 12.375H10.4062C10.63 12.375 10.8446 12.4639 11.0029 12.6221C11.1611 12.7804 11.25 12.995 11.25 13.2188C11.25 13.4425 11.1611 13.6571 11.0029 13.8154C10.8446 13.9736 10.63 14.0625 10.4062 14.0625H7.59375C7.36997 14.0625 7.15536 13.9736 6.99713 13.8154C6.83889 13.6571 6.75 13.4425 6.75 13.2188Z" fill="#001240"/>
</svg>
