<svg width="807" height="980" viewBox="0 0 807 980" fill="none" xmlns="http://www.w3.org/2000/svg">
<rect opacity="0.9" y="90" width="807" height="50" fill="#48A924"/>
<rect opacity="0.9" x="24" y="980" width="980" height="40" transform="rotate(-90 24 980)" fill="#48A924"/>
<rect opacity="0.9" x="104" y="980" width="980" height="40" transform="rotate(-90 104 980)" fill="#48A924"/>
<rect opacity="0.9" x="184" y="980" width="980" height="40" transform="rotate(-90 184 980)" fill="#48A924"/>
<rect opacity="0.9" x="264" y="980" width="980" height="40" transform="rotate(-90 264 980)" fill="#48A924"/>
<rect opacity="0.9" x="344" y="980" width="980" height="40" transform="rotate(-90 344 980)" fill="#48A924"/>
<rect opacity="0.9" x="424" y="980" width="980" height="40" transform="rotate(-90 424 980)" fill="#48A924"/>
<rect opacity="0.9" x="504" y="980" width="980" height="40" transform="rotate(-90 504 980)" fill="#48A924"/>
<rect opacity="0.9" x="584" y="980" width="980" height="40" transform="rotate(-90 584 980)" fill="#48A924"/>
<rect opacity="0.9" x="664" y="980" width="980" height="40" transform="rotate(-90 664 980)" fill="#48A924"/>
<rect opacity="0.9" x="744" y="980" width="980" height="40" transform="rotate(-90 744 980)" fill="#48A924"/>
<rect opacity="0.9" width="807" height="40" fill="#48A924"/>
<rect opacity="0.9" y="40" width="807" height="50" fill="#49AD22"/>
<rect opacity="0.9" y="140" width="807" height="50" fill="#49AD22"/>
<rect opacity="0.9" y="190" width="807" height="50" fill="#48A924"/>
<rect opacity="0.9" y="240" width="807" height="50" fill="#49AD22"/>
<rect opacity="0.9" y="290" width="807" height="50" fill="#48A924"/>
<rect opacity="0.9" y="340" width="807" height="50" fill="#49AD22"/>
<rect opacity="0.9" y="390" width="807" height="50" fill="#48A924"/>
<rect opacity="0.9" y="440" width="807" height="50" fill="#49AD22"/>
<rect opacity="0.9" y="490" width="807" height="50" fill="#48A924"/>
<rect opacity="0.9" y="540" width="807" height="50" fill="#49AD22"/>
<rect opacity="0.9" y="590" width="807" height="50" fill="#48A924"/>
<rect opacity="0.9" y="640" width="807" height="50" fill="#49AD22"/>
<rect opacity="0.9" y="690" width="807" height="50" fill="#48A924"/>
<rect opacity="0.9" y="740" width="807" height="50" fill="#49AD22"/>
<rect opacity="0.9" y="790" width="807" height="50" fill="#48A924"/>
<rect opacity="0.9" y="840" width="807" height="50" fill="#49AD22"/>
<rect opacity="0.9" y="890" width="807" height="50" fill="#48A924"/>
<rect opacity="0.9" y="940" width="807" height="40" fill="#49AD22"/>
</svg>
