<svg width="20" height="20" viewBox="0 0 20 20" fill="none" xmlns="http://www.w3.org/2000/svg">
<path d="M18.3333 18.3333H1.66666M1.66666 9.16667L8.43833 3.75C8.8816 3.39541 9.43235 3.20223 10 3.20223C10.5676 3.20223 11.1184 3.39541 11.5617 3.75L18.3333 9.16667M12.9167 4.58333V2.91667C12.9167 2.80616 12.9606 2.70018 13.0387 2.62204C13.1168 2.5439 13.2228 2.5 13.3333 2.5H15.4167C15.5272 2.5 15.6332 2.5439 15.7113 2.62204C15.7894 2.70018 15.8333 2.80616 15.8333 2.91667V7.08333M3.33333 18.3333V7.91667M16.6667 18.3333V7.91667" stroke="black" stroke-width="1.5" stroke-linecap="round"/>
<path d="M12.5 18.3333V14.1667C12.5 12.9883 12.5 12.3992 12.1333 12.0333C11.7683 11.6667 11.1792 11.6667 10 11.6667C8.82166 11.6667 8.2325 11.6667 7.86666 12.0333C7.5 12.3983 7.5 12.9875 7.5 14.1667V18.3333M11.6667 7.91667C11.6667 8.35869 11.4911 8.78262 11.1785 9.09518C10.8659 9.40774 10.442 9.58333 10 9.58333C9.55797 9.58333 9.13405 9.40774 8.82149 9.09518C8.50892 8.78262 8.33333 8.35869 8.33333 7.91667C8.33333 7.47464 8.50892 7.05072 8.82149 6.73816C9.13405 6.4256 9.55797 6.25 10 6.25C10.442 6.25 10.8659 6.4256 11.1785 6.73816C11.4911 7.05072 11.6667 7.47464 11.6667 7.91667Z" stroke="black" stroke-width="1.5"/>
</svg>
