<svg width="20" height="20" viewBox="0 0 20 20" fill="none" xmlns="http://www.w3.org/2000/svg">
<path d="M11.7607 14.2625C11.9918 14.2625 12.189 14.1819 12.3523 14.0208C12.5146 13.8586 12.5957 13.6622 12.5957 13.4316C12.5957 13.2005 12.5151 13.0033 12.354 12.84C12.1918 12.6772 11.9954 12.5958 11.7648 12.5958C11.5337 12.5958 11.3365 12.6766 11.1732 12.8383C11.0104 13 10.929 13.1964 10.929 13.4275C10.929 13.6586 11.0098 13.8558 11.1715 14.0191C11.3332 14.1814 11.5296 14.2625 11.7607 14.2625ZM7.57984 14.0708C7.66095 14.1519 7.75817 14.1925 7.8715 14.1925C7.98484 14.1925 8.08428 14.1519 8.16984 14.0708L12.4032 9.83663C12.4848 9.75163 12.5257 9.65246 12.5257 9.53913C12.5257 9.4258 12.4851 9.32858 12.404 9.24746C12.3223 9.1658 12.2259 9.12496 12.1148 9.12496C12.0037 9.12496 11.9071 9.16552 11.8248 9.24663L7.57984 13.4916C7.49873 13.5733 7.45817 13.67 7.45817 13.7816C7.45817 13.8933 7.49873 13.9897 7.57984 14.0708ZM8.23484 10.7375C8.46595 10.7375 8.66317 10.6566 8.8265 10.495C8.98928 10.3333 9.07067 10.1369 9.07067 9.9058C9.07067 9.67469 8.98984 9.47746 8.82817 9.31413C8.6665 9.15191 8.47012 9.0708 8.239 9.0708C8.00789 9.0708 7.81067 9.15135 7.64734 9.31246C7.48512 9.47469 7.404 9.67108 7.404 9.90163C7.404 10.1327 7.48456 10.33 7.64567 10.4933C7.80789 10.6561 8.00428 10.7375 8.23484 10.7375ZM9.9965 17.5C8.33095 17.5 6.94317 16.9269 5.83317 15.7808C4.72206 14.6352 4.1665 13.2091 4.1665 11.5025C4.1665 10.7469 4.33873 9.9858 4.68317 9.21913C5.0265 8.45246 5.45623 7.71691 5.97234 7.01246C6.489 6.30746 7.04623 5.64274 7.644 5.0183C8.24234 4.39441 8.79789 3.85135 9.31067 3.38913C9.41067 3.29969 9.51984 3.23052 9.63817 3.18163C9.75595 3.1333 9.8765 3.10913 9.99984 3.10913C10.1232 3.10913 10.2437 3.1333 10.3615 3.18163C10.4793 3.23052 10.5884 3.29996 10.689 3.38996C11.2018 3.85108 11.7573 4.39385 12.3557 5.0183C12.954 5.64274 13.5112 6.30746 14.0273 7.01246C14.5434 7.71691 14.9734 8.45246 15.3173 9.21913C15.6612 9.9858 15.8332 10.7469 15.8332 11.5025C15.8332 13.2091 15.2768 14.6352 14.164 15.7808C13.0512 16.9264 11.6615 17.4994 9.9965 17.5ZM9.99984 16.6666C11.4443 16.6666 12.6387 16.1769 13.5832 15.1975C14.5276 14.218 14.9998 12.9855 14.9998 11.5C14.9998 10.4861 14.5796 9.34024 13.739 8.06246C12.8984 6.78469 11.6521 5.38885 9.99984 3.87496C8.34706 5.38885 7.10067 6.78469 6.26067 8.06246C5.42067 9.34024 5.00039 10.4861 4.99984 11.5C4.99984 12.9861 5.47206 14.2189 6.4165 15.1983C7.36095 16.1777 8.55539 16.6672 9.99984 16.6666Z" fill="#858585"/>
</svg>
