<svg width="28" height="28" viewBox="0 0 28 28" fill="none" xmlns="http://www.w3.org/2000/svg">
<path d="M14 24.5C12.5549 24.5 11.1938 24.2239 9.91667 23.6717C8.63956 23.1194 7.52733 22.3689 6.58 21.42C5.63111 20.4734 4.88056 19.3612 4.32833 18.0833C3.77611 16.8062 3.5 15.4451 3.5 14C3.5 12.551 3.77611 11.1887 4.32833 9.91317C4.88133 8.63761 5.63189 7.52617 6.58 6.57883C7.52656 5.6315 8.63878 4.88172 9.91667 4.3295C11.1938 3.7765 12.5549 3.5 14 3.5C15.449 3.5 16.8113 3.77611 18.0868 4.32833C19.3624 4.88133 20.4738 5.63189 21.4212 6.58C22.3685 7.52733 23.1183 8.63839 23.6705 9.91317C24.2235 11.1887 24.5 12.551 24.5 14C24.5 15.4451 24.2239 16.8062 23.6717 18.0833C23.1194 19.3604 22.3689 20.4727 21.42 21.42C20.4727 22.3681 19.3616 23.1187 18.0868 23.6717C16.8113 24.2239 15.449 24.5 14 24.5ZM14 23.3427C14.6844 22.463 15.2491 21.5993 15.694 20.7515C16.1381 19.9037 16.4994 18.9548 16.7778 17.9048H11.2222C11.5302 19.0139 11.8988 19.9924 12.3282 20.8402C12.7575 21.6879 13.3148 22.5221 14 23.3427ZM12.5148 23.1677C11.9704 22.526 11.4734 21.7327 11.0238 20.7877C10.5743 19.8434 10.2398 18.8821 10.0205 17.9037H5.54517C6.21406 19.355 7.16178 20.545 8.38833 21.4737C9.61567 22.4023 10.9908 22.967 12.5137 23.1677M15.484 23.1677C17.0069 22.967 18.382 22.4023 19.6093 21.4737C20.8367 20.545 21.7844 19.355 22.4525 17.9037H17.9795C17.6839 18.8969 17.3118 19.866 16.863 20.811C16.4134 21.7552 15.9538 22.5408 15.484 23.1677ZM5.06917 16.737H9.77667C9.688 16.2587 9.62578 15.7924 9.59 15.3382C9.55267 14.8839 9.534 14.4379 9.534 14C9.534 13.5621 9.55228 13.1161 9.58883 12.6618C9.62539 12.2076 9.68761 11.7409 9.7755 11.2618H5.0715C4.94472 11.6663 4.84556 12.1069 4.774 12.5837C4.70244 13.0604 4.66667 13.5326 4.66667 14C4.66667 14.4682 4.70206 14.9403 4.77283 15.4163C4.84439 15.8931 4.94356 16.3333 5.07033 16.737M10.9445 16.737H17.0555C17.1442 16.2587 17.2064 15.7998 17.2422 15.3603C17.2795 14.9217 17.2982 14.4682 17.2982 14C17.2982 13.5318 17.2799 13.0783 17.2433 12.6397C17.2068 12.2002 17.1446 11.7413 17.0567 11.263H10.9433C10.8554 11.7413 10.7932 12.2002 10.7567 12.6397C10.7201 13.0783 10.7018 13.5318 10.7018 14C10.7018 14.4682 10.7201 14.9217 10.7567 15.3603C10.7932 15.7998 10.8566 16.2587 10.9445 16.737ZM18.2233 16.737H22.9297C23.0564 16.3326 23.1556 15.8923 23.2272 15.4163C23.2987 14.9403 23.3341 14.4682 23.3333 14C23.3333 13.5318 23.2979 13.0597 23.2272 12.5837C23.1556 12.1069 23.0564 11.6667 22.9297 11.263H18.2222C18.3108 11.7413 18.3731 12.2076 18.4088 12.6618C18.4462 13.1161 18.4648 13.5621 18.4648 14C18.4648 14.4379 18.4466 14.8839 18.41 15.3382C18.3734 15.7924 18.3112 16.2591 18.2233 16.7382M17.9807 10.0963H22.4537C21.77 8.61544 20.8336 7.42544 19.6443 6.52633C18.4543 5.62722 17.0679 5.05556 15.4852 4.81133C16.0296 5.52689 16.5192 6.34589 16.954 7.26833C17.388 8.19 17.7302 9.13267 17.9807 10.0963ZM11.2222 10.0963H16.7778C16.4698 9.00122 16.0899 8.01111 15.638 7.126C15.1869 6.24011 14.6409 5.41722 14 4.65733C13.3599 5.41722 12.8139 6.24011 12.362 7.126C11.9109 8.01111 11.5309 9.00122 11.2222 10.0963ZM5.54633 10.0963H10.0193C10.2698 9.13267 10.612 8.19 11.046 7.26833C11.4808 6.34589 11.9704 5.5265 12.5148 4.81017C10.9173 5.05517 9.52739 5.63072 8.34517 6.53683C7.16294 7.44372 6.22961 8.62983 5.54517 10.0952" fill="black"/>
</svg>
