<svg width="27" height="27" viewBox="0 0 27 27" fill="none" xmlns="http://www.w3.org/2000/svg">
<path d="M13.5 23.625C12.1065 23.625 10.794 23.3588 9.5625 22.8263C8.331 22.2938 7.2585 21.57 6.345 20.655C5.43 19.7423 4.70625 18.6698 4.17375 17.4375C3.64125 16.206 3.375 14.8935 3.375 13.5C3.375 12.1027 3.64125 10.7891 4.17375 9.55912C4.707 8.32912 5.43075 7.25738 6.345 6.34387C7.25775 5.43037 8.33025 4.70737 9.5625 4.17487C10.794 3.64162 12.1065 3.375 13.5 3.375C14.8973 3.375 16.2109 3.64125 17.4409 4.17375C18.6709 4.707 19.7426 5.43075 20.6561 6.345C21.5696 7.2585 22.2926 8.32987 22.8251 9.55912C23.3584 10.7891 23.625 12.1027 23.625 13.5C23.625 14.8935 23.3588 16.206 22.8263 17.4375C22.2938 18.669 21.57 19.7415 20.655 20.655C19.7415 21.5693 18.6701 22.293 17.4409 22.8263C16.2109 23.3588 14.8973 23.625 13.5 23.625ZM13.5 22.509C14.16 21.6607 14.7045 20.8279 15.1335 20.0104C15.5617 19.1929 15.9101 18.2779 16.1786 17.2654H10.8214C11.1184 18.3349 11.4739 19.2784 11.8879 20.0959C12.3019 20.9134 12.8392 21.7177 13.5 22.509ZM12.0679 22.3403C11.5429 21.7215 11.0636 20.9565 10.6301 20.0452C10.1966 19.1348 9.87412 18.2077 9.66262 17.2642H5.34712C5.99212 18.6637 6.906 19.8113 8.08875 20.7068C9.27225 21.6023 10.5982 22.1467 12.0667 22.3403M14.931 22.3403C16.3995 22.1467 17.7255 21.6023 18.909 20.7068C20.0925 19.8113 21.0064 18.6637 21.6506 17.2642H17.3374C17.0524 18.222 16.6935 19.1565 16.2608 20.0677C15.8273 20.9782 15.384 21.7358 14.931 22.3403ZM4.88812 16.1392H9.4275C9.342 15.678 9.282 15.2284 9.2475 14.7904C9.2115 14.3524 9.1935 13.9222 9.1935 13.5C9.1935 13.0778 9.21112 12.6476 9.24638 12.2096C9.28162 11.7716 9.34162 11.3216 9.42637 10.8596H4.89038C4.76813 11.2496 4.6725 11.6745 4.6035 12.1343C4.5345 12.594 4.5 13.0492 4.5 13.5C4.5 13.9515 4.53413 14.4067 4.60238 14.8657C4.67138 15.3255 4.767 15.75 4.88925 16.1392M10.5536 16.1392H16.4464C16.5319 15.678 16.5919 15.2355 16.6264 14.8118C16.6624 14.3888 16.6804 13.9515 16.6804 13.5C16.6804 13.0485 16.6627 12.6112 16.6275 12.1882C16.5922 11.7645 16.5322 11.322 16.4475 10.8608H10.5525C10.4678 11.322 10.4078 11.7645 10.3725 12.1882C10.3373 12.6112 10.3196 13.0485 10.3196 13.5C10.3196 13.9515 10.3373 14.3888 10.3725 14.8118C10.4078 15.2355 10.4689 15.678 10.5536 16.1392ZM17.5725 16.1392H22.1107C22.233 15.7492 22.3286 15.3247 22.3976 14.8657C22.4666 14.4067 22.5007 13.9515 22.5 13.5C22.5 13.0485 22.4659 12.5933 22.3976 12.1343C22.3286 11.6745 22.233 11.25 22.1107 10.8608H17.5714C17.6569 11.322 17.7169 11.7716 17.7514 12.2096C17.7874 12.6476 17.8054 13.0778 17.8054 13.5C17.8054 13.9222 17.7877 14.3524 17.7525 14.7904C17.7172 15.2284 17.6572 15.6784 17.5725 16.1404M17.3385 9.73575H21.6518C20.9925 8.30775 20.0895 7.16025 18.9427 6.29325C17.7952 5.42625 16.4584 4.875 14.9321 4.6395C15.4571 5.3295 15.9292 6.11925 16.3485 7.00875C16.767 7.8975 17.097 8.8065 17.3385 9.73575ZM10.8214 9.73575H16.1786C15.8816 8.67975 15.5153 7.725 15.0795 6.8715C14.6445 6.01725 14.118 5.22375 13.5 4.491C12.8827 5.22375 12.3562 6.01725 11.9205 6.8715C11.4855 7.725 11.1191 8.67975 10.8214 9.73575ZM5.34825 9.73575H9.6615C9.903 8.8065 10.233 7.8975 10.6515 7.00875C11.0708 6.11925 11.5429 5.32913 12.0679 4.63838C10.5274 4.87463 9.18712 5.42963 8.04712 6.30338C6.90712 7.17788 6.00712 8.32162 5.34712 9.73462" fill="white"/>
</svg>
