<svg width="28" height="27" viewBox="0 0 28 27" fill="none" xmlns="http://www.w3.org/2000/svg">
<path d="M24.125 13.4996C24.1283 15.5097 23.5305 17.4749 22.4083 19.1426C21.4828 20.5229 20.2315 21.654 18.7649 22.4357C17.2984 23.2174 15.6619 23.6258 14 23.6246C12.3381 23.6258 10.7016 23.2174 9.23507 22.4357C7.76855 21.654 6.51723 20.5229 5.59175 19.1426C4.71057 17.8291 4.14939 16.3274 3.95319 14.7579C3.757 13.1883 3.93124 11.5947 4.46197 10.1047C4.99269 8.61465 5.86512 7.26969 7.00933 6.17761C8.15353 5.08553 9.53768 4.27671 11.0508 3.81599C12.564 3.35527 14.164 3.25546 15.7227 3.52457C17.2813 3.79369 18.7552 4.42423 20.0263 5.36565C21.2973 6.30708 22.3302 7.5332 23.0419 8.94572C23.7537 10.3582 24.1246 11.9179 24.125 13.4996Z" stroke="white" stroke-width="2"/>
<path d="M15.4061 10.125C15.4061 10.9012 14.7761 11.5312 13.9998 11.5312V13.2188C14.8204 13.2188 15.6073 12.8928 16.1875 12.3126C16.7676 11.7324 17.0936 10.9455 17.0936 10.125H15.4061ZM13.9998 11.5312C13.2236 11.5312 12.5936 10.9012 12.5936 10.125H10.9061C10.9061 10.9455 11.232 11.7324 11.8122 12.3126C12.3924 12.8928 13.1793 13.2188 13.9998 13.2188V11.5312ZM12.5936 10.125C12.5936 9.34875 13.2236 8.71875 13.9998 8.71875V7.03125C13.1793 7.03125 12.3924 7.3572 11.8122 7.93739C11.232 8.51758 10.9061 9.30449 10.9061 10.125H12.5936ZM13.9998 8.71875C14.7761 8.71875 15.4061 9.34875 15.4061 10.125H17.0936C17.0936 9.30449 16.7676 8.51758 16.1875 7.93739C15.6073 7.3572 14.8204 7.03125 13.9998 7.03125V8.71875ZM6.31159 20.088L5.50272 19.8472L5.37109 20.2882L5.67147 20.637L6.31159 20.088ZM21.6881 20.088L22.3293 20.6381L22.6286 20.2894L22.497 19.8472L21.6881 20.088ZM10.6248 17.7188H17.3748V16.0312H10.6248V17.7188ZM10.6248 16.0312C9.47408 16.0313 8.35405 16.4027 7.43123 17.0902C6.50841 17.7777 5.83206 18.7446 5.50272 19.8472L7.12047 20.3287C7.34607 19.5746 7.80889 18.9133 8.44021 18.4431C9.07153 17.9729 9.83767 17.7189 10.6248 17.7188V16.0312ZM13.9998 22.7812C12.6604 22.7828 11.3366 22.4937 10.1198 21.9339C8.90298 21.3742 7.82209 20.5571 6.95172 19.539L5.67147 20.637C6.70024 21.8396 7.97754 22.8059 9.41534 23.4673C10.8531 24.1286 12.4172 24.4703 13.9998 24.4688V22.7812ZM17.3748 17.7188C19.0286 17.7188 20.4292 18.819 20.8792 20.3287L22.497 19.8472C22.1676 18.7446 21.4913 17.7777 20.5685 17.0902C19.6456 16.4027 18.5256 16.0313 17.3748 16.0312V17.7188ZM21.048 19.539C20.1776 20.5571 19.0967 21.3742 17.8799 21.9339C16.663 22.4937 15.3392 22.7828 13.9998 22.7812V24.4688C15.5824 24.4703 17.1465 24.1286 18.5843 23.4673C20.0221 22.8059 21.3006 21.8407 22.3293 20.6381L21.048 19.539Z" fill="white"/>
</svg>
