<svg width="576" height="507" viewBox="0 0 576 507" fill="none" xmlns="http://www.w3.org/2000/svg">
<path fill-rule="evenodd" clip-rule="evenodd" d="M485.422 154.63C485.094 154.391 484.316 154.307 483.954 154.235C482.45 153.939 480.9 153.81 479.366 153.81C474.636 153.817 469.83 154.281 465.178 155.084C462.225 155.595 458.655 157.311 455.718 156.379C450.6 154.755 445.427 154.834 440.572 157.153C436.132 159.274 432.762 163.301 430.796 167.653C430.499 168.31 429.295 170.728 428.954 172.358C428.809 172.691 428.669 173.027 428.543 173.367C428.185 174.334 427.863 175.318 427.565 176.304C427.438 176.724 427.117 177.653 427.498 177.832C426.889 178.955 426.35 180.113 425.901 181.307C424.594 184.782 423.166 188.593 422.707 192.276C422.537 193.64 422.53 195.011 422.688 196.378C422.766 197.053 422.734 198.411 423.192 198.924C424.163 200.014 424.662 198.489 424.553 197.762C423.716 192.225 425.331 187.025 427.246 181.821C428.483 178.455 430.517 175.376 432.796 172.587C434.639 170.33 436.617 168.552 439.145 167.056C442.236 165.226 445.54 163.746 448.815 162.262C450.968 161.286 453.124 160.336 455.338 159.494C455.83 159.307 456.604 158.827 457.15 158.825C458.304 158.821 459.94 159.673 461.054 159.99C464.721 161.032 468.435 162.367 472.224 162.899C474.655 163.241 476.932 162.856 479.205 162.047C479.438 161.964 479.827 161.751 480.304 161.448C481.992 160.798 483.588 159.981 484.979 158.803C485.78 158.123 486.506 157.246 487.169 156.442C487.367 156.202 487.455 155.927 487.458 155.665C487.608 155.587 487.708 155.495 487.73 155.388C487.896 154.597 486.388 154.583 485.422 154.63Z" fill="#89C5CC"/>
<path fill-rule="evenodd" clip-rule="evenodd" d="M101.203 220.54C100.275 221.292 99.3647 222.06 98.4768 222.858C97.8002 223.467 96.6026 224.195 96.3597 225.117C96.1072 226.076 96.9044 226.973 97.5342 227.552C100.865 230.616 104.615 232.687 109.229 233.032C116.335 233.562 122.519 231.748 128.684 228.177C133.015 225.669 135.884 221.959 136.51 216.95C141.668 219.094 146.656 222.048 150.895 225.674C152.986 227.463 154.788 229.446 156.454 231.643C157.521 233.05 158.553 234.481 159.511 235.966C159.928 236.611 160.351 237.755 161.039 238.127C161.846 238.564 162.821 237.879 162.781 236.982C162.748 236.235 161.941 235.369 161.564 234.759C160.938 233.745 160.302 232.737 159.633 231.751C158.55 230.155 157.43 228.581 156.209 227.087C153.465 223.731 149.973 220.958 146.354 218.594C139.411 214.058 131.79 211.201 123.341 210.959C118.146 210.81 113.776 212.584 109.334 215.235C106.568 216.885 103.713 218.508 101.203 220.54Z" fill="#DDE3E9"/>
<path fill-rule="evenodd" clip-rule="evenodd" d="M168.591 198.601C163.177 193.026 157.745 187.52 151.696 182.611C148.132 179.718 144.375 177.087 140.696 174.344C141.12 174.716 141.537 175.099 141.943 175.491C140.795 174.711 139.291 174.27 138.073 173.549C136.715 172.744 135.417 171.823 134.144 170.895C131.658 169.084 129.21 167.239 126.655 165.522C123.809 163.609 120.859 161.842 117.964 160.002C115.507 158.44 113.019 156.73 110.391 155.454C108.958 154.758 107.522 153.933 106.084 153.207C105.602 152.964 100.717 149.879 100.73 149.87C101 149.667 103.458 150.822 103.838 150.977C104.949 151.431 106.011 151.973 107.078 152.514C106.492 151.358 106.028 150.144 105.776 148.865C105.698 148.471 105.073 145.598 105.393 145.357C105.552 145.237 107.111 150.376 107.191 150.87C107.256 151.272 107.246 151.85 107.378 152.23C107.59 152.843 107.579 152.658 108.046 153.004C108.903 153.638 110.039 154.034 110.966 154.563C111.466 154.842 113.014 155.949 113.946 156.264C116.766 157.634 119.625 159.742 122.305 161.491C121.602 160.17 121.066 158.787 120.676 157.339C120.583 156.995 119.582 153.911 119.825 153.727C120.098 153.521 122.006 158.233 122.119 158.679C122.33 159.507 122.373 160.429 122.636 161.235C122.925 162.12 123.825 162.434 124.637 162.949C127.623 164.847 130.507 166.863 133.343 168.971C136.437 163.469 132.869 156.824 129.862 152.206C127.695 148.879 124.777 146.026 121.697 143.535C117.585 140.211 112.881 137.556 108.183 135.127C102.709 132.297 96.7917 130.543 90.6404 129.733C87.4232 129.309 84.1318 129.321 80.882 129.457C79.2945 129.523 77.7708 129.734 76.2494 130.251C75.5637 130.485 74.9011 130.779 74.2553 131.109C73.7646 131.359 72.5777 131.624 72.2956 131.997C69.9733 135.02 68.7852 138.032 68.9666 141.83C69.1382 145.425 70.2737 149.023 71.8148 152.23C73.531 155.801 75.7383 159.042 78.625 161.763C80.8275 163.838 83.2898 165.644 85.7359 167.427C94.436 173.768 105.466 179.282 116.734 177.865C120.382 177.407 123.851 176.131 127.093 174.398C127.857 173.99 128.616 173.576 129.337 173.094C129.824 172.769 131.123 171.304 131.612 171.251C132.283 171.178 133.727 172.541 134.356 172.956C139.135 176.111 143.789 179.437 148.346 182.897C153.193 186.579 157.803 190.511 162.278 194.628C164.181 196.379 166.072 198.134 167.919 199.944C168.35 200.365 169.401 201.916 170.182 201.986C170.675 202.03 171.007 201.609 170.937 201.153C170.815 200.359 169.145 199.172 168.591 198.601Z" fill="#C1DEE2"/>
<path fill-rule="evenodd" clip-rule="evenodd" d="M479.739 176.962C477.642 176.504 475.326 176.539 473.19 176.577C461.734 176.733 450.485 182.157 443.163 190.823C436.93 198.201 435.217 207.373 433.985 216.646C433.863 217.566 433.811 218.481 433.742 219.404C433.727 219.602 433.705 219.778 433.681 219.945C433.197 220.378 432.943 220.882 433.23 221.437C432.163 223.771 431.261 226.165 430.486 228.634C428.207 235.901 425.889 243.306 427.317 250.947C427.651 246.742 428.353 242.442 429.192 238.306C429.24 238.068 429.292 237.833 429.347 237.598C429.352 237.573 429.357 237.549 429.363 237.524C429.66 236.257 430.046 235.029 430.516 233.819C430.521 233.806 430.526 233.793 430.531 233.78C430.593 233.621 430.659 233.463 430.724 233.304C430.858 232.977 430.996 232.65 431.143 232.324C431.192 232.213 431.24 232.101 431.286 231.989C431.97 230.313 432.258 228.424 432.871 226.69C433.017 226.296 433.171 225.903 433.331 225.513C433.341 225.49 433.35 225.467 433.36 225.444C433.794 224.392 434.273 223.354 434.78 222.326C435.055 222.119 435.202 221.606 435.44 221.139C435.489 221.047 435.873 220.434 435.987 220.08C436.286 219.503 436.583 218.925 436.884 218.349C436.875 218.352 436.866 218.356 436.857 218.359C437.158 217.806 437.459 217.254 437.759 216.706C437.824 216.585 437.891 216.464 437.957 216.343C438.065 216.151 438.172 215.959 438.28 215.767C439.283 213.971 440.347 212.211 441.452 210.473C441.846 209.853 442.788 208.964 442.969 208.267C442.976 208.241 442.977 208.217 442.981 208.192C445.379 204.825 448.139 201.719 451.449 199.258C451.049 199.69 450.199 201.158 449.974 201.448C449.286 202.338 448.539 203.166 447.789 204.005C446.446 205.507 445.135 207.056 443.97 208.695C441.839 211.691 440.001 214.845 438.264 218.061C438.247 218.08 438.229 218.098 438.213 218.118C437.34 219.194 436.791 220.821 436.162 222.052C438.65 220.9 441.4 220.149 443.954 219.126C446.5 218.106 448.977 216.971 451.368 215.637C454.546 213.864 457.843 211.863 460.846 209.598C464.287 207.463 467.179 204.525 469.731 201.442C472.751 197.794 475.519 194.114 477.231 189.684C478.072 187.508 478.733 185.238 479.125 182.942C479.142 182.842 479.164 182.733 479.188 182.621C479.589 181.828 479.948 181.017 480.249 180.187C480.727 178.872 481.856 177.425 479.739 176.962Z" fill="#69A1AC"/>
<path fill-rule="evenodd" clip-rule="evenodd" d="M80.6519 184.404C79.8209 183.575 78.8876 182.828 77.7919 182.294C77.5149 182.16 75.4514 181.257 75.3169 181.455C75.0039 181.916 80.4023 184.139 80.6519 184.404ZM90.4354 178.869C90.4286 178.904 91.1442 180.022 91.3389 180.366C91.7536 181.097 92.1364 181.842 92.4965 182.588C91.9633 181.27 91.4155 180.047 90.4354 178.869ZM40.3986 187.969C39.7095 188.174 38.881 187.368 39.7748 187.17C40.4981 187.011 40.4626 186.973 40.7874 186.437C41.0511 186.001 41.2135 185.47 41.4449 185.013C41.9358 184.043 42.4926 183.118 43.176 182.252C44.6408 180.395 46.4254 178.794 48.427 177.445C51.9202 175.092 55.8369 172.941 59.9917 171.86C66.5979 170.141 74.1166 170.035 80.7331 171.227C84.8308 171.964 88.5758 173.247 91.2967 176.285C92.6567 177.804 93.7242 179.582 94.1909 181.541C94.3127 182.053 94.2899 182.622 94.4424 183.123C94.6767 183.894 94.5733 183.689 95.5522 183.839C96.6211 184.003 97.689 184.17 98.7567 184.34C101.552 184.785 104.364 185.258 107.088 185.98C107.984 186.218 108.861 186.508 109.718 186.846C110.365 187.101 112.945 187.902 113.258 188.677C113.78 189.966 112.032 189.382 111.489 189.101C111.013 188.855 110.524 188.626 110.029 188.414C108.781 187.883 107.48 187.471 106.151 187.144C104.714 186.79 103.248 186.526 101.787 186.261C100.425 186.015 99.0578 185.79 97.6888 185.576C96.9283 185.457 96.1672 185.341 95.4061 185.225C95.146 185.186 94.6875 184.978 94.7222 185.29C93.1219 185.006 91.3914 185.047 89.7614 184.968C87.7649 184.873 85.7611 184.794 83.7579 184.851C82.3132 184.893 80.8672 184.98 79.4298 185.159C78.5899 185.263 77.7634 185.416 76.9393 185.61C76.4867 185.716 74.7017 185.942 74.4551 186.305C74.561 186.149 76.531 186.3 76.7818 186.291C77.7847 186.257 78.7798 186.165 79.779 186.062C81.6333 185.872 83.4884 185.772 85.3484 185.787C85.3413 186.087 84.0707 186.623 83.7606 186.822C83.0652 187.269 82.3991 187.756 81.7777 188.291C80.683 189.233 79.3724 190.399 78.6152 191.515C78.8383 191.186 79.9391 190.758 80.3298 190.507C80.9556 190.105 81.5687 189.675 82.1488 189.216C82.6844 188.792 83.1841 188.334 83.6755 187.867C84.1669 187.398 84.8338 186.426 85.4795 186.114C85.5185 186.095 85.8 186.3 85.9599 186.23C86.121 186.16 86.3218 185.809 86.3627 185.795C86.9638 185.582 88.1053 185.847 88.7372 185.874C90.3759 185.944 92.0131 186.035 93.6507 186.118C94.158 186.143 94.5891 186.037 94.7807 186.382C94.9848 186.749 94.6107 187.715 94.5043 188.115C94.1095 189.602 93.4082 190.935 92.3043 192.087C90.237 194.244 87.6878 195.682 84.808 196.644C73.7776 200.329 62.0428 201.805 51.0157 197.972C46.4506 196.385 39.5754 193.549 40.3986 187.969Z" fill="#89C5CC"/>
<g opacity="0.6" clip-path="url(#clip0_1366_2617)">
<path fill-rule="evenodd" clip-rule="evenodd" d="M545.238 361.574C552.739 408.35 370.828 438.86 214.252 417.567C57.6766 396.275 -14.1528 313.126 60.5624 268.821C135.278 224.516 537.737 314.798 545.238 361.574Z" fill="#DDE3E9"/>
</g>
<g clip-path="url(#clip1_1366_2617)">
<rect x="145.915" y="81.2637" width="97.753" height="185.669" rx="4.91839" fill="#F2F2F2"/>
<path fill-rule="evenodd" clip-rule="evenodd" d="M194.484 255.252C199.577 255.252 203.706 251.123 203.706 246.03C203.706 240.936 199.577 236.808 194.484 236.808C189.391 236.808 185.262 240.936 185.262 246.03C185.262 251.123 189.391 255.252 194.484 255.252Z" fill="white"/>
<path fill-rule="evenodd" clip-rule="evenodd" d="M186.491 93.5598C187.17 93.5598 187.721 93.0093 187.721 92.3302C187.721 91.6511 187.17 91.1006 186.491 91.1006C185.812 91.1006 185.262 91.6511 185.262 92.3302C185.262 93.0093 185.812 93.5598 186.491 93.5598Z" fill="white"/>
<rect x="190.795" y="91.1006" width="12.9108" height="2.4592" rx="1.2296" fill="white"/>
<g clip-path="url(#clip2_1366_2617)">
<g clip-path="url(#clip3_1366_2617)">
<rect x="154.522" y="98.4775" width="80.5387" height="33.1991" rx="2.4592" fill="white"/>
<g clip-path="url(#clip4_1366_2617)">
<rect x="178.5" y="108.438" width="44.8803" height="4.97987" rx="1.8444" fill="#DDE3E9"/>
<rect x="178.5" y="116.737" width="30.1251" height="4.97987" rx="1.8444" fill="#DDE3E9"/>
</g>
<path fill-rule="evenodd" clip-rule="evenodd" d="M167.433 122.454C171.507 122.454 174.81 119.151 174.81 115.077C174.81 111.002 171.507 107.699 167.433 107.699C163.358 107.699 160.055 111.002 160.055 115.077C160.055 119.151 163.358 122.454 167.433 122.454Z" fill="#C5CFD6"/>
</g>
<g clip-path="url(#clip5_1366_2617)">
<rect x="154.522" y="136.595" width="80.5387" height="25.8216" rx="2.4592" fill="white"/>
<g clip-path="url(#clip6_1366_2617)">
<rect x="178.5" y="144.342" width="44.8803" height="3.87323" rx="1.8444" fill="#DDE3E9"/>
<rect x="178.5" y="150.797" width="30.1251" height="3.87323" rx="1.8444" fill="#DDE3E9"/>
</g>
<path fill-rule="evenodd" clip-rule="evenodd" d="M167.433 156.883C171.507 156.883 174.81 153.58 174.81 149.506C174.81 145.431 171.507 142.128 167.433 142.128C163.358 142.128 160.055 145.431 160.055 149.506C160.055 153.58 163.358 156.883 167.433 156.883Z" fill="#C5CFD6"/>
</g>
<g clip-path="url(#clip7_1366_2617)">
<rect x="154.522" y="167.335" width="80.5387" height="25.8216" rx="2.4592" fill="white"/>
<g clip-path="url(#clip8_1366_2617)">
<rect x="178.5" y="175.081" width="44.8803" height="3.87323" rx="1.8444" fill="#DDE3E9"/>
<rect x="178.5" y="181.537" width="30.1251" height="3.87323" rx="1.8444" fill="#DDE3E9"/>
</g>
<path fill-rule="evenodd" clip-rule="evenodd" d="M167.433 187.623C171.507 187.623 174.81 184.32 174.81 180.246C174.81 176.171 171.507 172.868 167.433 172.868C163.358 172.868 160.055 176.171 160.055 180.246C160.055 184.32 163.358 187.623 167.433 187.623Z" fill="#AFB9C5"/>
</g>
<g clip-path="url(#clip9_1366_2617)">
<rect x="154.522" y="198.075" width="80.5387" height="25.8216" rx="2.4592" fill="white"/>
<g clip-path="url(#clip10_1366_2617)">
<rect x="178.5" y="205.821" width="44.8803" height="3.87323" rx="1.8444" fill="#DDE3E9"/>
<rect x="178.5" y="212.276" width="30.1251" height="3.87323" rx="1.8444" fill="#DDE3E9"/>
</g>
<path fill-rule="evenodd" clip-rule="evenodd" d="M167.433 218.364C171.507 218.364 174.81 215.061 174.81 210.986C174.81 206.911 171.507 203.608 167.433 203.608C163.358 203.608 160.055 206.911 160.055 210.986C160.055 215.061 163.358 218.364 167.433 218.364Z" fill="#C5CFD6"/>
</g>
</g>
</g>
<g clip-path="url(#clip11_1366_2617)">
<path fill-rule="evenodd" clip-rule="evenodd" d="M164.445 231.274C163.63 231.274 162.818 231.291 162.005 231.333C161.385 231.366 160.437 231.237 159.912 231.623C159.367 232.025 159.405 232.847 159.49 233.427C159.94 236.496 161.039 239.217 163.338 241.391C166.877 244.739 170.934 246.44 175.735 247.198C179.108 247.73 182.221 246.991 184.704 244.593C186.518 247.959 187.894 251.685 188.584 255.445C188.925 257.301 189.029 259.134 188.969 261.023C188.931 262.233 188.864 263.44 188.734 264.645C188.678 265.168 188.411 265.96 188.616 266.455C188.856 267.036 189.667 267.092 190.031 266.597C190.334 266.185 190.278 265.375 190.341 264.887C190.444 264.077 190.539 263.266 190.608 262.452C190.719 261.135 190.801 259.813 190.795 258.491C190.781 255.519 190.12 252.536 189.217 249.715C187.483 244.303 184.67 239.494 180.295 235.72C177.605 233.4 174.526 232.46 171.033 231.956C168.858 231.642 166.648 231.274 164.445 231.274Z" fill="#89C5CC"/>
<path fill-rule="evenodd" clip-rule="evenodd" d="M177.006 252.792C168.215 252.792 162.295 259.877 159.495 267.241C158.44 270.016 158.193 273.064 157.786 275.979C157.655 276.914 157.704 278.339 157.324 279.173C157.186 279.475 156.87 279.583 157.021 279.995C157.113 280.244 157.292 280.397 157.562 280.446C158.115 280.548 158.896 279.946 159.37 279.708C163.303 277.736 165.886 274.687 167.994 270.956C169.3 268.644 170.626 266.243 171.402 263.705C171.876 262.154 172.152 260.521 172.314 258.912C172.378 258.278 172.44 257.629 172.436 256.992C172.432 256.36 172.138 256.025 171.927 255.475C174.86 254.364 178.171 254.062 181.142 255.212C183.89 256.277 186.173 258.333 187.451 260.917C187.784 261.588 188.04 262.297 188.226 263.02C188.348 263.493 188.354 264.107 188.581 264.535C189.129 265.572 190.284 264.879 190.173 263.913C189.864 261.219 188.323 258.515 186.353 256.642C183.869 254.28 180.502 252.792 177.006 252.792Z" fill="#89C5CC"/>
<rect x="186.492" y="97.248" width="97.753" height="185.669" rx="4.91839" fill="#DDE3E9"/>
<path fill-rule="evenodd" clip-rule="evenodd" d="M235.061 271.236C240.154 271.236 244.283 267.107 244.283 262.014C244.283 256.921 240.154 252.792 235.061 252.792C229.968 252.792 225.839 256.921 225.839 262.014C225.839 267.107 229.968 271.236 235.061 271.236Z" fill="white"/>
<path fill-rule="evenodd" clip-rule="evenodd" d="M227.068 109.544C227.748 109.544 228.298 108.994 228.298 108.315C228.298 107.635 227.748 107.085 227.068 107.085C226.389 107.085 225.839 107.635 225.839 108.315C225.839 108.994 226.389 109.544 227.068 109.544Z" fill="white"/>
<rect x="231.372" y="107.085" width="12.9108" height="2.4592" rx="1.2296" fill="white"/>
<g clip-path="url(#clip12_1366_2617)">
<g clip-path="url(#clip13_1366_2617)">
<rect x="195.099" y="114.462" width="80.5387" height="33.1991" rx="2.4592" fill="white"/>
<g clip-path="url(#clip14_1366_2617)">
<rect x="200.632" y="124.422" width="44.8803" height="4.97987" rx="1.8444" fill="#DDE3E9"/>
<rect x="200.632" y="132.722" width="30.1251" height="4.97987" rx="1.8444" fill="#DDE3E9"/>
</g>
<path fill-rule="evenodd" clip-rule="evenodd" d="M267.031 135.365C269.407 135.365 271.334 133.438 271.334 131.061C271.334 128.685 269.407 126.758 267.031 126.758C264.654 126.758 262.727 128.685 262.727 131.061C262.727 133.438 264.654 135.365 267.031 135.365Z" fill="#DDE3E9"/>
<path fill-rule="evenodd" clip-rule="evenodd" d="M267.03 132.906C268.049 132.906 268.875 132.08 268.875 131.061C268.875 130.043 268.049 129.217 267.03 129.217C266.012 129.217 265.186 130.043 265.186 131.061C265.186 132.08 266.012 132.906 267.03 132.906Z" fill="#F2F2F2"/>
</g>
<g clip-path="url(#clip15_1366_2617)">
<rect x="195.099" y="152.58" width="80.5387" height="25.8216" rx="2.4592" fill="white"/>
<g clip-path="url(#clip16_1366_2617)">
<rect x="219.076" y="160.326" width="44.8803" height="3.87323" rx="1.8444" fill="#DDE3E9"/>
<rect x="219.076" y="166.781" width="30.1251" height="3.87323" rx="1.8444" fill="#DDE3E9"/>
</g>
<path fill-rule="evenodd" clip-rule="evenodd" d="M208.009 172.868C212.084 172.868 215.387 169.565 215.387 165.491C215.387 161.416 212.084 158.113 208.009 158.113C203.935 158.113 200.632 161.416 200.632 165.491C200.632 169.565 203.935 172.868 208.009 172.868Z" fill="#C5CFD6"/>
</g>
<g clip-path="url(#clip17_1366_2617)">
<rect x="195.099" y="183.32" width="80.5387" height="25.8216" rx="2.4592" fill="white"/>
<g clip-path="url(#clip18_1366_2617)">
<rect x="200.632" y="191.066" width="44.8803" height="3.87323" rx="1.8444" fill="#DDE3E9"/>
<rect x="200.632" y="197.521" width="30.1251" height="3.87323" rx="1.8444" fill="#AFB9C5"/>
</g>
<path fill-rule="evenodd" clip-rule="evenodd" d="M267.031 200.535C269.407 200.535 271.334 198.608 271.334 196.231C271.334 193.855 269.407 191.928 267.031 191.928C264.654 191.928 262.727 193.855 262.727 196.231C262.727 198.608 264.654 200.535 267.031 200.535Z" fill="#DDE3E9"/>
<path fill-rule="evenodd" clip-rule="evenodd" d="M267.03 198.076C268.049 198.076 268.875 197.25 268.875 196.231C268.875 195.212 268.049 194.387 267.03 194.387C266.012 194.387 265.186 195.212 265.186 196.231C265.186 197.25 266.012 198.076 267.03 198.076Z" fill="#F2F2F2"/>
</g>
<g clip-path="url(#clip19_1366_2617)">
<rect x="195.099" y="214.06" width="80.5387" height="25.8216" rx="2.4592" fill="white"/>
<g clip-path="url(#clip20_1366_2617)">
<rect x="219.076" y="221.806" width="44.8803" height="3.87323" rx="1.8444" fill="#DDE3E9"/>
<rect x="219.076" y="228.262" width="30.1251" height="3.87323" rx="1.8444" fill="#DDE3E9"/>
</g>
<path fill-rule="evenodd" clip-rule="evenodd" d="M208.009 234.348C212.084 234.348 215.387 231.045 215.387 226.97C215.387 222.896 212.084 219.593 208.009 219.593C203.935 219.593 200.632 222.896 200.632 226.97C200.632 231.045 203.935 234.348 208.009 234.348Z" fill="#C5CFD6"/>
</g>
</g>
</g>
<g clip-path="url(#clip21_1366_2617)">
<rect x="227.068" y="112.618" width="205.958" height="212.72" rx="4.91839" fill="#F2F2F2"/>
<rect x="380.153" y="139.055" width="43.0359" height="49.7987" rx="4.91839" fill="white"/>
<path fill-rule="evenodd" clip-rule="evenodd" d="M401.671 167.95C407.104 167.95 411.508 163.546 411.508 158.113C411.508 152.68 407.104 148.276 401.671 148.276C396.239 148.276 391.834 152.68 391.834 158.113C391.834 163.546 396.239 167.95 401.671 167.95Z" fill="#DDE3E9"/>
<rect x="386.301" y="170.409" width="30.7399" height="3.68879" rx="1.8444" fill="#DDE3E9"/>
<rect x="391.22" y="176.557" width="20.9032" height="3.68879" rx="1.8444" fill="#DDE3E9"/>
<path d="M227.068 117.537C227.068 114.82 229.27 112.618 231.987 112.618H428.108C430.824 112.618 433.026 114.82 433.026 117.537V129.218H227.068V117.537Z" fill="#C5CFD6"/>
<path fill-rule="evenodd" clip-rule="evenodd" d="M235.061 123.685C236.419 123.685 237.52 122.584 237.52 121.226C237.52 119.868 236.419 118.767 235.061 118.767C233.703 118.767 232.602 119.868 232.602 121.226C232.602 122.584 233.703 123.685 235.061 123.685Z" fill="#F2F2F2"/>
<path fill-rule="evenodd" clip-rule="evenodd" d="M242.438 123.685C243.796 123.685 244.897 122.584 244.897 121.226C244.897 119.868 243.796 118.767 242.438 118.767C241.08 118.767 239.979 119.868 239.979 121.226C239.979 122.584 241.08 123.685 242.438 123.685Z" fill="#F2F2F2"/>
<path fill-rule="evenodd" clip-rule="evenodd" d="M249.816 123.685C251.174 123.685 252.275 122.584 252.275 121.226C252.275 119.868 251.174 118.767 249.816 118.767C248.458 118.767 247.357 119.868 247.357 121.226C247.357 122.584 248.458 123.685 249.816 123.685Z" fill="#F2F2F2"/>
<g clip-path="url(#clip22_1366_2617)">
<rect x="380.153" y="193.771" width="43.0359" height="119.271" rx="4.91839" fill="white"/>
<g clip-path="url(#clip23_1366_2617)">
<rect x="391.22" y="204.838" width="20.9032" height="15.9848" rx="2.4592" fill="#DDE3E9"/>
<rect x="391.22" y="225.741" width="20.9032" height="15.37" rx="2.4592" fill="#AFB9C5"/>
<rect x="391.22" y="246.029" width="20.9032" height="15.37" rx="2.4592" fill="#DDE3E9"/>
<rect x="391.22" y="286.606" width="20.9032" height="15.37" rx="2.4592" fill="#DDE3E9"/>
<rect x="391.22" y="266.317" width="20.9032" height="15.37" rx="2.4592" fill="#C5CFD6"/>
</g>
</g>
<g clip-path="url(#clip24_1366_2617)">
<g clip-path="url(#clip25_1366_2617)">
<rect x="236.905" y="139.669" width="138.33" height="28.8955" rx="2.4592" fill="white"/>
<g clip-path="url(#clip26_1366_2617)">
<rect x="242.438" y="148.338" width="102.671" height="4.33433" rx="1.8444" fill="#DDE3E9"/>
<rect x="242.438" y="155.562" width="68.9164" height="4.33433" rx="1.8444" fill="#DDE3E9"/>
</g>
<path fill-rule="evenodd" clip-rule="evenodd" d="M360.452 158.421C362.828 158.421 364.755 156.494 364.755 154.117C364.755 151.74 362.828 149.813 360.452 149.813C358.075 149.813 356.148 151.74 356.148 154.117C356.148 156.494 358.075 158.421 360.452 158.421Z" fill="#DDE3E9"/>
<path fill-rule="evenodd" clip-rule="evenodd" d="M360.451 155.961C361.47 155.961 362.296 155.135 362.296 154.117C362.296 153.098 361.47 152.272 360.451 152.272C359.433 152.272 358.607 153.098 358.607 154.117C358.607 155.135 359.433 155.961 360.451 155.961Z" fill="#F2F2F2"/>
</g>
<g clip-path="url(#clip27_1366_2617)">
<rect x="236.905" y="173.483" width="138.33" height="23.9772" rx="2.4592" fill="white"/>
<g clip-path="url(#clip28_1366_2617)">
<rect x="242.438" y="180.677" width="102.671" height="3.59657" rx="1.79829" fill="#DDE3E9"/>
<rect x="242.438" y="186.671" width="68.9164" height="3.59657" rx="1.79829" fill="#DDE3E9"/>
</g>
<path fill-rule="evenodd" clip-rule="evenodd" d="M360.452 189.775C362.828 189.775 364.755 187.848 364.755 185.472C364.755 183.095 362.828 181.168 360.452 181.168C358.075 181.168 356.148 183.095 356.148 185.472C356.148 187.848 358.075 189.775 360.452 189.775Z" fill="#DDE3E9"/>
<path fill-rule="evenodd" clip-rule="evenodd" d="M360.451 187.316C361.47 187.316 362.296 186.49 362.296 185.471C362.296 184.453 361.47 183.627 360.451 183.627C359.433 183.627 358.607 184.453 358.607 185.471C358.607 186.49 359.433 187.316 360.451 187.316Z" fill="#F2F2F2"/>
</g>
<g clip-path="url(#clip29_1366_2617)">
<rect x="236.905" y="202.379" width="138.33" height="23.9772" rx="2.4592" fill="white"/>
<g clip-path="url(#clip30_1366_2617)">
<rect x="242.438" y="209.572" width="102.671" height="3.59657" rx="1.79829" fill="#DDE3E9"/>
<rect x="242.438" y="215.566" width="68.9164" height="3.59657" rx="1.79829" fill="#DDE3E9"/>
</g>
<path fill-rule="evenodd" clip-rule="evenodd" d="M360.452 218.671C362.828 218.671 364.755 216.744 364.755 214.367C364.755 211.99 362.828 210.063 360.452 210.063C358.075 210.063 356.148 211.99 356.148 214.367C356.148 216.744 358.075 218.671 360.452 218.671Z" fill="#DDE3E9"/>
<path fill-rule="evenodd" clip-rule="evenodd" d="M360.451 216.211C361.47 216.211 362.296 215.385 362.296 214.367C362.296 213.348 361.47 212.522 360.451 212.522C359.433 212.522 358.607 213.348 358.607 214.367C358.607 215.385 359.433 216.211 360.451 216.211Z" fill="#AFB9C5"/>
</g>
<g clip-path="url(#clip31_1366_2617)">
<rect x="236.905" y="289.065" width="138.33" height="23.9772" rx="2.4592" fill="white"/>
<g clip-path="url(#clip32_1366_2617)">
<rect x="242.438" y="296.259" width="102.671" height="3.59657" rx="1.79829" fill="#DDE3E9"/>
<rect x="242.438" y="302.253" width="68.9164" height="3.59657" rx="1.79829" fill="#DDE3E9"/>
</g>
<path fill-rule="evenodd" clip-rule="evenodd" d="M360.452 305.358C362.828 305.358 364.755 303.431 364.755 301.055C364.755 298.678 362.828 296.751 360.452 296.751C358.075 296.751 356.148 298.678 356.148 301.055C356.148 303.431 358.075 305.358 360.452 305.358Z" fill="#DDE3E9"/>
<path fill-rule="evenodd" clip-rule="evenodd" d="M360.451 302.899C361.47 302.899 362.296 302.073 362.296 301.054C362.296 300.036 361.47 299.21 360.451 299.21C359.433 299.21 358.607 300.036 358.607 301.054C358.607 302.073 359.433 302.899 360.451 302.899Z" fill="#F2F2F2"/>
</g>
<g clip-path="url(#clip33_1366_2617)">
<rect x="236.905" y="260.17" width="138.33" height="23.9772" rx="2.4592" fill="white"/>
<g clip-path="url(#clip34_1366_2617)">
<rect x="242.438" y="267.363" width="102.671" height="3.59657" rx="1.79829" fill="#DDE3E9"/>
<rect x="242.438" y="273.357" width="68.9164" height="3.59657" rx="1.79829" fill="#DDE3E9"/>
</g>
<path fill-rule="evenodd" clip-rule="evenodd" d="M360.452 276.462C362.828 276.462 364.755 274.535 364.755 272.158C364.755 269.781 362.828 267.854 360.452 267.854C358.075 267.854 356.148 269.781 356.148 272.158C356.148 274.535 358.075 276.462 360.452 276.462Z" fill="#DDE3E9"/>
<path fill-rule="evenodd" clip-rule="evenodd" d="M360.451 274.002C361.47 274.002 362.296 273.177 362.296 272.158C362.296 271.139 361.47 270.313 360.451 270.313C359.433 270.313 358.607 271.139 358.607 272.158C358.607 273.177 359.433 274.002 360.451 274.002Z" fill="#F2F2F2"/>
</g>
<g clip-path="url(#clip35_1366_2617)">
<rect x="236.905" y="231.274" width="138.33" height="23.9772" rx="2.4592" fill="white"/>
<g clip-path="url(#clip36_1366_2617)">
<rect x="242.438" y="238.468" width="102.671" height="3.59657" rx="1.79829" fill="#DDE3E9"/>
<rect x="242.438" y="244.462" width="68.9164" height="3.59657" rx="1.79829" fill="#DDE3E9"/>
</g>
<path fill-rule="evenodd" clip-rule="evenodd" d="M360.452 247.566C362.828 247.566 364.755 245.639 364.755 243.263C364.755 240.886 362.828 238.959 360.452 238.959C358.075 238.959 356.148 240.886 356.148 243.263C356.148 245.639 358.075 247.566 360.452 247.566Z" fill="#DDE3E9"/>
<path fill-rule="evenodd" clip-rule="evenodd" d="M360.451 245.107C361.47 245.107 362.296 244.281 362.296 243.262C362.296 242.244 361.47 241.418 360.451 241.418C359.433 241.418 358.607 242.244 358.607 243.262C358.607 244.281 359.433 245.107 360.451 245.107Z" fill="#F2F2F2"/>
</g>
</g>
</g>
<path fill-rule="evenodd" clip-rule="evenodd" d="M484.045 217.364C481.62 215.72 478.396 215.289 475.494 215.289C464.159 215.289 453.506 219.494 444.302 225.76C439.259 229.194 434.747 233.566 430.764 238.118C428.465 240.746 426.416 243.589 424.964 246.75C423.985 248.884 423.313 251.108 422.857 253.401C422.302 256.196 421.861 259.048 421.661 261.889C421.583 263.008 420.932 268.945 422.793 269.046C422.782 269.192 422.78 269.332 422.791 269.457C418.752 275.773 416.256 283.175 413.941 290.193C411.928 296.3 410.133 302.459 408.969 308.777C407.435 317.095 406.428 325.538 405.949 333.976C405.846 335.789 405.775 337.603 405.715 339.419C405.663 340.968 405.611 342.516 405.56 344.065C405.503 345.801 405.198 347.799 405.474 349.524C405.714 351.027 407.014 350.8 407.072 349.304C407.141 347.498 407.13 345.689 407.209 343.882C407.314 341.484 407.422 339.085 407.54 336.688C408.357 320.032 411.422 303.62 417.079 287.887C419.368 281.52 421.991 275.493 425.362 269.603C428.327 264.425 431.892 259.412 435.536 254.742C439.079 250.205 442.762 245.773 447.102 241.928C450.624 238.809 454.498 236.091 458.481 233.562C463.539 230.351 468.588 227.217 474.067 224.751C476.915 223.47 479.817 222.323 482.687 221.093C483.204 220.872 483.757 220.657 484.254 220.401C485.911 219.547 485.366 218.26 484.045 217.364Z" fill="#C1DEE2"/>
<path fill-rule="evenodd" clip-rule="evenodd" d="M438.447 275.54C443.044 275.54 447.135 276.137 451.371 277.964C455.027 279.541 458.359 281.628 461.594 283.901C466.145 287.097 469.729 290.817 472.238 295.745C473.737 298.69 474.836 302.856 473.829 306.068C472.644 309.85 469.388 313.005 465.1 312.339C462.448 311.927 460.018 310.172 458.002 308.52C455.591 306.543 453.662 304.167 452.068 301.528C449.469 297.222 447.941 292.355 445.733 287.857C444.685 285.721 443.673 283.571 442.418 281.542C441.796 280.537 441.135 279.542 440.192 278.795C439.688 278.395 437.562 277.704 438.375 276.807C426.454 276.964 415.893 286.119 413.604 297.452C413.391 298.508 413.225 299.573 413.049 300.636C412.938 301.307 412.982 303.782 412.382 304.21C411.059 305.156 411.616 302.283 411.672 301.87C411.819 300.801 411.976 299.732 412.14 298.666C413.033 292.866 415.616 287.474 419.922 283.338C424.846 278.608 431.49 275.54 438.447 275.54Z" fill="#89C5CC"/>
<path fill-rule="evenodd" clip-rule="evenodd" d="M46.62 296.206C58.0962 315.459 71.4622 334.101 79.489 355.151C79.1656 352.67 78.8226 350.191 78.4387 347.716C76.402 334.596 73.8707 321.571 71.2108 308.563C69.8562 301.939 68.4235 295.34 66.9542 288.741C66.1639 285.197 65.3833 281.651 64.5767 278.11C64.3813 277.251 64.2135 275.754 63.9689 274.235C71.7696 299.834 79.2922 325.451 84.7947 351.665C85.5166 355.105 86.1313 358.539 86.6348 361.967C86.8071 361.185 86.9765 360.403 87.1619 359.623C89.3883 350.274 92.728 340.999 96.7045 332.257C98.6055 328.076 100.789 323.987 103.36 320.177C104.963 317.802 108.744 314.979 110.207 312.546C102.208 327.216 99.3201 345.571 94.7018 361.52C93.5745 365.412 92.4403 369.298 91.329 373.191C98.2935 359.223 109.099 347.748 124.123 342.775C105.937 354.791 95.0294 375.833 87.6789 397.355C87.6547 397.61 87.6259 397.865 87.601 398.121C89.764 394.016 92.4885 390.303 96.1812 387.702C104.085 382.135 112.852 383.757 120.518 388.533C114.501 384.708 103.627 388.191 98.5645 392.078C94.9402 394.861 91.8428 398.594 89.153 402.236C88.5085 403.109 87.6292 404.128 86.7003 405.215C85.398 413.669 83.2756 422.065 80.2708 430.394C80.7667 428.003 80.4082 424.18 80.5457 422.398C80.5606 422.205 80.5728 422.012 80.5876 421.819C80.1309 423.643 79.6896 425.446 79.2647 427.22C80.1093 423.835 80.5683 420.301 80.9267 416.731C81.019 415.197 81.109 413.662 81.2041 412.128C81.1739 409.217 81.054 406.293 80.8512 403.365C80.1319 400.52 79.3266 397.836 78.6625 395.604C76.266 387.549 72.7529 379.833 68.4288 372.634C64.4835 366.065 59.7611 360.115 54.3093 354.734C51.3703 351.834 48.2945 349.072 45.262 346.271C44.1654 345.259 42.2054 342.769 40.5103 341.472C52.8557 348.278 65.5626 355.641 74.5686 366.607C73.5128 362.553 72.366 358.556 71.1529 354.639C64.9984 334.765 57.2275 314.168 46.62 296.206Z" fill="#DDE3E9"/>
<path fill-rule="evenodd" clip-rule="evenodd" d="M58.9541 405.188C58.9541 427.258 60.7019 445.149 84.1609 445.149C107.62 445.149 109.368 427.258 109.368 405.188" fill="#C5CFD6"/>
<rect x="380.768" y="86.1816" width="3.68879" height="15.37" rx="1.8444" fill="#DDE3E9"/>
<rect x="389.375" y="76.3447" width="3.68879" height="25.2068" rx="1.8444" fill="#DDE3E9"/>
<rect x="397.982" y="71.4258" width="3.68879" height="30.1251" rx="1.8444" fill="#DDE3E9"/>
<rect x="406.59" y="76.3447" width="3.68879" height="25.2068" rx="1.8444" fill="#DDE3E9"/>
<rect x="415.197" y="66.5078" width="3.68879" height="35.0435" rx="1.8444" fill="#C5CFD6"/>
<path fill-rule="evenodd" clip-rule="evenodd" d="M78.2875 254.794C78.2875 247.946 83.8219 242.341 90.5835 242.341V254.794L82.1804 263.859C79.7901 261.643 78.2875 258.392 78.2875 254.794Z" fill="#F2F2F2"/>
<path fill-rule="evenodd" clip-rule="evenodd" d="M90.2581 254.637H102.675C102.675 257.847 101.366 260.854 99.2959 263.04C97.0192 265.43 93.7771 266.933 90.2581 266.933C87.0165 266.933 84.0495 265.636 81.7721 263.586L90.2581 254.637Z" fill="#AFB9C5"/>
<path fill-rule="evenodd" clip-rule="evenodd" d="M102.879 254.637C102.879 247.875 97.345 242.341 90.5834 242.341V254.637H102.879ZM84.4354 242.341L89.3538 253.407L78.2874 248.489C79.3818 245.62 81.8391 243.435 84.4354 242.341Z" fill="#C5CFD6"/>
<path fill-rule="evenodd" clip-rule="evenodd" d="M478.377 260.279C477.196 261.534 475.523 262.321 473.661 262.321C470.085 262.321 467.185 259.431 467.185 255.866C467.185 252.301 470.085 249.41 473.661 249.41V237.422C463.487 237.422 455.159 245.724 455.159 255.866C455.159 266.008 463.487 274.31 473.661 274.31C479.006 274.31 483.836 272.056 487.128 268.47L478.377 260.279Z" fill="#F2F2F2"/>
<path fill-rule="evenodd" clip-rule="evenodd" d="M473.603 237.422V249.41C477.168 249.41 480.058 252.301 480.058 255.866H492.047C492.047 245.724 483.745 237.422 473.603 237.422Z" fill="#AFB9C5"/>
<path fill-rule="evenodd" clip-rule="evenodd" d="M479.81 255.866C479.81 257.961 478.824 259.823 477.292 261.025L484.83 270.621C489.218 267.186 492.047 261.86 492.047 255.866H479.81Z" fill="#C5CFD6"/>
<path fill-rule="evenodd" clip-rule="evenodd" d="M361.126 90.7947C360.217 91.7562 358.93 92.36 357.498 92.36C354.747 92.36 352.516 90.1442 352.516 87.4109C352.516 84.6775 354.747 82.4618 357.498 82.4618V73.2705C349.671 73.2705 343.265 79.6351 343.265 87.4109C343.265 95.1867 349.671 101.551 357.498 101.551C361.609 101.551 365.324 99.8233 367.857 97.0744L361.126 90.7947Z" fill="#F2F2F2"/>
<path fill-rule="evenodd" clip-rule="evenodd" d="M357.405 73.2705V82.4618C360.139 82.4618 362.354 84.6775 362.354 87.4109H371.546C371.546 79.6351 365.181 73.2705 357.405 73.2705Z" fill="#AFB9C5"/>
<path fill-rule="evenodd" clip-rule="evenodd" d="M362.369 87.4111C362.369 88.9821 361.629 90.3785 360.479 91.2801L366.133 98.4775C369.425 95.9008 371.546 91.9065 371.546 87.4111H362.369Z" fill="#C5CFD6"/>
<path fill-rule="evenodd" clip-rule="evenodd" d="M137.312 101.543C137.31 101.549 137.307 101.555 137.303 101.563C137.307 101.556 137.312 101.532 137.312 101.543Z" fill="#C5CFD6"/>
<path fill-rule="evenodd" clip-rule="evenodd" d="M137.306 101.552C137.306 101.553 137.305 101.556 137.305 101.558C137.305 101.552 137.316 101.534 137.306 101.552Z" fill="#C5CFD6"/>
<path fill-rule="evenodd" clip-rule="evenodd" d="M137.349 101.448C137.34 101.473 137.329 101.496 137.319 101.521C137.324 101.508 137.329 101.499 137.334 101.486C137.206 101.806 137.287 101.598 137.349 101.448Z" fill="#C5CFD6"/>
<path fill-rule="evenodd" clip-rule="evenodd" d="M137.321 101.522C137.317 101.533 137.312 101.546 137.307 101.557C137.271 101.626 137.321 101.522 137.321 101.522Z" fill="#C5CFD6"/>
<path fill-rule="evenodd" clip-rule="evenodd" d="M137.307 101.553C137.307 101.551 137.307 101.551 137.308 101.55C137.307 101.551 137.307 101.551 137.307 101.553Z" fill="#C5CFD6"/>
<path fill-rule="evenodd" clip-rule="evenodd" d="M137.301 101.561C137.294 101.576 137.336 101.505 137.301 101.561V101.561Z" fill="#C5CFD6"/>
<path fill-rule="evenodd" clip-rule="evenodd" d="M137.306 101.553L137.309 101.55C137.308 101.551 137.308 101.553 137.306 101.553Z" fill="#C5CFD6"/>
<rect x="107.797" y="69.582" width="58.4059" height="38.7323" rx="2.4592" fill="#DDE3E9"/>
<path fill-rule="evenodd" clip-rule="evenodd" d="M129.93 80.6484L112.716 108.314H147.145L129.93 80.6484Z" fill="#AFB9C5"/>
<path fill-rule="evenodd" clip-rule="evenodd" d="M146.837 88.0264L131.774 108.315H161.9L146.837 88.0264Z" fill="#C5CFD6"/>
<path fill-rule="evenodd" clip-rule="evenodd" d="M153.292 88.0263C156.348 88.0263 158.826 85.549 158.826 82.4932C158.826 79.4373 156.348 76.96 153.292 76.96C150.237 76.96 147.759 79.4373 147.759 82.4932C147.759 85.549 150.237 88.0263 153.292 88.0263Z" fill="white"/>
<path fill-rule="evenodd" clip-rule="evenodd" d="M430.562 364.062C430.565 364.069 430.567 364.075 430.571 364.082C430.567 364.076 430.562 364.051 430.562 364.062Z" fill="#C5CFD6"/>
<path fill-rule="evenodd" clip-rule="evenodd" d="M430.568 364.072C430.568 364.073 430.569 364.075 430.569 364.078C430.569 364.072 430.558 364.053 430.568 364.072Z" fill="#C5CFD6"/>
<path fill-rule="evenodd" clip-rule="evenodd" d="M430.525 363.968C430.534 363.992 430.545 364.016 430.555 364.04C430.55 364.028 430.545 364.018 430.54 364.006C430.668 364.326 430.587 364.118 430.525 363.968Z" fill="#C5CFD6"/>
<path fill-rule="evenodd" clip-rule="evenodd" d="M430.553 364.042C430.558 364.053 430.562 364.065 430.567 364.076C430.603 364.145 430.553 364.042 430.553 364.042Z" fill="#C5CFD6"/>
<path fill-rule="evenodd" clip-rule="evenodd" d="M430.567 364.072C430.567 364.071 430.567 364.071 430.566 364.07C430.567 364.071 430.567 364.071 430.567 364.072Z" fill="#C5CFD6"/>
<path fill-rule="evenodd" clip-rule="evenodd" d="M430.573 364.081C430.58 364.096 430.538 364.024 430.573 364.081V364.081Z" fill="#C5CFD6"/>
<path fill-rule="evenodd" clip-rule="evenodd" d="M430.568 364.072L430.565 364.07C430.566 364.071 430.566 364.072 430.568 364.072Z" fill="#C5CFD6"/>
<rect width="87.3014" height="57.7911" rx="2.4592" transform="matrix(-1 0 0 1 474.217 316.731)" fill="#DDE3E9"/>
<path fill-rule="evenodd" clip-rule="evenodd" d="M441.801 333.331L467.042 374.523H416.561L441.801 333.331Z" fill="#AFB9C5"/>
<path fill-rule="evenodd" clip-rule="evenodd" d="M415.777 344.364L438.091 374.522H393.463L415.777 344.364Z" fill="#C5CFD6"/>
<path fill-rule="evenodd" clip-rule="evenodd" d="M406.282 344.397C401.698 344.397 397.982 340.681 397.982 336.098C397.982 331.514 401.698 327.798 406.282 327.798C410.866 327.798 414.582 331.514 414.582 336.098C414.582 340.681 410.866 344.397 406.282 344.397Z" fill="white"/>
<path fill-rule="evenodd" clip-rule="evenodd" d="M171.574 263.899C176.046 266.596 180.44 267.9 182.503 267.368C187.675 266.034 188.151 247.099 184.149 239.634C180.147 232.169 159.573 228.915 158.536 243.706C158.176 248.839 160.33 253.42 163.512 257.158L157.806 283.772H174.381L171.574 263.899Z" fill="#B28B67"/>
<path fill-rule="evenodd" clip-rule="evenodd" d="M151.31 238.782C150.775 238.251 150.483 237.494 150.23 236.774C149.968 236.027 149.713 235.272 149.539 234.494C149.191 232.939 149.187 231.151 150.295 229.944C151.184 228.976 152.518 228.542 153.748 228.448C154.568 228.385 155.41 228.5 156.196 228.759C156.976 229.015 157.648 229.526 158.404 229.844C158.433 228.168 158.72 226.416 159.569 224.985C160.386 223.609 161.689 222.837 163.173 222.633C164.696 222.423 166.2 222.779 167.564 223.517C167.905 223.702 168.243 223.896 168.567 224.115C168.838 224.298 169.119 224.519 169.437 224.594C169.792 224.677 169.968 224.472 170.198 224.213C170.468 223.91 170.772 223.643 171.094 223.406C172.518 222.359 174.386 221.928 176.036 222.556C176.796 222.845 177.535 223.336 178.051 224.013C178.51 224.616 178.838 225.574 179.473 225.994C179.742 226.172 179.932 225.936 180.177 225.761C180.545 225.499 180.897 225.209 181.269 224.954C181.793 224.595 182.359 224.326 182.966 224.186C183.855 223.98 185.082 224.028 185.336 225.193C185.432 225.63 185.358 226.098 185.328 226.539C185.285 227.144 185.241 227.749 185.189 228.353C185.149 228.811 185.099 229.255 185.012 229.705C184.966 229.945 184.821 230.393 184.924 230.633C185.053 230.934 185.646 230.763 185.9 230.774C186.401 230.794 186.904 230.882 187.367 231.096C187.726 231.262 188.103 231.506 188.255 231.918C188.348 232.171 188.323 232.431 188.279 232.691C188.226 233.003 188.287 233.169 188.326 233.484C188.999 233.152 191.33 232.416 191.623 233.622C191.721 234.024 191.498 234.478 191.329 234.816C191.031 235.411 190.641 235.954 190.242 236.472C189.41 237.552 188.417 238.484 187.349 239.281C188.601 239.838 188.927 241.481 187.843 242.459C187.365 242.892 186.721 242.988 186.118 242.96C185.897 242.95 185.578 242.865 185.404 242.904C185.311 242.924 185.211 243.004 185.081 243.012C184.229 243.071 183.267 242.865 182.434 242.676C180.95 242.339 179.545 241.636 178.398 240.564C178.104 240.289 177.861 240.131 177.464 240.135C177.117 240.138 176.777 240.234 176.43 240.243C175.512 240.266 174.685 239.817 173.833 239.518C173.781 240.67 173.453 241.939 172.982 242.975C172.598 243.82 171.796 243.943 171.008 244.017C168.488 244.255 165.96 243.99 163.437 243.993C165.879 244.546 168.403 244.773 170.823 245.424C171.917 245.717 171.082 246.455 170.614 246.967C169.844 247.809 169.271 248.853 168.874 249.953C167.679 248.394 165.567 247.367 163.696 247.846C161.629 248.375 160.173 251.172 161.495 253.184C162.263 254.351 163.649 254.802 164.802 255.303C163.902 256.239 163.685 257.622 163.143 258.786C162.876 259.36 162.501 260.01 161.904 260.21C161.683 260.284 161.424 260.29 161.25 260.47C161.034 260.694 160.982 260.943 160.707 261.135C159.606 261.9 157.887 261.841 156.912 260.842C156.03 259.939 156.26 258.509 156.996 257.593C155.824 257.104 153.688 256.475 154.154 254.647C151.613 254.478 145.444 250.355 148.854 247.341C146.983 246.283 145.263 243.696 146.465 241.416C147.391 239.66 149.544 238.875 151.31 238.782Z" fill="#191847"/>
<path fill-rule="evenodd" clip-rule="evenodd" d="M133.373 370.851H186.727L193.718 456.548H114.296L133.373 370.851Z" fill="#C5CFD6"/>
<path fill-rule="evenodd" clip-rule="evenodd" d="M133.373 370.851H149.783L159.604 456.548H114.296L133.373 370.851Z" fill="black" fill-opacity="0.1"/>
<path fill-rule="evenodd" clip-rule="evenodd" d="M216.041 387.828C210.046 400.553 200.677 431.441 200.677 431.441L208.631 435.078C208.631 435.078 228.812 402.608 241.145 380.412C240.57 385.409 239.985 391.035 239.443 396.948C238.158 410.958 239.442 441.224 240.133 449.967C240.568 455.461 248.029 454.31 248.725 449.952C248.843 449.214 249.324 446.623 250.041 442.757C253.559 423.798 262.764 374.18 262.781 362.031C262.787 357.142 253.243 352.75 247.555 356.169C243.647 351.996 236.252 349.591 232.004 356.483C229.303 360.865 222.885 373.303 216.041 387.828Z" fill="#B28B67"/>
<path fill-rule="evenodd" clip-rule="evenodd" d="M201.246 420.006L228.544 355.292C235.084 344.765 253.42 357.434 251.189 363.54C246.126 377.402 220.376 422.279 218.867 426.409L201.246 420.006Z" fill="#1F28CF"/>
<path fill-rule="evenodd" clip-rule="evenodd" d="M201.676 427.516C201.254 426.933 200.429 426.795 199.877 427.257C198.746 428.201 197.019 429.739 196.411 430.793C195.477 432.412 194.224 435.83 194.224 435.83C196.101 436.914 227.958 455.319 227.958 455.319C227.958 455.319 231.783 451.729 229.15 449.745C226.517 447.762 224.804 446.399 224.804 446.399L213.115 430.283C212.911 430.002 212.517 429.945 212.242 430.157L209.761 432.069C209.761 432.069 206.432 431.778 204.792 430.83C203.753 430.23 202.473 428.617 201.676 427.516Z" fill="#E4E4E4"/>
<path fill-rule="evenodd" clip-rule="evenodd" d="M240.15 445.62C239.493 445.327 238.71 445.62 238.462 446.296C237.955 447.68 237.228 449.875 237.228 451.093C237.228 452.962 237.85 456.548 237.85 456.548C240.017 456.548 276.802 456.548 276.802 456.548C276.802 456.548 278.321 451.525 275.049 451.125C271.778 450.724 269.614 450.401 269.614 450.401L251.439 442.293C251.122 442.152 250.752 442.3 250.62 442.62L249.426 445.517C249.426 445.517 246.398 446.931 244.504 446.931C243.304 446.931 241.391 446.175 240.15 445.62Z" fill="#E4E4E4"/>
<path fill-rule="evenodd" clip-rule="evenodd" d="M264.694 367.003C264.694 385.364 255.981 428.192 255.975 432.235L237.228 432.25C237.228 432.25 241.344 374.927 240.147 374.309C238.95 373.692 191.077 379.092 176.72 379.092C156.016 379.092 147.451 366.027 146.756 341.824H187.77C196.12 342.718 239.679 351.51 255.855 354.533C262.781 355.827 264.694 361.946 264.694 367.003Z" fill="#2B44FF"/>
<path fill-rule="evenodd" clip-rule="evenodd" d="M208.725 350.302C195.609 377.637 140.396 359.181 140.396 359.181C140.396 354.444 142.274 349.695 144.246 344.708C146.36 339.36 148.582 333.738 148.715 327.563C148.96 316.201 151.083 281.778 159.943 270.15C160.104 269.624 160.267 269.098 160.434 268.569L161.047 268.858C161.142 268.759 161.239 268.663 161.336 268.569L180.667 271.56C180.667 280.31 186.262 288.607 191.299 296.076C192.525 297.893 193.717 299.661 194.788 301.375C196.191 303.62 197.774 305.905 199.396 308.246C207.61 320.104 216.829 333.413 208.725 350.302Z" fill="#C1DEE2"/>
<path fill-rule="evenodd" clip-rule="evenodd" d="M183.955 345.136C185.248 338.459 186.086 334.002 186.471 331.764C196.77 343.41 202.719 349.3 204.32 349.435C207.33 349.689 209.554 347.018 210.187 347.769C211.234 350.879 208.278 358.664 202.626 359.796C199.928 360.336 195.752 354.768 194.031 352.794C193.354 352.018 189.996 349.465 183.955 345.136V345.136ZM201.744 309.54C204.414 309.54 205.848 310.644 207.426 312.873C209.005 315.101 210.499 325.61 207.964 325.61C205.43 325.61 194.812 321.548 194.812 318.817C194.812 316.085 202.057 314.929 202.057 312.873C202.057 310.817 199.075 309.54 201.744 309.54Z" fill="#B28B67"/>
<path fill-rule="evenodd" clip-rule="evenodd" d="M156.816 281.505C150.035 309.794 152.797 333.653 178.565 355.295C178.263 356.382 178.081 357.032 178.081 357.032C147.834 335.877 147.82 310.24 156.816 281.505Z" fill="black" fill-opacity="0.2"/>
<path fill-rule="evenodd" clip-rule="evenodd" d="M366.245 220.289C361.766 222.989 357.365 224.293 355.3 223.761C350.12 222.425 349.643 203.476 353.651 196.005C357.659 188.534 378.264 185.278 379.302 200.08C379.663 205.217 377.506 209.802 374.319 213.543L380.033 240.178H363.434L366.245 220.289Z" fill="#B28B67"/>
<path fill-rule="evenodd" clip-rule="evenodd" d="M363.112 187.394C365.3 187.036 371.191 186.789 372.277 186.789C372.971 186.789 373.724 186.948 374.135 186.31C374.471 185.788 374.348 184.905 374.449 184.3C374.565 183.596 374.731 182.901 374.899 182.208C375.376 180.237 376.097 178.361 377.106 176.6C379 173.296 381.775 170.708 385.278 169.202C389.146 167.539 393.523 167.159 397.683 167.496C402.136 167.857 406.166 169.327 410.37 170.71C414.376 172.028 418.572 172.547 422.761 171.903C426.983 171.255 430.172 168.967 433.733 166.795C437.378 164.572 441.544 163.118 445.853 163.452C449.876 163.764 453.583 165.425 456.909 167.644C460.021 169.72 462.589 172.217 464.039 175.732C465.598 179.513 465.597 183.664 463.032 187.006C459.315 191.849 452.414 193.102 446.672 192.977C443.351 192.906 440.09 192.299 436.954 191.197C432.773 189.726 429.16 187.233 425.248 185.211C423.412 184.262 421.514 183.482 419.525 182.921C417.595 182.375 415.694 182.125 413.947 183.291C412.098 184.525 410.441 185.737 408.326 186.509C406.298 187.25 404.149 187.664 401.987 187.647C397.781 187.615 393.635 186.304 389.551 185.427C386.22 184.711 382.656 183.998 379.26 184.686C377.843 184.973 375.773 185.565 375.261 187.038C383.875 188.599 387.259 199.253 384.83 207.073C383.519 211.294 375.641 216.228 372.578 214.009C370.637 212.604 371.815 210.758 372.578 209.54C374.038 207.206 374.537 204.209 371.835 202.585C369.505 201.184 367.054 204.511 367.008 204.507C366.367 204.457 360.832 201.326 357.019 196.758C353.257 196.981 352.686 194.501 353.584 192.472C354.482 190.443 360.089 187.89 363.112 187.394Z" fill="#191847"/>
<path fill-rule="evenodd" clip-rule="evenodd" d="M391.077 298.584L365.088 383.713L352.499 456.11H342.628L355.931 298.584H391.077Z" fill="#997659"/>
<path fill-rule="evenodd" clip-rule="evenodd" d="M400.375 298.584C398.61 345.324 400.687 369.434 401.082 373.681C401.477 377.927 406.887 405.462 419.694 457.535L409.176 453.916C388.935 406.157 382.038 381.336 379.716 375.064C377.395 368.793 371.229 343.3 361.219 298.584H400.375Z" fill="#B28B67"/>
<path fill-rule="evenodd" clip-rule="evenodd" d="M417.85 453.024C418.508 452.729 419.292 453.023 419.54 453.7C420.047 455.085 420.774 457.283 420.774 458.502C420.774 460.374 420.152 463.965 420.152 463.965C417.984 463.965 381.199 463.965 381.199 463.965C381.199 463.965 379.681 458.936 382.952 458.535C386.223 458.134 388.387 457.81 388.387 457.81L406.562 449.692C406.879 449.551 407.25 449.699 407.382 450.019L408.575 452.92C408.575 452.92 411.604 454.336 413.497 454.336C414.697 454.336 416.61 453.579 417.85 453.024Z" fill="#E4E4E4"/>
<path fill-rule="evenodd" clip-rule="evenodd" d="M352.932 453.024C353.59 452.729 354.373 453.023 354.621 453.7C355.128 455.085 355.855 457.283 355.855 458.502C355.855 460.374 355.233 463.965 355.233 463.965C353.066 463.965 316.281 463.965 316.281 463.965C316.281 463.965 314.762 458.936 318.034 458.535C321.305 458.134 323.469 457.81 323.469 457.81L341.644 449.692C341.961 449.551 342.331 449.699 342.463 450.019L343.657 452.92C343.657 452.92 346.685 454.336 348.579 454.336C349.778 454.336 351.691 453.579 352.932 453.024Z" fill="#E4E4E4"/>
<path fill-rule="evenodd" clip-rule="evenodd" d="M394.53 298.584L383.48 341.956H349.729L354.762 298.584H394.53Z" fill="#69A1AC"/>
<path fill-rule="evenodd" clip-rule="evenodd" d="M400.746 298.584C406.2 314.963 402.818 341.956 402.818 341.956H368.376L358.906 298.584H400.746Z" fill="#89C5CC"/>
<path fill-rule="evenodd" clip-rule="evenodd" d="M438.326 320.4C435.748 316.618 418.368 265.715 418.368 265.715L403.378 267.879C403.378 267.879 428.3 320.885 429.724 323.35C431.574 326.553 429.935 331.814 428.825 335.381C428.653 335.933 428.494 336.444 428.362 336.901C430.693 337.573 431.58 336.24 432.516 334.836C433.572 333.249 434.69 331.57 438.02 332.582C439.306 332.973 440.542 333.476 441.749 333.967C445.92 335.662 449.751 337.22 454.153 333.574C454.851 332.996 455.439 331.107 453.221 330.007C447.697 327.266 439.587 322.249 438.326 320.4ZM309.147 317.77L325.894 296.149L333.902 306.374L315.395 321.083C311.454 329.749 308.966 333.604 307.931 332.647C307.058 331.841 307.259 330.794 307.444 329.83C307.588 329.079 307.723 328.378 307.333 327.88C306.442 326.743 302.491 328.021 298.793 329.394C295.096 330.768 295.716 328.773 296.389 327.683C299.587 324.271 303.839 320.967 309.147 317.77Z" fill="#B28B67"/>
<path fill-rule="evenodd" clip-rule="evenodd" d="M366.698 229.668L360.633 229.486C355.93 263.719 311.147 292.896 309.934 305.617C309.489 310.282 313.064 312.106 311.576 313.717L320.065 318.26C321.155 316.559 324.327 318.945 329.864 316.186C335.4 313.426 372.176 268.649 366.698 229.668Z" fill="#DB2721"/>
<path fill-rule="evenodd" clip-rule="evenodd" d="M376.566 221.251C377.894 220.969 379.2 221.817 379.483 223.145L380.389 227.406C392.738 234.402 423.959 256.105 437.852 302.722C439.311 307.619 438.32 310.491 437.529 312.785C436.987 314.355 436.539 315.655 437.031 317.148L427.347 321.34C427.188 320.209 425.797 319.527 424.003 318.647C421.394 317.367 417.932 315.67 416.163 311.564C414.487 307.672 412.154 302.845 409.426 297.495C410.289 304.968 409.837 312.016 407.552 318.122C401.851 333.356 355.231 324.08 348.559 310.294C344.999 302.938 347.606 295.975 351.052 286.767C355.428 275.078 361.158 259.771 357.35 235.447L355.804 228.175C355.521 226.847 356.369 225.541 357.697 225.259L376.566 221.251Z" fill="#FF4133"/>
<defs>
<clipPath id="clip0_1366_2617">
<rect width="514.796" height="167.558" fill="white" transform="translate(30.876 256.92)"/>
</clipPath>
<clipPath id="clip1_1366_2617">
<rect width="97.753" height="185.669" fill="white" transform="translate(145.915 81.2637)"/>
</clipPath>
<clipPath id="clip2_1366_2617">
<rect width="80.5387" height="125.419" fill="white" transform="translate(154.522 98.4775)"/>
</clipPath>
<clipPath id="clip3_1366_2617">
<rect width="80.5387" height="33.1991" fill="white" transform="translate(154.522 98.4775)"/>
</clipPath>
<clipPath id="clip4_1366_2617">
<rect width="44.8803" height="13.2797" fill="white" transform="translate(178.5 108.438)"/>
</clipPath>
<clipPath id="clip5_1366_2617">
<rect width="80.5387" height="25.8216" fill="white" transform="translate(154.522 136.595)"/>
</clipPath>
<clipPath id="clip6_1366_2617">
<rect width="44.8803" height="10.3286" fill="white" transform="translate(178.5 144.342)"/>
</clipPath>
<clipPath id="clip7_1366_2617">
<rect width="80.5387" height="25.8216" fill="white" transform="translate(154.522 167.335)"/>
</clipPath>
<clipPath id="clip8_1366_2617">
<rect width="44.8803" height="10.3286" fill="white" transform="translate(178.5 175.081)"/>
</clipPath>
<clipPath id="clip9_1366_2617">
<rect width="80.5387" height="25.8216" fill="white" transform="translate(154.522 198.075)"/>
</clipPath>
<clipPath id="clip10_1366_2617">
<rect width="44.8803" height="10.3286" fill="white" transform="translate(178.5 205.821)"/>
</clipPath>
<clipPath id="clip11_1366_2617">
<rect width="127.263" height="185.669" fill="white" transform="translate(156.981 97.248)"/>
</clipPath>
<clipPath id="clip12_1366_2617">
<rect width="80.5387" height="125.419" fill="white" transform="translate(195.099 114.462)"/>
</clipPath>
<clipPath id="clip13_1366_2617">
<rect width="80.5387" height="33.1991" fill="white" transform="translate(195.099 114.462)"/>
</clipPath>
<clipPath id="clip14_1366_2617">
<rect width="44.8803" height="13.2797" fill="white" transform="translate(200.632 124.422)"/>
</clipPath>
<clipPath id="clip15_1366_2617">
<rect width="80.5387" height="25.8216" fill="white" transform="translate(195.099 152.58)"/>
</clipPath>
<clipPath id="clip16_1366_2617">
<rect width="44.8803" height="10.3286" fill="white" transform="translate(219.076 160.326)"/>
</clipPath>
<clipPath id="clip17_1366_2617">
<rect width="80.5387" height="25.8216" fill="white" transform="translate(195.099 183.32)"/>
</clipPath>
<clipPath id="clip18_1366_2617">
<rect width="44.8803" height="10.3286" fill="white" transform="translate(200.632 191.066)"/>
</clipPath>
<clipPath id="clip19_1366_2617">
<rect width="80.5387" height="25.8216" fill="white" transform="translate(195.099 214.06)"/>
</clipPath>
<clipPath id="clip20_1366_2617">
<rect width="44.8803" height="10.3286" fill="white" transform="translate(219.076 221.806)"/>
</clipPath>
<clipPath id="clip21_1366_2617">
<rect width="205.958" height="212.72" fill="white" transform="translate(227.068 112.618)"/>
</clipPath>
<clipPath id="clip22_1366_2617">
<rect width="43.0359" height="119.271" fill="white" transform="translate(380.153 193.771)"/>
</clipPath>
<clipPath id="clip23_1366_2617">
<rect width="20.9032" height="97.1382" fill="white" transform="translate(391.22 204.838)"/>
</clipPath>
<clipPath id="clip24_1366_2617">
<rect width="138.33" height="173.373" fill="white" transform="translate(236.905 139.669)"/>
</clipPath>
<clipPath id="clip25_1366_2617">
<rect width="138.33" height="28.8955" fill="white" transform="translate(236.905 139.669)"/>
</clipPath>
<clipPath id="clip26_1366_2617">
<rect width="102.671" height="11.5582" fill="white" transform="translate(242.438 148.338)"/>
</clipPath>
<clipPath id="clip27_1366_2617">
<rect width="138.33" height="23.9772" fill="white" transform="translate(236.905 173.483)"/>
</clipPath>
<clipPath id="clip28_1366_2617">
<rect width="102.671" height="9.59086" fill="white" transform="translate(242.438 180.677)"/>
</clipPath>
<clipPath id="clip29_1366_2617">
<rect width="138.33" height="23.9772" fill="white" transform="translate(236.905 202.379)"/>
</clipPath>
<clipPath id="clip30_1366_2617">
<rect width="102.671" height="9.59086" fill="white" transform="translate(242.438 209.572)"/>
</clipPath>
<clipPath id="clip31_1366_2617">
<rect width="138.33" height="23.9772" fill="white" transform="translate(236.905 289.065)"/>
</clipPath>
<clipPath id="clip32_1366_2617">
<rect width="102.671" height="9.59086" fill="white" transform="translate(242.438 296.259)"/>
</clipPath>
<clipPath id="clip33_1366_2617">
<rect width="138.33" height="23.9772" fill="white" transform="translate(236.905 260.17)"/>
</clipPath>
<clipPath id="clip34_1366_2617">
<rect width="102.671" height="9.59086" fill="white" transform="translate(242.438 267.363)"/>
</clipPath>
<clipPath id="clip35_1366_2617">
<rect width="138.33" height="23.9772" fill="white" transform="translate(236.905 231.274)"/>
</clipPath>
<clipPath id="clip36_1366_2617">
<rect width="102.671" height="9.59086" fill="white" transform="translate(242.438 238.468)"/>
</clipPath>
</defs>
</svg>
