<svg width="137" height="22" viewBox="0 0 137 22" fill="none" xmlns="http://www.w3.org/2000/svg">
<rect width="24.4378" height="21.3799" rx="3.7027" fill="#E4453B"/>
<path d="M2.66156 10.7874C2.66156 9.86323 2.86151 9.04123 3.2614 8.32143C3.66129 7.59274 4.2167 7.02844 4.92762 6.62855C5.64742 6.21977 6.46053 6.01538 7.36696 6.01538C8.47777 6.01538 9.42862 6.30864 10.2195 6.89515C11.0104 7.48165 11.5392 8.28144 11.8058 9.2945H9.29977C9.11315 8.90349 8.84656 8.60579 8.49998 8.40141C8.1623 8.19702 7.77573 8.09482 7.3403 8.09482C6.63826 8.09482 6.06953 8.3392 5.63409 8.82796C5.19865 9.31671 4.98093 9.96987 4.98093 10.7874C4.98093 11.605 5.19865 12.2581 5.63409 12.7469C6.06953 13.2357 6.63826 13.48 7.3403 13.48C7.77573 13.48 8.1623 13.3778 8.49998 13.1734C8.84656 12.9691 9.11315 12.6714 9.29977 12.2804H11.8058C11.5392 13.2934 11.0104 14.0932 10.2195 14.6797C9.42862 15.2573 8.47777 15.5461 7.36696 15.5461C6.46053 15.5461 5.64742 15.3462 4.92762 14.9463C4.2167 14.5375 3.66129 13.9732 3.2614 13.2534C2.86151 12.5336 2.66156 11.7116 2.66156 10.7874ZM19.0267 13.8266H15.5343L14.9745 15.4795H12.5885L15.9742 6.12202H18.6135L21.9993 15.4795H19.5866L19.0267 13.8266ZM18.4402 12.0671L17.2805 8.64134L16.1342 12.0671H18.4402Z" fill="white"/>
<path d="M34.431 10.3292C34.431 9.55904 34.5976 8.87404 34.9309 8.2742C35.2641 7.66696 35.727 7.19672 36.3194 6.86347C36.9192 6.52282 37.5968 6.3525 38.3522 6.3525C39.2779 6.3525 40.0702 6.59688 40.7293 7.08564C41.3884 7.57439 41.829 8.24088 42.0512 9.0851H39.9629C39.8073 8.75926 39.5852 8.51118 39.2964 8.34085C39.015 8.17053 38.6928 8.08537 38.33 8.08537C37.7449 8.08537 37.271 8.28901 36.9081 8.69631C36.5453 9.10361 36.3638 9.64791 36.3638 10.3292C36.3638 11.0105 36.5453 11.5548 36.9081 11.9621C37.271 12.3694 37.7449 12.573 38.33 12.573C38.6928 12.573 39.015 12.4879 39.2964 12.3176C39.5852 12.1472 39.8073 11.8991 39.9629 11.5733H42.0512C41.829 12.4175 41.3884 13.084 40.7293 13.5728C40.0702 14.0541 39.2779 14.2948 38.3522 14.2948C37.5968 14.2948 36.9192 14.1282 36.3194 13.7949C35.727 13.4543 35.2641 12.984 34.9309 12.3842C34.5976 11.7844 34.431 11.0994 34.431 10.3292ZM45.3361 9.07399C45.5582 8.73334 45.8359 8.46674 46.1692 8.2742C46.5024 8.07426 46.8727 7.97428 47.28 7.97428V9.98485H46.7579C46.284 9.98485 45.9285 10.0885 45.6915 10.2959C45.4545 10.4958 45.3361 10.8513 45.3361 11.3623V14.2393H43.4366V8.04093H45.3361V9.07399ZM49.3654 7.39666C49.0321 7.39666 48.7581 7.30039 48.5434 7.10785C48.336 6.90791 48.2323 6.66353 48.2323 6.37472C48.2323 6.0785 48.336 5.83412 48.5434 5.64158C48.7581 5.44164 49.0321 5.34166 49.3654 5.34166C49.6912 5.34166 49.9578 5.44164 50.1651 5.64158C50.3799 5.83412 50.4873 6.0785 50.4873 6.37472C50.4873 6.66353 50.3799 6.90791 50.1651 7.10785C49.9578 7.30039 49.6912 7.39666 49.3654 7.39666ZM50.3095 8.04093V14.2393H48.4101V8.04093H50.3095ZM51.5306 11.1401C51.5306 10.4958 51.6602 9.93301 51.9193 9.45166C52.1859 8.97031 52.5525 8.60004 53.0191 8.34085C53.493 8.08166 54.0336 7.95207 54.6408 7.95207C55.4184 7.95207 56.0664 8.15572 56.5848 8.56301C57.1105 8.97031 57.4549 9.54423 57.6178 10.2848H55.5961C55.4258 9.81083 55.0963 9.57385 54.6075 9.57385C54.2595 9.57385 53.9818 9.71085 53.7744 9.98485C53.5671 10.2514 53.4634 10.6365 53.4634 11.1401C53.4634 11.6437 53.5671 12.0324 53.7744 12.3064C53.9818 12.573 54.2595 12.7063 54.6075 12.7063C55.0963 12.7063 55.4258 12.4694 55.5961 11.9954H57.6178C57.4549 12.7211 57.1105 13.2914 56.5848 13.7061C56.059 14.1208 55.411 14.3281 54.6408 14.3281C54.0336 14.3281 53.493 14.1985 53.0191 13.9393C52.5525 13.6801 52.1859 13.3099 51.9193 12.8285C51.6602 12.3472 51.5306 11.7844 51.5306 11.1401ZM62.6439 14.2393L60.7555 11.64V14.2393H58.856V6.01926H60.7555V10.5625L62.6328 8.04093H64.9766L62.3995 11.1512L64.9988 14.2393H62.6439ZM71.7877 11.0401C71.7877 11.2179 71.7766 11.403 71.7544 11.5955H67.4555C67.4851 11.9806 67.6073 12.2768 67.8221 12.4842C68.0442 12.6841 68.3145 12.7841 68.633 12.7841C69.1069 12.7841 69.4365 12.5841 69.6216 12.1843H71.6433C71.5396 12.5916 71.3508 12.9581 71.0768 13.284C70.8102 13.6098 70.4732 13.8653 70.0659 14.0504C69.6586 14.2356 69.2032 14.3281 68.6996 14.3281C68.0924 14.3281 67.5518 14.1985 67.0778 13.9393C66.6039 13.6801 66.2336 13.3099 65.967 12.8285C65.7004 12.3472 65.5671 11.7844 65.5671 11.1401C65.5671 10.4958 65.6967 9.93301 65.9559 9.45166C66.2225 8.97031 66.5928 8.60004 67.0667 8.34085C67.5407 8.08166 68.085 7.95207 68.6996 7.95207C69.2995 7.95207 69.8326 8.07796 70.2992 8.32974C70.7657 8.58153 71.1286 8.94069 71.3878 9.40723C71.6544 9.87377 71.7877 10.4181 71.7877 11.0401ZM69.8438 10.5403C69.8438 10.2144 69.7327 9.95523 69.5105 9.76269C69.2884 9.57015 69.0106 9.47388 68.6774 9.47388C68.359 9.47388 68.0887 9.56645 67.8665 9.75158C67.6518 9.93672 67.5185 10.1996 67.4666 10.5403H69.8438ZM76.4665 12.6286V14.2393H75.5001C74.8114 14.2393 74.2745 14.0726 73.8895 13.7394C73.5044 13.3987 73.3118 12.847 73.3118 12.0843V9.61828H72.5565V8.04093H73.3118V6.53023H75.2113V8.04093H76.4554V9.61828H75.2113V12.1065C75.2113 12.2916 75.2557 12.4249 75.3446 12.5064C75.4335 12.5879 75.5816 12.6286 75.7889 12.6286H76.4665ZM85.1771 12.8619H82.2668L81.8002 14.2393H79.8119L82.6334 6.44137H84.8328L87.6542 14.2393H85.6437L85.1771 12.8619ZM84.6884 11.3956L83.722 8.5408L82.7667 11.3956H84.6884ZM88.3574 11.129C88.3574 10.4921 88.4759 9.93301 88.7129 9.45166C88.9573 8.97031 89.2868 8.60004 89.7015 8.34085C90.1162 8.08166 90.579 7.95207 91.09 7.95207C91.4973 7.95207 91.8676 8.03723 92.2008 8.20755C92.5415 8.37788 92.8081 8.60745 93.0006 8.89626V6.01926H94.9001V14.2393H93.0006V13.3506C92.8229 13.6468 92.5674 13.8838 92.2341 14.0615C91.9083 14.2393 91.5269 14.3281 91.09 14.3281C90.579 14.3281 90.1162 14.1985 89.7015 13.9393C89.2868 13.6727 88.9573 13.2988 88.7129 12.8174C88.4759 12.3287 88.3574 11.7659 88.3574 11.129ZM93.0006 11.1401C93.0006 10.6661 92.8673 10.2922 92.6007 10.0182C92.3415 9.74418 92.0231 9.60718 91.6454 9.60718C91.2677 9.60718 90.9456 9.74418 90.679 10.0182C90.4198 10.2848 90.2902 10.655 90.2902 11.129C90.2902 11.6029 90.4198 11.9806 90.679 12.262C90.9456 12.536 91.2677 12.673 91.6454 12.673C92.0231 12.673 92.3415 12.536 92.6007 12.262C92.8673 11.988 93.0006 11.614 93.0006 11.1401ZM96.1188 11.129C96.1188 10.4921 96.2373 9.93301 96.4742 9.45166C96.7186 8.97031 97.0482 8.60004 97.4629 8.34085C97.8776 8.08166 98.3404 7.95207 98.8514 7.95207C99.2587 7.95207 99.6289 8.03723 99.9622 8.20755C100.303 8.37788 100.569 8.60745 100.762 8.89626V6.01926H102.661V14.2393H100.762V13.3506C100.584 13.6468 100.329 13.8838 99.9955 14.0615C99.6697 14.2393 99.2883 14.3281 98.8514 14.3281C98.3404 14.3281 97.8776 14.1985 97.4629 13.9393C97.0482 13.6727 96.7186 13.2988 96.4742 12.8174C96.2373 12.3287 96.1188 11.7659 96.1188 11.129ZM100.762 11.1401C100.762 10.6661 100.629 10.2922 100.362 10.0182C100.103 9.74418 99.7844 9.60718 99.4068 9.60718C99.0291 9.60718 98.707 9.74418 98.4404 10.0182C98.1812 10.2848 98.0516 10.655 98.0516 11.129C98.0516 11.6029 98.1812 11.9806 98.4404 12.262C98.707 12.536 99.0291 12.673 99.4068 12.673C99.7844 12.673 100.103 12.536 100.362 12.262C100.629 11.988 100.762 11.614 100.762 11.1401ZM105.213 7.39666C104.88 7.39666 104.606 7.30039 104.391 7.10785C104.184 6.90791 104.08 6.66353 104.08 6.37472C104.08 6.0785 104.184 5.83412 104.391 5.64158C104.606 5.44164 104.88 5.34166 105.213 5.34166C105.539 5.34166 105.806 5.44164 106.013 5.64158C106.228 5.83412 106.335 6.0785 106.335 6.37472C106.335 6.66353 106.228 6.90791 106.013 7.10785C105.806 7.30039 105.539 7.39666 105.213 7.39666ZM106.157 8.04093V14.2393H104.258V8.04093H106.157ZM107.378 11.1401C107.378 10.4958 107.508 9.93301 107.767 9.45166C108.034 8.97031 108.4 8.60004 108.867 8.34085C109.341 8.08166 109.881 7.95207 110.489 7.95207C111.266 7.95207 111.914 8.15572 112.433 8.56301C112.958 8.97031 113.303 9.54423 113.466 10.2848H111.444C111.274 9.81083 110.944 9.57385 110.455 9.57385C110.107 9.57385 109.83 9.71085 109.622 9.98485C109.415 10.2514 109.311 10.6365 109.311 11.1401C109.311 11.6437 109.415 12.0324 109.622 12.3064C109.83 12.573 110.107 12.7063 110.455 12.7063C110.944 12.7063 111.274 12.4694 111.444 11.9954H113.466C113.303 12.7211 112.958 13.2914 112.433 13.7061C111.907 14.1208 111.259 14.3281 110.489 14.3281C109.881 14.3281 109.341 14.1985 108.867 13.9393C108.4 13.6801 108.034 13.3099 107.767 12.8285C107.508 12.3472 107.378 11.7844 107.378 11.1401ZM118.158 12.6286V14.2393H117.192C116.503 14.2393 115.966 14.0726 115.581 13.7394C115.196 13.3987 115.004 12.847 115.004 12.0843V9.61828H114.248V8.04093H115.004V6.53023H116.903V8.04093H118.147V9.61828H116.903V12.1065C116.903 12.2916 116.948 12.4249 117.036 12.5064C117.125 12.5879 117.273 12.6286 117.481 12.6286H118.158ZM122.26 14.3281C121.653 14.3281 121.105 14.1985 120.616 13.9393C120.135 13.6801 119.753 13.3099 119.472 12.8285C119.198 12.3472 119.061 11.7844 119.061 11.1401C119.061 10.5032 119.202 9.94412 119.483 9.46277C119.764 8.97401 120.15 8.60004 120.638 8.34085C121.127 8.08166 121.675 7.95207 122.282 7.95207C122.89 7.95207 123.438 8.08166 123.926 8.34085C124.415 8.60004 124.8 8.97401 125.082 9.46277C125.363 9.94412 125.504 10.5032 125.504 11.1401C125.504 11.777 125.359 12.3398 125.07 12.8285C124.789 13.3099 124.4 13.6801 123.904 13.9393C123.415 14.1985 122.867 14.3281 122.26 14.3281ZM122.26 12.6841C122.623 12.6841 122.93 12.5508 123.182 12.2842C123.441 12.0176 123.571 11.6363 123.571 11.1401C123.571 10.6439 123.445 10.2626 123.193 9.99596C122.949 9.72937 122.645 9.59607 122.282 9.59607C121.912 9.59607 121.605 9.72937 121.36 9.99596C121.116 10.2551 120.994 10.6365 120.994 11.1401C120.994 11.6363 121.112 12.0176 121.349 12.2842C121.594 12.5508 121.897 12.6841 122.26 12.6841ZM128.633 9.07399C128.855 8.73334 129.133 8.46674 129.466 8.2742C129.799 8.07426 130.17 7.97428 130.577 7.97428V9.98485H130.055C129.581 9.98485 129.225 10.0885 128.988 10.2959C128.751 10.4958 128.633 10.8513 128.633 11.3623V14.2393H126.734V8.04093H128.633V9.07399Z" fill="black"/>
<rect x="29.2511" y="0.37027" width="107.378" height="20.6394" rx="3.33243" stroke="black" stroke-width="0.740541"/>
</svg>
