<svg
    xmlns="http://www.w3.org/2000/svg"
    width='24'
    height='24'
    viewBox="0 0 24 24"
    fill="none"
>
    <path
        d="M22.2803 14.4697L20.0303 12.2197C19.8896 12.0791 19.6989 12.0002 19.5 12.0002C19.3011 12.0002 19.1104 12.0791 18.9697 12.2197L12 19.1895V22.5H15.3105L22.2803 15.5303C22.4209 15.3896 22.4998 15.1989 22.4998 15C22.4998 14.8011 22.4209 14.6104 22.2803 14.4697ZM14.6895 21H13.5V19.8105L17.25 16.0605L18.4395 17.25L14.6895 21ZM19.5 16.1895L18.3105 15L19.5 13.8105L20.6895 15L19.5 16.1895ZM13.5 13.5V10.5H15V13.5H13.5ZM10.5 13.5V9H12V13.5H10.5ZM7.5 13.5V6H9V13.5H7.5Z"
        fill="currentColor"
    />
    <path
        d="M9 22.5H4.5C4.10218 22.5 3.72064 22.342 3.43934 22.0607C3.15804 21.7794 3 21.3978 3 21V3C3 2.60218 3.15804 2.22064 3.43934 1.93934C3.72064 1.65804 4.10218 1.5 4.5 1.5H16.5C16.8978 1.5 17.2794 1.65804 17.5607 1.93934C17.842 2.22064 18 2.60218 18 3V10.5H16.5V3H4.5V21H9V22.5Z"
        fill="currentColor"
    />
</svg>