<svg width="28" height="28" viewBox="0 0 28 28" fill="none" xmlns="http://www.w3.org/2000/svg">
<g clip-path="url(#clip0_714_1955)">
<path d="M25.2856 21.6456C24.5355 20.977 23.8789 20.2105 23.3333 19.3667C22.7377 18.202 22.3807 16.9301 22.2833 15.6256V11.7834C22.2885 9.73443 21.5452 7.7541 20.1932 6.21448C18.8412 4.67487 16.9736 3.68195 14.9411 3.42228V2.41895C14.9411 2.14357 14.8317 1.87946 14.637 1.68474C14.4423 1.49001 14.1782 1.38062 13.9028 1.38062C13.6274 1.38062 13.3633 1.49001 13.1686 1.68474C12.9738 1.87946 12.8644 2.14357 12.8644 2.41895V3.43784C10.8502 3.71623 9.00509 4.71515 7.67086 6.24959C6.33662 7.78403 5.60368 9.75001 5.60778 11.7834V15.6256C5.51037 16.9301 5.15338 18.202 4.55778 19.3667C4.0218 20.2086 3.37571 20.975 2.63667 21.6456C2.5537 21.7185 2.48721 21.8082 2.44161 21.9088C2.39602 22.0094 2.37236 22.1185 2.37222 22.229V23.2867C2.37222 23.493 2.45417 23.6908 2.60003 23.8367C2.74589 23.9826 2.94372 24.0645 3.15 24.0645H24.7722C24.9785 24.0645 25.1763 23.9826 25.3222 23.8367C25.4681 23.6908 25.55 23.493 25.55 23.2867V22.229C25.5499 22.1185 25.5262 22.0094 25.4806 21.9088C25.435 21.8082 25.3685 21.7185 25.2856 21.6456ZM3.99 22.509C4.71365 21.8099 5.3508 21.0265 5.88778 20.1756C6.63803 18.769 7.07578 17.217 7.17111 15.6256V11.7834C7.14027 10.8719 7.29316 9.96345 7.6207 9.11225C7.94824 8.26104 8.44372 7.48445 9.07764 6.82872C9.71155 6.17299 10.4709 5.65152 11.3106 5.29538C12.1502 4.93924 13.053 4.75571 13.965 4.75571C14.877 4.75571 15.7798 4.93924 16.6194 5.29538C17.4591 5.65152 18.2184 6.17299 18.8524 6.82872C19.4863 7.48445 19.9818 8.26104 20.3093 9.11225C20.6368 9.96345 20.7897 10.8719 20.7589 11.7834V15.6256C20.8542 17.217 21.292 18.769 22.0422 20.1756C22.5792 21.0265 23.2163 21.8099 23.94 22.509H3.99Z" fill="black"/>
<path d="M14 26.6622C14.49 26.651 14.9601 26.4668 15.3274 26.1422C15.6946 25.8177 15.9352 25.3738 16.0067 24.8889H11.9156C11.989 25.3869 12.2409 25.8413 12.6243 26.1675C13.0078 26.4937 13.4966 26.6695 14 26.6622Z" fill="black"/>
</g>
<defs>
<clipPath id="clip0_714_1955">
<rect width="28" height="28" fill="white"/>
</clipPath>
</defs>
</svg>
