<svg width="27" height="27" viewBox="0 0 27 27" fill="none" xmlns="http://www.w3.org/2000/svg">
<g clip-path="url(#clip0_1370_3506)">
<path d="M24.3826 20.8723C23.6594 20.2276 23.0262 19.4884 22.5001 18.6748C21.9258 17.5517 21.5815 16.3252 21.4876 15.0673V11.3623C21.4926 9.38651 20.7759 7.47691 19.4722 5.99228C18.1684 4.50766 16.3675 3.5502 14.4076 3.2998V2.3323C14.4076 2.06676 14.3021 1.81208 14.1143 1.62431C13.9266 1.43654 13.6719 1.33105 13.4063 1.33105C13.1408 1.33105 12.8861 1.43654 12.6984 1.62431C12.5106 1.81208 12.4051 2.06676 12.4051 2.3323V3.3148C10.4628 3.58325 8.68358 4.5465 7.39699 6.02613C6.11041 7.50577 5.40365 9.40154 5.4076 11.3623V15.0673C5.31366 16.3252 4.96943 17.5517 4.3951 18.6748C3.87826 19.4866 3.25524 20.2256 2.5426 20.8723C2.4626 20.9426 2.39848 21.0291 2.35451 21.1261C2.31054 21.2231 2.28773 21.3283 2.2876 21.4348V22.4548C2.2876 22.6537 2.36662 22.8445 2.50727 22.9851C2.64792 23.1258 2.83869 23.2048 3.0376 23.2048H23.8876C24.0865 23.2048 24.2773 23.1258 24.4179 22.9851C24.5586 22.8445 24.6376 22.6537 24.6376 22.4548V21.4348C24.6375 21.3283 24.6147 21.2231 24.5707 21.1261C24.5267 21.0291 24.4626 20.9426 24.3826 20.8723ZM3.8476 21.7048C4.5454 21.0307 5.1598 20.2753 5.6776 19.4548C6.40106 18.0984 6.82317 16.6018 6.9151 15.0673V11.3623C6.88535 10.4833 7.03279 9.60736 7.34863 8.78656C7.66447 7.96575 8.14226 7.21689 8.75353 6.58458C9.36481 5.95227 10.0971 5.44943 10.9067 5.10601C11.7164 4.76259 12.5869 4.58561 13.4663 4.58561C14.3458 4.58561 15.2163 4.76259 16.026 5.10601C16.8356 5.44943 17.5679 5.95227 18.1792 6.58458C18.7904 7.21689 19.2682 7.96575 19.5841 8.78656C19.8999 9.60736 20.0473 10.4833 20.0176 11.3623V15.0673C20.1095 16.6018 20.5316 18.0984 21.2551 19.4548C21.7729 20.2753 22.3873 21.0307 23.0851 21.7048H3.8476Z" fill="white"/>
<path d="M13.5002 25.71C13.9727 25.6991 14.4261 25.5215 14.7802 25.2086C15.1343 24.8956 15.3663 24.4675 15.4352 24H11.4902C11.5611 24.4802 11.804 24.9184 12.1737 25.2329C12.5434 25.5475 13.0149 25.717 13.5002 25.71Z" fill="white"/>
</g>
<defs>
<clipPath id="clip0_1370_3506">
<rect width="27" height="27" fill="white"/>
</clipPath>
</defs>
</svg>
