<svg width="21" height="21" viewBox="0 0 21 21" fill="none" xmlns="http://www.w3.org/2000/svg">
<path fill-rule="evenodd" clip-rule="evenodd" d="M10.5 11.8125C11.4283 11.8125 12.3185 11.4438 12.9749 10.7874C13.6313 10.131 14 9.24076 14 8.3125C14 7.38424 13.6313 6.494 12.9749 5.83763C12.3185 5.18125 11.4283 4.8125 10.5 4.8125C9.57174 4.8125 8.6815 5.18125 8.02513 5.83763C7.36875 6.494 7 7.38424 7 8.3125C7 9.24076 7.36875 10.131 8.02513 10.7874C8.6815 11.4438 9.57174 11.8125 10.5 11.8125ZM10.5 10.9375C10.8447 10.9375 11.1861 10.8696 11.5045 10.7377C11.823 10.6058 12.1124 10.4124 12.3562 10.1687C12.5999 9.9249 12.7933 9.63552 12.9252 9.31704C13.0571 8.99856 13.125 8.65722 13.125 8.3125C13.125 7.96778 13.0571 7.62644 12.9252 7.30796C12.7933 6.98948 12.5999 6.7001 12.3562 6.45634C12.1124 6.21259 11.823 6.01924 11.5045 5.88732C11.1861 5.7554 10.8447 5.6875 10.5 5.6875C9.80381 5.6875 9.13613 5.96406 8.64384 6.45634C8.15156 6.94863 7.875 7.61631 7.875 8.3125C7.875 9.00869 8.15156 9.67637 8.64384 10.1687C9.13613 10.6609 9.80381 10.9375 10.5 10.9375Z" fill="black"/>
<path fill-rule="evenodd" clip-rule="evenodd" d="M19.25 10.5C19.25 15.3326 15.3326 19.25 10.5 19.25C5.66738 19.25 1.75 15.3326 1.75 10.5C1.75 5.66738 5.66738 1.75 10.5 1.75C15.3326 1.75 19.25 5.66738 19.25 10.5ZM14.7131 17.1544C13.4535 17.9539 11.9919 18.3774 10.5 18.375C8.97246 18.3774 7.47751 17.9333 6.19894 17.0975C6.09394 16.9663 5.98719 16.8306 5.87956 16.6906C5.75451 16.5266 5.68701 16.3259 5.6875 16.1197C5.6875 15.6485 6.02612 15.2534 6.47894 15.1874C9.47362 14.7499 11.5356 14.7875 14.5342 15.2027C14.7513 15.2342 14.9498 15.3432 15.0928 15.5095C15.2359 15.6759 15.3139 15.8885 15.3125 16.1079C15.3125 16.3179 15.2403 16.5217 15.1099 16.681C14.9756 16.8446 14.8431 17.0026 14.7131 17.1544ZM16.1809 15.9539C16.1109 15.1349 15.4892 14.4515 14.6541 14.336C11.5846 13.9112 9.43906 13.8705 6.3525 14.3216C5.5125 14.4441 4.89344 15.1336 4.81994 15.9547C3.40914 14.4896 2.62222 12.534 2.625 10.5C2.625 6.15081 6.15081 2.625 10.5 2.625C14.8492 2.625 18.375 6.15081 18.375 10.5C18.3778 12.5335 17.5912 14.4888 16.1809 15.9539Z" fill="black"/>
</svg>
