<svg width="21" height="21" viewBox="0 0 21 21" fill="none" xmlns="http://www.w3.org/2000/svg">
<path d="M11.375 3.5H5.25C4.78587 3.5 4.34075 3.68437 4.01256 4.01256C3.68437 4.34075 3.5 4.78587 3.5 5.25V15.75C3.5 16.2141 3.68437 16.6592 4.01256 16.9874C4.34075 17.3156 4.78587 17.5 5.25 17.5H11.375M14.875 3.5H15.75C16.2141 3.5 16.6592 3.68437 16.9874 4.01256C17.3156 4.34075 17.5 4.78587 17.5 5.25V6.125M17.5 14.875V15.75C17.5 16.2141 17.3156 16.6592 16.9874 16.9874C16.6592 17.3156 16.2141 17.5 15.75 17.5H14.875M17.5 9.625V11.375M10.5 1.75V19.25" stroke="#504F4F" stroke-width="1.5" stroke-linecap="round" stroke-linejoin="round"/>
</svg>
