<svg width="22" height="22" viewBox="0 0 22 22" fill="none" xmlns="http://www.w3.org/2000/svg">
<path d="M12.125 3.8H4.25C3.65326 3.8 3.08097 3.98964 2.65901 4.32721C2.23705 4.66477 2 5.12261 2 5.6V16.4C2 16.8774 2.23705 17.3352 2.65901 17.6728C3.08097 18.0104 3.65326 18.2 4.25 18.2H12.125M16.625 3.8H17.75C18.3467 3.8 18.919 3.98964 19.341 4.32721C19.7629 4.66477 20 5.12261 20 5.6V6.5M20 15.5V16.4C20 16.8774 19.7629 17.3352 19.341 17.6728C18.919 18.0104 18.3467 18.2 17.75 18.2H16.625M20 10.1V11.9M11 2V20" stroke="#E4453B" stroke-width="1.5" stroke-linecap="round" stroke-linejoin="round"/>
<path d="M7.16 14H6.008L4.2 8.608H5.296L5.96 10.752C6.09333 11.1787 6.21333 11.5867 6.32 11.976C6.42667 12.3653 6.50133 12.648 6.544 12.824L6.6 13.088C6.728 12.4907 6.944 11.712 7.248 10.752L7.92 8.608H9L7.16 14Z" fill="#E4453B"/>
<path d="M17.816 12.488C17.816 12.968 17.6427 13.352 17.296 13.64C16.9547 13.9227 16.504 14.064 15.944 14.064C15.336 14.064 14.832 13.9493 14.432 13.72V12.688C14.8907 13.0187 15.392 13.184 15.936 13.184C16.1813 13.184 16.3787 13.1253 16.528 13.008C16.6773 12.8853 16.752 12.7227 16.752 12.52C16.752 12.424 16.7333 12.3387 16.696 12.264C16.6587 12.1893 16.5813 12.1147 16.464 12.04C16.352 11.9653 16.264 11.912 16.2 11.88C16.1413 11.848 16.016 11.7893 15.824 11.704C15.7707 11.6773 15.7307 11.6587 15.704 11.648C15.5067 11.5573 15.3467 11.4773 15.224 11.408C15.1013 11.3333 14.968 11.2347 14.824 11.112C14.68 10.9893 14.5707 10.8427 14.496 10.672C14.4267 10.5013 14.392 10.3067 14.392 10.088C14.392 9.62933 14.56 9.26133 14.896 8.984C15.2373 8.70667 15.688 8.568 16.248 8.568C16.7547 8.568 17.192 8.656 17.56 8.832V9.808C17.16 9.568 16.7333 9.448 16.28 9.448C16.0293 9.448 15.832 9.504 15.688 9.616C15.5493 9.728 15.48 9.872 15.48 10.048C15.48 10.224 15.5547 10.3707 15.704 10.488C15.8587 10.6 16.088 10.7253 16.392 10.864C16.6053 10.96 16.7787 11.0453 16.912 11.12C17.0453 11.1893 17.1893 11.288 17.344 11.416C17.504 11.544 17.6213 11.6987 17.696 11.88C17.776 12.056 17.816 12.2587 17.816 12.488Z" fill="#E4453B"/>
</svg>
