<svg width="21" height="21" viewBox="0 0 21 21" fill="none" xmlns="http://www.w3.org/2000/svg">
<path d="M2.17874 15.2808L1.46387 14.7576L5.30074 8.61509L7.92574 11.6776L11.3916 6.05747L13.1871 8.76472C13.0197 8.79097 12.8651 8.82013 12.7234 8.85222C12.5816 8.88372 12.4378 8.92426 12.292 8.97384L11.424 7.67972L8.06487 13.1502L5.41799 10.0658L2.17874 15.2808ZM18.8781 19.5027L15.8742 16.5321C15.6164 16.7252 15.3341 16.8728 15.0272 16.9748C14.7204 17.0769 14.3999 17.128 14.0656 17.128C13.2075 17.128 12.4827 16.8322 11.8912 16.2407C11.2992 15.6486 11.0031 14.9236 11.0031 14.0655C11.0031 13.2074 11.2992 12.4826 11.8912 11.8911C12.4833 11.2996 13.2081 11.0036 14.0656 11.003C14.9231 11.0024 15.6482 11.2984 16.2409 11.8911C16.8335 12.4838 17.1293 13.2086 17.1281 14.0655C17.1281 14.4108 17.0745 14.7398 16.9671 15.0525C16.8592 15.3651 16.7032 15.6521 16.499 15.9135L19.502 18.878L18.8781 19.5027ZM14.0656 16.253C14.6781 16.253 15.1958 16.0415 15.6187 15.6186C16.0417 15.1957 16.2531 14.678 16.2531 14.0655C16.2531 13.453 16.0417 12.9353 15.6187 12.5123C15.1958 12.0894 14.6781 11.878 14.0656 11.878C13.4531 11.878 12.9354 12.0894 12.5125 12.5123C12.0896 12.9353 11.8781 13.453 11.8781 14.0655C11.8781 14.678 12.0896 15.1957 12.5125 15.6186C12.9354 16.0415 13.4531 16.253 14.0656 16.253ZM15.6756 8.95022C15.5333 8.90064 15.3912 8.85893 15.2495 8.82509C15.1072 8.79184 14.9599 8.76793 14.8076 8.75334L18.8212 2.37109L19.5361 2.89434L15.6756 8.95022Z" fill="#504F4F"/>
</svg>
