<svg width="35" height="35" viewBox="0 0 35 35" fill="none" xmlns="http://www.w3.org/2000/svg">
    <g clip-path="url(#clip0_678_10158)">
        <path
            d="M29.9519 26.4821C29.6116 24.9131 28.3888 23.6859 26.8211 23.3399L21.0835 22.0735C20.9493 23.9253 17.4975 26.7978 17.4975 26.7978C17.4975 26.7978 14.0843 23.9203 13.9549 22.064L8.174 23.3399C6.60627 23.6859 5.3835 24.9131 5.0432 26.4821L3.98145 31.3774C5.5102 32.3793 7.32155 33.2114 9.33511 33.8246C11.8065 34.5772 14.5827 34.9999 17.5171 34.9999C20.4364 34.9999 23.1992 34.5816 25.661 33.8363C27.6749 33.2266 29.4871 32.3978 31.0183 31.3995L29.9519 26.4821Z"
            fill="#D8D8D8" />
        <path
            d="M15.0968 21.812H19.8981C19.8981 21.812 20.0073 24.2287 17.6084 24.2287C15.2095 24.2287 15.0931 22.3016 15.0968 21.812Z"
            fill="#2B2B2B" />
        <path d="M15.542 25.3629L17.498 27.1468L19.4977 25.2853V19.1772H15.542V25.3629Z"
            fill="#DDC29B" />
        <path
            d="M27.4274 12.746C27.4274 11.9201 26.918 11.2144 26.1968 10.9227C26.2226 10.6352 26.2364 10.3506 26.2364 10.0703C26.2364 5.25598 22.3337 3.53247 17.5194 3.53247C12.7051 3.53247 8.80234 5.25598 8.80234 10.0703C8.80234 10.3506 8.81607 10.6352 8.84201 10.9227C8.1208 11.2144 7.61133 11.9201 7.61133 12.746C7.61133 13.8139 9.04887 15.2689 10.1297 15.318C11.6711 18.4198 14.4042 20.9666 17.5194 20.9666C20.6346 20.9666 23.3676 18.4198 24.9091 15.318C25.9899 15.2689 27.4274 13.814 27.4274 12.746Z"
            fill="#E8D8BF" />
        <path
            d="M8.25098 23.3229C9.89445 26.5941 9.68317 30.2329 9.33507 33.8247C10.0225 34.034 10.7343 34.2169 11.4658 34.3731C11.4544 30.4879 11.3263 26.5523 9.91132 22.9565L8.25098 23.3229Z"
            fill="#BDC3C7" />
        <path
            d="M13.8031 22.0974L11.9746 22.501C12.853 26.4808 13.4756 30.6235 13.4685 34.7224C13.9811 34.7933 14.5016 34.8509 15.0289 34.8952C15.1725 30.5877 14.6097 26.341 13.8031 22.0974Z"
            fill="#BDC3C7" />
        <path
            d="M26.7441 23.3229C25.1006 26.5941 25.3119 30.2329 25.66 33.8247C24.9725 34.034 24.2607 34.2169 23.5293 34.3731C23.5407 30.4879 23.6688 26.5523 25.0838 22.9565L26.7441 23.3229Z"
            fill="#BDC3C7" />
        <path
            d="M21.1926 22.0974L23.021 22.501C22.1426 26.4808 21.5201 30.6235 21.5272 34.7224C21.0146 34.7933 20.494 34.8509 19.9668 34.8952C19.8231 30.5877 20.3861 26.341 21.1926 22.0974Z"
            fill="#BDC3C7" />
        <path
            d="M18.5251 25.861C17.9459 26.4243 17.4974 26.798 17.4974 26.798C17.4974 26.798 17.048 26.4187 16.4697 25.8479V34.9801C16.8165 34.9924 17.1652 35.0001 17.5171 35.0001C17.8553 35.0001 18.1913 34.9939 18.5251 34.9827V25.861Z"
            fill="#BDC3C7" />
        <path
            d="M21.0839 22.0737L19.8986 21.812C19.8986 23.1478 17.5158 26.5651 17.5158 26.5651C17.5158 26.5651 15.0972 23.1478 15.0971 21.812L13.9551 22.0641C14.0533 23.4718 16.0391 26.5361 16.9937 27.9358V32.3824H18.0408V27.8885C19.0186 26.4694 20.9834 23.4618 21.0839 22.0737Z"
            fill="#595155" />
        <path
            d="M26.1948 10.9227C26.2206 10.6352 26.2345 10.3506 26.2345 10.0703C26.2345 5.25598 22.3317 3.53247 17.5174 3.53247C12.7031 3.53247 8.80038 5.25598 8.80038 10.0703C8.80038 10.3506 8.81411 10.6352 8.84006 10.9227C8.11884 11.2144 7.60938 11.9201 7.60938 12.746C7.60938 13.8139 9.04692 15.2689 10.1277 15.318C11.6692 18.4198 14.4022 20.9666 17.5174 20.9666C20.6326 20.9666 23.3657 18.4198 24.9071 15.318C25.9879 15.2689 27.4255 13.8139 27.4255 12.746C27.4255 11.9201 26.9161 11.2144 26.1948 10.9227ZM17.5174 20.6792C13.8639 20.6792 10.9021 14.7443 10.9021 10.9175C10.9021 7.09072 13.8639 5.64934 17.5174 5.64934C21.171 5.64934 24.1327 7.09072 24.1327 10.9175C24.1327 14.7443 21.171 20.6792 17.5174 20.6792Z"
            fill="#DDCDB6" />
        <path
            d="M25.9321 11.777C25.9321 11.777 25.5854 13.8572 24.0859 15.2364C24.0859 15.2364 25.1395 12.6686 24.4461 11.2817"
            fill="#2B2B2B" />
        <path
            d="M9.10645 11.777C9.10645 11.777 9.45315 13.8572 10.9526 15.2364C10.9526 15.2364 9.89898 12.6686 10.5924 11.2817"
            fill="#2B2B2B" />
        <path
            d="M27.0955 9.346H7.9375L8.48862 4.00525C8.7305 2.39307 10.0261 1.14506 11.6461 0.963561L17.4777 0.310059L23.3836 0.966004C25.0051 1.1461 26.3026 2.3947 26.5447 4.00816L27.0955 9.346Z"
            fill="#A8AFB2" />
        <path
            d="M25.2359 9.3146L9.83594 9.37789L10.257 4.03528C10.4448 2.4224 11.481 1.16997 12.7826 0.983118L17.4676 0.310303L22.2178 0.946702C23.522 1.12145 24.57 2.36575 24.7713 3.97838L25.2359 9.3146Z"
            fill="#BDC3C7" />
        <path
            d="M17.5164 10.7118C20.4976 10.7118 23.4586 12.4915 24.8754 13.4817C25.3348 13.8028 25.9078 13.5202 26.0847 12.8875L27.076 9.34044C23.1398 5.84979 17.5164 5.8997 17.5164 5.8997C17.5164 5.8997 11.8736 5.84979 7.9375 9.34044L8.92945 12.8896C9.10606 13.5216 9.67823 13.8045 10.1376 13.4846C11.5582 12.495 14.5322 10.7118 17.5164 10.7118Z"
            fill="#6E7172" />
        <path
            d="M17.5176 0.775547C18.0423 0.775547 18.4677 0.601935 18.4677 0.387773C18.4677 0.173612 18.0423 0 17.5176 0C16.9928 0 16.5674 0.173612 16.5674 0.387773C16.5674 0.601935 16.9928 0.775547 17.5176 0.775547Z"
            fill="#6E7172" />
    </g>
    <defs>
        <clipPath id="clip0_678_10158">
            <rect width="35" height="35" fill="white" />
        </clipPath>
    </defs>
</svg>