<svg width="20" height="20" viewBox="0 0 20 20" fill="none" xmlns="http://www.w3.org/2000/svg">
<path d="M3.33333 15.0003C3.33333 14.1163 3.68452 13.2684 4.30964 12.6433C4.93476 12.0182 5.78261 11.667 6.66666 11.667H13.3333C14.2174 11.667 15.0652 12.0182 15.6903 12.6433C16.3155 13.2684 16.6667 14.1163 16.6667 15.0003C16.6667 15.4424 16.4911 15.8663 16.1785 16.1788C15.8659 16.4914 15.442 16.667 15 16.667H4.99999C4.55797 16.667 4.13404 16.4914 3.82148 16.1788C3.50892 15.8663 3.33333 15.4424 3.33333 15.0003Z" stroke="black" stroke-width="0.8" stroke-linejoin="round"/>
<path d="M10 8.3335C11.3807 8.3335 12.5 7.21421 12.5 5.8335C12.5 4.45278 11.3807 3.3335 10 3.3335C8.61929 3.3335 7.5 4.45278 7.5 5.8335C7.5 7.21421 8.61929 8.3335 10 8.3335Z" stroke="black" stroke-width="0.8"/>
</svg>
