<svg width="20" height="20" viewBox="0 0 20 20" fill="none" xmlns="http://www.w3.org/2000/svg">
<path d="M17.2484 12.6662L13.5594 11.0154C13.4164 10.9536 13.2602 10.9283 13.1049 10.9419C12.9497 10.9556 12.8003 11.0077 12.6703 11.0936C12.6599 11.1002 12.65 11.1075 12.6406 11.1154L10.7031 12.767C10.66 12.7933 10.6111 12.8086 10.5606 12.8114C10.5102 12.8143 10.4599 12.8047 10.4141 12.7834C9.14531 12.1709 7.83203 10.8678 7.21952 9.61388C7.19786 9.56841 7.1878 9.51828 7.19026 9.46797C7.19271 9.41767 7.2076 9.36875 7.23359 9.3256L8.88984 7.35607C8.89765 7.3467 8.90468 7.33654 8.91171 7.32638C8.99733 7.19654 9.0493 7.04744 9.06294 6.89251C9.07658 6.73758 9.05145 6.58169 8.98984 6.43888L7.33593 2.75607C7.25609 2.56955 7.11788 2.41396 6.94207 2.31267C6.76627 2.21138 6.56235 2.16987 6.36093 2.19435C5.37778 2.32398 4.47544 2.80706 3.82244 3.55337C3.16944 4.29967 2.81044 5.25817 2.81249 6.24982C2.81249 12.2811 7.71874 17.1873 13.75 17.1873C14.7416 17.1894 15.7001 16.8304 16.4464 16.1774C17.1928 15.5244 17.6758 14.622 17.8055 13.6389C17.8298 13.4384 17.7887 13.2354 17.6883 13.0601C17.5879 12.8849 17.4337 12.7467 17.2484 12.6662ZM17.1875 13.5608C17.0772 14.3934 16.6674 15.1573 16.0347 15.7097C15.4021 16.2621 14.5899 16.5652 13.75 16.5623C8.06406 16.5623 3.43749 11.9358 3.43749 6.24982C3.43458 5.40994 3.73767 4.59774 4.29009 3.96509C4.84251 3.33244 5.60644 2.92264 6.43906 2.81232C6.45154 2.81155 6.46407 2.81155 6.47656 2.81232C6.53821 2.81285 6.59833 2.8316 6.64934 2.86621C6.70036 2.90083 6.74 2.94976 6.76327 3.00685L8.41249 6.68967C8.43174 6.73468 8.44014 6.78358 8.43701 6.83243C8.43389 6.88128 8.41934 6.92872 8.39452 6.97092L6.73906 8.93967C6.73124 8.94982 6.72343 8.9592 6.7164 8.97013C6.6282 9.10501 6.57626 9.26034 6.56559 9.42113C6.55491 9.58193 6.58587 9.74276 6.65546 9.8881C7.33437 11.2779 8.73437 12.6678 10.1398 13.3467C10.2862 13.4158 10.4479 13.4459 10.6093 13.434C10.7707 13.4221 10.9263 13.3686 11.0609 13.2787L11.0898 13.2569L13.0297 11.6069C13.0712 11.5815 13.1181 11.5664 13.1666 11.5627C13.2151 11.559 13.2637 11.5669 13.3086 11.5858L16.9969 13.2389C17.0591 13.2648 17.1113 13.3101 17.1457 13.3681C17.18 13.4262 17.1947 13.4937 17.1875 13.5608Z" fill="black"/>
</svg>
