<svg
    xmlns="http://www.w3.org/2000/svg"
    width='24'
    height='24'
    viewBox="0 0 24 24"
    fill="none"
>
    <path
        d="M3.90453 11.9998C3.90453 13.0111 4.0762 13.9744 4.41953 14.8898C4.76353 15.8038 5.27586 16.6358 5.95653 17.3858C6.0512 17.4884 6.10286 17.6001 6.11153 17.7208C6.1202 17.8414 6.07486 17.9511 5.97553 18.0498C5.8762 18.1484 5.76253 18.1864 5.63453 18.1638C5.50653 18.1411 5.39253 18.0761 5.29253 17.9688C4.52986 17.1114 3.96053 16.1914 3.58453 15.2088C3.20786 14.2254 3.01953 13.1558 3.01953 11.9998C3.01953 10.8438 3.20786 9.77409 3.58453 8.79076C3.9612 7.80743 4.53053 6.88743 5.29253 6.03076C5.39186 5.92409 5.50586 5.86009 5.63453 5.83876C5.7632 5.81743 5.87686 5.85643 5.97553 5.95576C6.0742 6.05509 6.11953 6.16376 6.11153 6.28176C6.10353 6.39976 6.05186 6.51009 5.95653 6.61276C5.27586 7.36276 4.76353 8.19509 4.41953 9.10976C4.0762 10.0251 3.90453 10.9884 3.90453 11.9998ZM6.67353 11.9998C6.67353 12.6844 6.78553 13.3091 7.00953 13.8738C7.23286 14.4384 7.53886 14.9604 7.92753 15.4398C8.00953 15.5464 8.05386 15.6581 8.06053 15.7748C8.0672 15.8914 8.02086 15.9991 7.92153 16.0978C7.8222 16.1964 7.7112 16.2384 7.58853 16.2238C7.46586 16.2091 7.36353 16.1504 7.28153 16.0478C6.7982 15.4611 6.42853 14.8384 6.17253 14.1798C5.91653 13.5211 5.78853 12.7944 5.78853 11.9998C5.78853 11.2051 5.91653 10.4784 6.17253 9.81976C6.42853 9.16109 6.7982 8.53843 7.28153 7.95176C7.36353 7.84909 7.46586 7.79043 7.58853 7.77576C7.71186 7.76109 7.82286 7.80309 7.92153 7.90176C8.0202 8.00043 8.0662 8.10809 8.05953 8.22476C8.05286 8.34143 8.00886 8.45309 7.92753 8.55976C7.53886 9.03909 7.23286 9.56109 7.00953 10.1258C6.7862 10.6904 6.6742 11.3151 6.67353 11.9998ZM11.2695 16.1918C11.2055 15.6931 11.0539 15.2531 10.8145 14.8718C10.5759 14.4904 10.3239 14.1214 10.0585 13.7648C9.79253 13.4074 9.5562 13.0401 9.34953 12.6628C9.14286 12.2854 9.03953 11.8594 9.03953 11.3848C9.03953 10.5714 9.32953 9.87476 9.90953 9.29476C10.4909 8.71343 11.1879 8.42276 12.0005 8.42276C12.8132 8.42276 13.5099 8.71309 14.0905 9.29376C14.6719 9.87509 14.9625 10.5718 14.9625 11.3838C14.9625 11.8584 14.8589 12.2814 14.6515 12.6528C14.4449 13.0241 14.2085 13.3914 13.9425 13.7548C13.6765 14.1181 13.4245 14.4904 13.1865 14.8718C12.9485 15.2531 12.7969 15.6931 12.7315 16.1918H11.2695ZM11.3085 17.9998V17.5768H12.6925V17.9998C12.6925 18.1931 12.6259 18.3568 12.4925 18.4908C12.3585 18.6248 12.1945 18.6918 12.0005 18.6918C11.8065 18.6918 11.6429 18.6251 11.5095 18.4918C11.3762 18.3584 11.3092 18.1944 11.3085 17.9998ZM17.3655 11.9998C17.3655 11.3151 17.2539 10.6904 17.0305 10.1258C16.8065 9.56109 16.5002 9.03909 16.1115 8.55976C16.0295 8.45309 15.9855 8.34143 15.9795 8.22476C15.9735 8.10809 16.0195 8.00043 16.1175 7.90176C16.2155 7.80309 16.3265 7.76109 16.4505 7.77576C16.5745 7.79043 16.6772 7.84909 16.7585 7.95176C17.2419 8.53843 17.6112 9.16109 17.8665 9.81976C18.1219 10.4784 18.2499 11.2051 18.2505 11.9998C18.2512 12.7944 18.1232 13.5211 17.8665 14.1798C17.6112 14.8378 17.2419 15.4604 16.7585 16.0478C16.6765 16.1504 16.5739 16.2091 16.4505 16.2238C16.3279 16.2384 16.2169 16.1964 16.1175 16.0978C16.0189 15.9991 15.9729 15.8914 15.9795 15.7748C15.9862 15.6581 16.0305 15.5464 16.1125 15.4398C16.5005 14.9604 16.8065 14.4384 17.0305 13.8738C17.2545 13.3091 17.3655 12.6844 17.3655 11.9998ZM20.1355 11.9998C20.1355 10.9884 19.9635 10.0251 19.6195 9.10976C19.2762 8.19509 18.7642 7.36276 18.0835 6.61276C17.9889 6.51009 17.9372 6.39876 17.9285 6.27876C17.9199 6.15876 17.9652 6.04909 18.0645 5.94976C18.1639 5.85043 18.2772 5.81243 18.4045 5.83576C18.5339 5.85909 18.6479 5.92409 18.7465 6.03076C19.4965 6.88809 20.0632 7.80809 20.4465 8.79076C20.8285 9.77343 21.0195 10.8431 21.0195 11.9998C21.0195 13.1564 20.8282 14.2261 20.4455 15.2088C20.0629 16.1914 19.4965 17.1114 18.7465 17.9688C18.6479 18.0754 18.5342 18.1391 18.4055 18.1598C18.2769 18.1804 18.1632 18.1418 18.0645 18.0438C17.9659 17.9458 17.9205 17.8371 17.9285 17.7178C17.9365 17.5984 17.9882 17.4878 18.0835 17.3858C18.7635 16.6358 19.2755 15.8034 19.6195 14.8888C19.9635 13.9741 20.1355 13.0111 20.1355 11.9998Z"
        fill="currentColor"
    />
</svg>