<svg width="28" height="28" viewBox="0 0 28 28" fill="none" xmlns="http://www.w3.org/2000/svg">
<path d="M25.084 23.6369L20.9102 19.4969C22.5303 17.4768 23.3149 14.9128 23.1026 12.3321C22.8904 9.75134 21.6974 7.35 19.7689 5.62185C17.8405 3.89369 15.3233 2.97007 12.7348 3.0409C10.1463 3.11173 7.68329 4.17163 5.85227 6.00266C4.02124 7.83368 2.96134 10.2967 2.89051 12.8852C2.81968 15.4737 3.7433 17.9909 5.47146 19.9193C7.19961 21.8478 9.60095 23.0408 12.1817 23.253C14.7624 23.4653 17.3264 22.6807 19.3465 21.0606L23.4865 25.2006C23.5911 25.3061 23.7155 25.3898 23.8526 25.4469C23.9897 25.504 24.1367 25.5334 24.2852 25.5334C24.4337 25.5334 24.5808 25.504 24.7179 25.4469C24.855 25.3898 24.9794 25.3061 25.084 25.2006C25.2868 24.9908 25.4001 24.7105 25.4001 24.4187C25.4001 24.127 25.2868 23.8466 25.084 23.6369ZM13.0352 21.0606C11.4777 21.0606 9.95515 20.5988 8.66012 19.7334C7.36508 18.8681 6.35572 17.6382 5.75968 16.1993C5.16364 14.7603 5.00769 13.1769 5.31155 11.6493C5.61541 10.1217 6.36543 8.7185 7.46677 7.61716C8.5681 6.51582 9.9713 5.7658 11.4989 5.46194C13.0265 5.15808 14.6099 5.31403 16.0489 5.91007C17.4878 6.50611 18.7177 7.51547 19.5831 8.81051C20.4484 10.1055 20.9102 11.6281 20.9102 13.1856C20.9102 15.2742 20.0805 17.2772 18.6037 18.7541C17.1268 20.2309 15.1238 21.0606 13.0352 21.0606Z" fill="#626262"/>
</svg>
