<svg width="28" height="27" viewBox="0 0 28 27" fill="none" xmlns="http://www.w3.org/2000/svg">
<path d="M24.9238 22.8263L20.7501 18.6863C22.3702 16.6663 23.1548 14.1023 22.9425 11.5215C22.7302 8.94079 21.5372 6.53946 19.6088 4.8113C17.6804 3.08314 15.1631 2.15952 12.5746 2.23035C9.98612 2.30119 7.52314 3.36108 5.69211 5.19211C3.86108 7.02314 2.80119 9.48612 2.73035 12.0746C2.65952 14.6631 3.58314 17.1804 5.3113 19.1088C7.03946 21.0372 9.44079 22.2302 12.0215 22.4425C14.6023 22.6548 17.1663 21.8702 19.1863 20.2501L23.3263 24.3901C23.4309 24.4955 23.5553 24.5792 23.6924 24.6363C23.8295 24.6934 23.9766 24.7228 24.1251 24.7228C24.2736 24.7228 24.4206 24.6934 24.5577 24.6363C24.6948 24.5792 24.8192 24.4955 24.9238 24.3901C25.1266 24.1803 25.2399 23.9 25.2399 23.6082C25.2399 23.3164 25.1266 23.0361 24.9238 22.8263ZM12.8751 20.2501C11.3175 20.2501 9.795 19.7882 8.49996 18.9229C7.20492 18.0576 6.19556 16.8277 5.59952 15.3887C5.00348 13.9497 4.84753 12.3663 5.15139 10.8387C5.45525 9.31114 6.20527 7.90795 7.30661 6.80661C8.40795 5.70527 9.81114 4.95525 11.3387 4.65139C12.8663 4.34753 14.4497 4.50348 15.8887 5.09952C17.3277 5.69556 18.5576 6.70492 19.4229 7.99996C20.2882 9.295 20.7501 10.8175 20.7501 12.3751C20.7501 14.4637 19.9204 16.4667 18.4435 17.9435C16.9667 19.4204 14.9637 20.2501 12.8751 20.2501Z" fill="white"/>
</svg>
