<svg width="20" height="20" viewBox="0 0 20 20" fill="none" xmlns="http://www.w3.org/2000/svg">
<path d="M15.0017 17.9163C14.424 17.9163 13.932 17.7136 13.5259 17.308C13.1198 16.9036 12.9167 16.4119 12.9167 15.833C12.9167 15.7219 12.9262 15.6072 12.9451 15.4888C12.9645 15.37 12.9934 15.258 13.0317 15.153L6.58008 11.3522C6.37619 11.5822 6.13897 11.7613 5.86841 11.8897C5.59786 12.018 5.30841 12.0825 5.00008 12.083C4.42119 12.083 3.92953 11.8808 3.52508 11.4763C3.11953 11.0713 2.91675 10.5797 2.91675 10.0013C2.91675 9.42301 3.11953 8.93106 3.52508 8.52551C3.93064 8.11995 4.4223 7.9169 5.00008 7.91634C5.30897 7.91634 5.59841 7.98079 5.86841 8.10968C6.13841 8.23856 6.37564 8.41773 6.58008 8.64718L13.0326 4.84551C12.9937 4.74106 12.9648 4.6294 12.9459 4.51051C12.9265 4.39217 12.9167 4.27745 12.9167 4.16634C12.9167 3.58745 13.1192 3.09579 13.5242 2.69134C13.9287 2.28579 14.4201 2.08301 14.9984 2.08301C15.5767 2.08301 16.0687 2.28551 16.4742 2.69051C16.8798 3.09551 17.0829 3.5869 17.0834 4.16467C17.084 4.74245 16.8812 5.2344 16.4751 5.64051C16.0712 6.04662 15.5795 6.24967 15.0001 6.24967C14.6912 6.24967 14.4017 6.18523 14.1317 6.05634C13.8617 5.92745 13.6245 5.74829 13.4201 5.51884L6.96842 9.32051C7.00675 9.42495 7.03536 9.53606 7.05425 9.65384C7.07369 9.77218 7.08342 9.88634 7.08342 9.99634C7.08342 10.1063 7.07369 10.2216 7.05425 10.3422C7.0348 10.4627 7.00592 10.5752 6.96758 10.6797L13.4201 14.4805C13.624 14.2511 13.8612 14.0719 14.1317 13.943C14.4023 13.8141 14.6917 13.7497 15.0001 13.7497C15.579 13.7497 16.0706 13.9522 16.4751 14.3572C16.8806 14.7616 17.0834 15.253 17.0834 15.8313C17.0834 16.4097 16.8812 16.9016 16.4767 17.3072C16.0723 17.7127 15.5806 17.9158 15.0017 17.9163Z" fill="white"/>
</svg>
