<svg width="21" height="21" viewBox="0 0 21 21" fill="none" xmlns="http://www.w3.org/2000/svg">
<g clip-path="url(#clip0_1575_2390)">
<path d="M15.1389 0.870117C14.3514 0.870117 13.6541 1.30611 13.1742 1.9558C12.6944 2.60549 12.4114 3.47461 12.4114 4.42945C12.4114 5.29488 12.6451 6.09059 13.0471 6.71402C12.8133 6.77965 12.5959 6.87398 12.395 6.98473C11.9766 6.63609 11.468 6.42691 10.9225 6.42691C10.1309 6.42691 9.43362 6.86168 8.95374 7.50973C8.76097 7.77223 8.60101 8.06754 8.47796 8.39156C8.28108 8.29313 8.0719 8.2152 7.84222 8.16187C8.22776 7.54254 8.44925 6.76324 8.44925 5.91832C8.44925 4.96676 8.16624 4.096 7.68636 3.44631C7.20647 2.79662 6.50921 2.35939 5.72171 2.35939C4.93421 2.35939 4.23694 2.79662 3.75542 3.44631C3.27595 4.096 2.99417 4.96676 2.99417 5.91832C2.99417 6.78375 3.22755 7.57945 3.62868 8.20699C2.31331 8.58023 1.56601 9.72867 1.19071 11.0781C0.78917 12.5218 0.744873 14.2486 0.744873 15.8195V16.205H2.61108L2.88917 20.2779H3.65821L3.35962 15.9097L3.19145 12.6285L2.42651 12.6695L2.56884 15.438H1.51638C1.52622 13.9943 1.59718 12.4808 1.93022 11.2873C2.29034 9.99117 2.88671 9.12164 4.03228 8.90016L4.22464 8.89605C4.6471 9.25699 5.1639 9.47848 5.72171 9.47848C6.30003 9.47848 6.82503 9.24469 7.25569 8.86324H7.44437C7.76429 8.91246 8.03499 9.0068 8.26878 9.13805C8.21956 9.40875 8.19085 9.69176 8.19085 9.98297C8.19085 10.8484 8.42464 11.6441 8.82659 12.2716C7.50999 12.6449 6.76351 13.7974 6.39026 15.1427C5.98831 16.5865 5.94319 18.3132 5.94319 19.8841V20.2697C6.83323 20.2574 7.69866 20.2779 8.5805 20.2779L8.55999 19.9785L8.39183 16.6972L7.62483 16.7341L7.76429 19.5027H6.71429C6.72659 18.0589 6.79632 16.5455 7.12854 15.3519C7.48538 14.0558 8.08421 13.1904 9.22444 12.9648L9.42542 12.9607C9.84788 13.3216 10.3606 13.5431 10.9184 13.5431C11.4967 13.5431 12.0258 13.3093 12.4565 12.9279H12.6369C13.2686 13.0263 13.7075 13.2929 14.052 13.6908C14.4006 14.0886 14.6467 14.6423 14.8108 15.2986C15.1102 16.5086 15.1266 18.0425 15.1266 19.5027H14.1668L14.3104 16.7341L13.5434 16.6972L13.3711 20.0605L13.3588 20.2779C14.2119 20.2779 15.1348 20.2656 15.8977 20.2697V19.8841C15.8977 18.3214 15.9182 16.5783 15.5532 15.114C15.3727 14.3839 15.0897 13.7154 14.6344 13.1863C14.2366 12.731 13.7033 12.3906 13.043 12.2265C13.4285 11.6072 13.6459 10.8279 13.6459 9.98297C13.6459 9.06012 13.3834 8.21109 12.9282 7.57125C13.0881 7.49742 13.2604 7.4441 13.4491 7.40719H13.6418C14.0643 7.76813 14.5811 7.98961 15.1389 7.98961C15.7172 7.98961 16.2463 7.75172 16.6729 7.37437L16.8616 7.37027C17.4932 7.47281 17.928 7.73531 18.2725 8.13316C18.6211 8.53512 18.8672 9.08883 19.0313 9.74508C19.3307 10.9509 19.3471 12.4849 19.3471 13.9451H18.3873L18.5309 11.1806L17.7639 11.1396L17.5957 14.4086L17.243 20.2779H18.01L18.3463 14.7121H20.1141V14.3306C20.1141 12.7638 20.1387 11.0207 19.7737 9.56051C19.5891 8.82633 19.3061 8.15777 18.8508 7.63277C18.4571 7.1734 17.9239 6.83297 17.2594 6.66891C17.645 6.04957 17.8664 5.27437 17.8664 4.42945C17.8664 3.47461 17.5834 2.60549 17.1035 1.9558C16.6278 1.32867 15.8116 0.884062 15.1389 0.870117ZM15.1389 1.6367C15.6475 1.6367 16.1192 1.91109 16.4883 2.41066C16.8575 2.91064 17.0994 3.6276 17.0994 4.42945C17.0994 5.22926 16.8575 5.94703 16.4883 6.44742C16.1192 6.94781 15.6475 7.22262 15.1389 7.22262C14.6344 7.22262 14.1586 6.94781 13.7895 6.44742C13.4203 5.94703 13.1783 5.22926 13.1783 4.42945C13.1783 3.6276 13.4203 2.91064 13.7895 2.41066C14.1586 1.91109 14.6344 1.6367 15.1389 1.6367ZM5.72171 3.12598C6.2303 3.12598 6.70198 3.4016 7.07112 3.90117C7.44026 4.40074 7.68226 5.11852 7.68226 5.91832C7.68226 6.71812 7.44026 7.4359 7.07112 7.93629C6.70198 8.43668 6.2303 8.71148 5.72171 8.71148C5.21312 8.71148 4.74144 8.43668 4.37229 7.93629C4.00438 7.4359 3.76075 6.71812 3.76075 5.91832C3.76075 5.11852 4.00438 4.40074 4.37229 3.90158C4.74144 3.4016 5.21312 3.12598 5.72171 3.12598ZM13.8346 4.04227V4.8068H14.7575V4.04227H13.8346ZM15.5203 4.04227V4.8068H16.4432V4.04227H15.5203ZM4.41741 5.53277V6.29977H5.34026V5.53277H4.41741ZM6.10315 5.53277V6.29977H7.02601V5.53277H6.10315ZM10.9225 7.1898C11.427 7.1898 11.8987 7.46461 12.2678 7.965C12.6369 8.46539 12.883 9.18316 12.883 9.98297C12.883 10.7869 12.6369 11.5005 12.2678 12.0009C11.8987 12.5013 11.427 12.7761 10.9225 12.7761C10.4139 12.7761 9.93812 12.5013 9.56897 12.0009C9.20394 11.5005 8.95784 10.7869 8.95784 9.98297C8.95784 9.18316 9.20394 8.46539 9.56897 7.965C9.93812 7.46461 10.4139 7.1898 10.9225 7.1898ZM9.61819 9.59742V10.3644H10.5369V9.59742H9.61819ZM11.3039 9.59742V10.3644H12.2227V9.59742H11.3039Z" fill="black"/>
</g>
<defs>
<clipPath id="clip0_1575_2390">
<rect width="21" height="21" fill="white"/>
</clipPath>
</defs>
</svg>
