<svg width="21" height="21" viewBox="0 0 21 21" fill="none" xmlns="http://www.w3.org/2000/svg">
<path d="M11.1619 2.93457H9.83801C9.27575 2.93457 8.81995 3.39037 8.81995 3.95263V17.0479C8.81995 17.6101 9.27575 18.0659 9.83801 18.0659H11.1619C11.7241 18.0659 12.1799 17.6101 12.1799 17.0479V3.95263C12.1799 3.39037 11.7241 2.93457 11.1619 2.93457Z" stroke="black" stroke-linecap="round" stroke-linejoin="round"/>
<path d="M17.1386 11.3965H15.8147C15.2524 11.3965 14.7966 11.8523 14.7966 12.4145V17.0477C14.7966 17.6099 15.2524 18.0657 15.8147 18.0657H17.1386C17.7008 18.0657 18.1566 17.6099 18.1566 17.0477V12.4145C18.1566 11.8523 17.7008 11.3965 17.1386 11.3965Z" stroke="black" stroke-linecap="round" stroke-linejoin="round"/>
<path d="M5.18569 7.25H3.86181C3.29955 7.25 2.84375 7.7058 2.84375 8.26806V17.0474C2.84375 17.6096 3.29955 18.0654 3.86181 18.0654H5.18569C5.74795 18.0654 6.20375 17.6096 6.20375 17.0474V8.26806C6.20375 7.7058 5.74795 7.25 5.18569 7.25Z" stroke="black" stroke-linecap="round" stroke-linejoin="round"/>
</svg>
