<svg width="30" height="30" viewBox="0 0 30 30" fill="none" xmlns="http://www.w3.org/2000/svg">
<path d="M15.9452 4.19189H14.054C13.2508 4.19189 12.5996 4.84304 12.5996 5.64627V24.3538C12.5996 25.157 13.2508 25.8081 14.054 25.8081H15.9452C16.7485 25.8081 17.3996 25.157 17.3996 24.3538V5.64627C17.3996 4.84304 16.7485 4.19189 15.9452 4.19189Z" stroke="black" stroke-linecap="round" stroke-linejoin="round"/>
<path d="M24.4833 16.2805H22.5921C21.7888 16.2805 21.1377 16.9317 21.1377 17.7349V24.3536C21.1377 25.1569 21.7888 25.808 22.5921 25.808H24.4833C25.2866 25.808 25.9377 25.1569 25.9377 24.3536V17.7349C25.9377 16.9317 25.2866 16.2805 24.4833 16.2805Z" stroke="black" stroke-linecap="round" stroke-linejoin="round"/>
<path d="M7.40812 10.3574H5.51687C4.71365 10.3574 4.0625 11.0086 4.0625 11.8118V24.3537C4.0625 25.1569 4.71365 25.808 5.51687 25.808H7.40812C8.21135 25.808 8.8625 25.1569 8.8625 24.3537V11.8118C8.8625 11.0086 8.21135 10.3574 7.40812 10.3574Z" stroke="black" stroke-linecap="round" stroke-linejoin="round"/>
</svg>
