<svg width="20" height="20" viewBox="0 0 20 20" fill="none" xmlns="http://www.w3.org/2000/svg">
<g clip-path="url(#clip0_595_5400)">
<path d="M11.93 7.58155C11.8153 7.25645 11.6025 6.97496 11.3211 6.77589C11.0396 6.57682 10.7033 6.46999 10.3586 6.47012H9.06858C8.70055 6.46819 8.34488 6.6028 8.07035 6.84791C7.79582 7.09302 7.62192 7.43122 7.5823 7.79712C7.54267 8.16301 7.64012 8.5306 7.85581 8.8288C8.0715 9.127 8.3901 9.33464 8.75001 9.41155L10.7143 9.84012C11.1159 9.92805 11.4709 10.1613 11.711 10.4951C11.9512 10.8288 12.0595 11.2395 12.0152 11.6483C11.9709 12.0571 11.7771 12.435 11.4711 12.7096C11.165 12.9842 10.7683 13.136 10.3572 13.1358H9.24715C8.52144 13.1358 7.90429 12.673 7.67572 12.0258M9.80286 6.47012V4.80298M9.80286 14.803V13.1373M2.85429 19.283V15.7116H6.42572" stroke="black" stroke-linecap="round" stroke-linejoin="round"/>
<path d="M19.1257 8.29153C19.505 10.3133 19.2022 12.4037 18.2649 14.2347C17.3276 16.0658 15.8088 17.5338 13.947 18.4083C12.0851 19.2828 9.98562 19.5144 7.97795 19.0666C5.97028 18.6189 4.1681 17.5171 2.85429 15.9344M0.874287 11.7087C0.495037 9.68695 0.797825 7.59651 1.73513 5.76547C2.67243 3.93444 4.19119 2.46646 6.05303 1.59193C7.91486 0.717407 10.0144 0.485848 12.0221 0.933599C14.0297 1.38135 15.8319 2.48306 17.1457 4.06582" stroke="black" stroke-linecap="round" stroke-linejoin="round"/>
<path d="M17.1457 0.717285V4.28871H13.5743" stroke="black" stroke-linecap="round" stroke-linejoin="round"/>
</g>
<defs>
<clipPath id="clip0_595_5400">
<rect width="20" height="20" fill="white"/>
</clipPath>
</defs>
</svg>
