<svg width="21" height="21" viewBox="0 0 21 21" fill="none" xmlns="http://www.w3.org/2000/svg">
<path d="M13.125 16.625L11.9 15.3781L15.0281 12.25H6.5625C5.46875 12.25 4.53921 11.8673 3.77388 11.102C3.00854 10.3367 2.62558 9.40683 2.625 8.3125C2.62442 7.21817 3.00738 6.28863 3.77388 5.52388C4.54038 4.75913 5.46992 4.37617 6.5625 4.375H7V6.125H6.5625C5.95 6.125 5.43229 6.33646 5.00938 6.75938C4.58646 7.18229 4.375 7.7 4.375 8.3125C4.375 8.925 4.58646 9.44271 5.00938 9.86562C5.43229 10.2885 5.95 10.5 6.5625 10.5H15.0281L11.9 7.35L13.125 6.125L18.375 11.375L13.125 16.625Z" fill="#504F4F"/>
</svg>
