<svg width="58" height="58" viewBox="0 0 58 58" fill="none" xmlns="http://www.w3.org/2000/svg">
<path d="M18.5782 54.1027L24.922 47.5777C22.6563 47.1246 20.572 46.2184 18.6688 44.9496L18.5782 54.1027ZM39.422 3.89648L33.0782 10.4215C35.3439 10.8746 37.4282 11.7809 39.3314 13.0496L39.422 3.89648ZM3.89697 39.4215L13.0501 39.3309C11.7813 37.4277 10.8751 35.3434 10.422 33.0777L3.89697 39.4215ZM54.1032 18.5777L44.9501 18.6684C46.1282 20.5715 47.0345 22.6559 47.5782 24.9215L54.1032 18.5777ZM3.89697 18.5777L10.422 24.9215C10.8751 22.6559 11.7813 20.5715 13.0501 18.6684L3.89697 18.5777ZM54.1032 39.4215L47.5782 33.0777C47.1251 35.3434 46.2188 37.4277 44.9501 39.3309L54.1032 39.4215ZM18.5782 3.89648L18.6688 13.0496C20.572 11.8715 22.6563 10.9652 24.922 10.4215L18.5782 3.89648ZM39.422 54.1027L39.3314 44.9496C37.4282 46.2184 35.3439 47.1246 33.0782 47.5777L39.422 54.1027Z" fill="#FFE62E"/>
<path d="M13.4125 39.875L9.7875 48.3031L18.2156 44.6781C16.3125 43.3187 14.6813 41.6875 13.4125 39.875ZM44.5875 18.125L48.2125 9.69687L39.875 13.3219C41.6875 14.6812 43.3188 16.3125 44.5875 18.125ZM10.3312 25.6469L1.8125 29L10.3312 32.3531C10.0594 31.2656 9.96875 30.1781 9.96875 29C9.96875 27.8219 10.0594 26.7344 10.3312 25.6469ZM47.6687 32.3531L56.1875 29L47.6687 25.6469C47.85 26.7344 48.0312 27.9125 48.0312 29C48.0312 30.1781 47.9406 31.2656 47.6687 32.3531ZM18.125 13.4125L9.69687 9.7875L13.3219 18.2156C14.6812 16.3125 16.3125 14.6813 18.125 13.4125ZM39.875 44.5875L48.3031 48.2125L44.6781 39.7844C43.3187 41.6875 41.6875 43.3188 39.875 44.5875ZM32.3531 10.3312L29 1.8125L25.6469 10.3312C26.7344 10.15 27.9125 9.96875 29 9.96875C30.0875 9.96875 31.2656 10.0594 32.3531 10.3312ZM25.6469 47.6687L29 56.1875L32.3531 47.6687C31.2656 47.9406 30.1781 48.0312 29 48.0312C27.8219 48.0312 26.7344 47.9406 25.6469 47.6687Z" fill="#FFCE31"/>
<path d="M29 46.2188C38.5097 46.2188 46.2188 38.5097 46.2188 29C46.2188 19.4903 38.5097 11.7812 29 11.7812C19.4903 11.7812 11.7812 19.4903 11.7812 29C11.7812 38.5097 19.4903 46.2188 29 46.2188Z" fill="#FFCE31"/>
</svg>
