<svg width="30" height="30" viewBox="0 0 30 30" fill="none" xmlns="http://www.w3.org/2000/svg">
<path d="M17.8852 17.5576L15.0577 20.3851C14.856 20.5867 14.6285 20.6876 14.3752 20.6876C14.1219 20.6876 13.8944 20.5867 13.6927 20.3851L3.74021 10.4326C3.53854 10.2309 3.42979 10.0138 3.41396 9.78131C3.39729 9.54881 3.49313 9.32881 3.70146 9.12131L6.60771 6.21506C6.81521 6.00756 7.03188 5.90381 7.25771 5.90381C7.48271 5.90381 7.69646 6.00464 7.89896 6.20631L17.909 16.2163C18.1106 16.418 18.2077 16.6417 18.2002 16.8876C18.1919 17.1326 18.0869 17.3559 17.8852 17.5576ZM14.3752 19.2976L16.7977 16.8751L7.25021 7.32756L4.82771 9.75006L14.3752 19.2976ZM22.8077 26.1926L17.8415 21.2263L18.7265 20.3413L23.6927 25.3076C23.8094 25.4242 23.8719 25.5676 23.8802 25.7376C23.8885 25.9076 23.826 26.0592 23.6927 26.1926C23.5594 26.3259 23.4119 26.3926 23.2502 26.3926C23.0885 26.3926 22.941 26.3259 22.8077 26.1926Z" fill="black"/>
<path d="M12.1128 17.5576L14.9403 20.3851C15.142 20.5867 15.3695 20.6876 15.6228 20.6876C15.8762 20.6876 16.1037 20.5867 16.3053 20.3851L26.2578 10.4326C26.4595 10.2309 26.5683 10.0138 26.5841 9.78131C26.6008 9.54881 26.5049 9.32881 26.2966 9.12131L23.3903 6.21506C23.1828 6.00756 22.9662 5.90381 22.7403 5.90381C22.5153 5.90381 22.3016 6.00464 22.0991 6.20631L12.0891 16.2163C11.8874 16.418 11.7903 16.6417 11.7978 16.8876C11.8062 17.1326 11.9112 17.3559 12.1128 17.5576ZM15.6228 19.2976L13.2003 16.8751L22.7478 7.32756L25.1703 9.75006L15.6228 19.2976ZM7.19034 26.1926L12.1566 21.2263L11.2716 20.3413L6.30534 25.3076C6.18867 25.4242 6.12617 25.5676 6.11784 25.7376C6.1095 25.9076 6.172 26.0592 6.30534 26.1926C6.43867 26.3259 6.58617 26.3926 6.74784 26.3926C6.9095 26.3926 7.057 26.3259 7.19034 26.1926Z" fill="black"/>
<path d="M18.5 7.7999C18.5 8.21801 18.2149 8.68196 17.5712 9.06821C16.9374 9.44849 16.0295 9.6999 15 9.6999C13.9705 9.6999 13.0626 9.44849 12.4288 9.06821C11.7851 8.68196 11.5 8.21801 11.5 7.7999C11.5 7.38179 11.7851 6.91784 12.4288 6.53159C13.0626 6.15132 13.9705 5.8999 15 5.8999C16.0295 5.8999 16.9374 6.15132 17.5712 6.53159C18.2149 6.91784 18.5 7.38179 18.5 7.7999Z" fill="#D9D9D9" stroke="black"/>
</svg>
