<svg width="21" height="21" viewBox="0 0 21 21" fill="none" xmlns="http://www.w3.org/2000/svg">
<path d="M7.35005 3.15039H3.15005C2.59309 3.15039 2.05895 3.37164 1.66512 3.76547C1.2713 4.15929 1.05005 4.69344 1.05005 5.25039V15.7504C1.05005 16.3073 1.2713 16.8415 1.66512 17.2353C2.05895 17.6291 2.59309 17.8504 3.15005 17.8504H7.35005C7.907 17.8504 8.44115 17.6291 8.83497 17.2353C9.2288 16.8415 9.45005 16.3073 9.45005 15.7504V5.25039C9.45005 4.69344 9.2288 4.15929 8.83497 3.76547C8.44115 3.37164 7.907 3.15039 7.35005 3.15039ZM3.15005 4.20039H7.35005C7.62853 4.20039 7.8956 4.31102 8.09251 4.50793C8.28942 4.70484 8.40005 4.97191 8.40005 5.25039V6.30039H2.10005V5.25039C2.10005 4.97191 2.21067 4.70484 2.40759 4.50793C2.6045 4.31102 2.87157 4.20039 3.15005 4.20039ZM7.35005 16.8004H3.15005C2.87157 16.8004 2.6045 16.6898 2.40759 16.4929C2.21067 16.2959 2.10005 16.0289 2.10005 15.7504V7.35039H8.40005V15.7504C8.40005 16.0289 8.28942 16.2959 8.09251 16.4929C7.8956 16.6898 7.62853 16.8004 7.35005 16.8004ZM17.85 3.15039H13.65C13.0931 3.15039 12.559 3.37164 12.1651 3.76547C11.7713 4.15929 11.55 4.69344 11.55 5.25039V15.7504C11.55 16.3073 11.7713 16.8415 12.1651 17.2353C12.559 17.6291 13.0931 17.8504 13.65 17.8504H17.85C18.407 17.8504 18.9411 17.6291 19.335 17.2353C19.7288 16.8415 19.95 16.3073 19.95 15.7504V5.25039C19.95 4.69344 19.7288 4.15929 19.335 3.76547C18.9411 3.37164 18.407 3.15039 17.85 3.15039ZM13.65 4.20039H17.85C18.1285 4.20039 18.3956 4.31102 18.5925 4.50793C18.7894 4.70484 18.9 4.97191 18.9 5.25039V10.5004H12.6V5.25039C12.6 4.97191 12.7107 4.70484 12.9076 4.50793C13.1045 4.31102 13.3716 4.20039 13.65 4.20039ZM17.85 16.8004H13.65C13.3716 16.8004 13.1045 16.6898 12.9076 16.4929C12.7107 16.2959 12.6 16.0289 12.6 15.7504V13.6504H18.9V15.7504C18.9 16.0289 18.7894 16.2959 18.5925 16.4929C18.3956 16.6898 18.1285 16.8004 17.85 16.8004Z" fill="#504F4F"/>
</svg>
