<svg width="21" height="21" viewBox="0 0 21 21" fill="none" xmlns="http://www.w3.org/2000/svg">
<path d="M6.97717 18.8981V14.3728C6.97717 14.0036 7.12387 13.6494 7.38499 13.3883C7.64611 13.1272 8.00026 12.9805 8.36954 12.9805V7.41098C8.36954 7.41098 7.32526 6.71479 5.5848 6.71479C3.84433 6.71479 2.80005 7.41098 2.80005 7.41098V12.9805C3.16933 12.9805 3.52348 13.1272 3.78461 13.3883C4.04573 13.6494 4.19242 14.0036 4.19242 14.3728V18.8981M5.48037 5.32242C5.48037 5.32242 4.36647 4.62623 4.36647 3.756C4.36647 3.43325 4.49468 3.12371 4.7229 2.89549C4.95112 2.66727 5.26065 2.53906 5.5834 2.53906C5.90616 2.53906 6.21569 2.66727 6.44391 2.89549C6.67213 3.12371 6.80034 3.43325 6.80034 3.756C6.80034 4.62623 5.68922 5.32242 5.68922 5.32242H5.48037Z" stroke="black" stroke-width="0.8"/>
<path d="M11.9367 18.8981V15.8251C11.9367 15.5743 12.0363 15.3338 12.2136 15.1565C12.3909 14.9792 12.6314 14.8796 12.8822 14.8796V11.0975C12.8822 11.0975 12.1731 10.6247 10.9912 10.6247C9.80924 10.6247 9.1001 11.0975 9.1001 11.0975V14.8796C9.35087 14.8796 9.59137 14.9792 9.76869 15.1565C9.94601 15.3338 10.0456 15.5743 10.0456 15.8251V18.8981M10.9202 9.67917C10.9202 9.67917 10.1638 9.20641 10.1638 8.61545C10.1638 8.39628 10.2509 8.18609 10.4059 8.03111C10.5608 7.87613 10.771 7.78906 10.9902 7.78906C11.2094 7.78906 11.4196 7.87613 11.5746 8.03111C11.7295 8.18609 11.8166 8.39628 11.8166 8.61545C11.8166 9.20641 11.0621 9.67917 11.0621 9.67917H10.9202Z" stroke="black" stroke-width="0.8"/>
<path d="M17.4772 18.8981V14.3728C17.4772 14.0036 17.6239 13.6494 17.885 13.3883C18.1461 13.1272 18.5003 12.9805 18.8695 12.9805V7.41098C18.8695 7.41098 17.8253 6.71479 16.0848 6.71479C14.3443 6.71479 13.3 7.41098 13.3 7.41098V12.9805C13.6693 12.9805 14.0235 13.1272 14.2846 13.3883C14.5457 13.6494 14.6924 14.0036 14.6924 14.3728V18.8981M15.9804 5.32242C15.9804 5.32242 14.8665 4.62623 14.8665 3.756C14.8665 3.43325 14.9947 3.12371 15.2229 2.89549C15.4511 2.66727 15.7607 2.53906 16.0834 2.53906C16.4062 2.53906 16.7157 2.66727 16.9439 2.89549C17.1721 3.12371 17.3003 3.43325 17.3003 3.756C17.3003 4.62623 16.1892 5.32242 16.1892 5.32242H15.9804Z" stroke="black" stroke-width="0.8"/>
</svg>
