<svg width="21" height="21" viewBox="0 0 21 21" fill="none" xmlns="http://www.w3.org/2000/svg">
<path d="M12.5195 12.2904L10.5402 14.2697C10.3991 14.4109 10.2398 14.4814 10.0625 14.4814C9.88514 14.4814 9.72589 14.4109 9.58473 14.2697L2.61798 7.30294C2.47681 7.16177 2.40069 7.00981 2.3896 6.84706C2.37794 6.68431 2.44502 6.53031 2.59085 6.38506L4.62523 4.35069C4.77048 4.20544 4.92214 4.13281 5.08023 4.13281C5.23773 4.13281 5.38735 4.2034 5.5291 4.34456L12.5361 11.3516C12.6773 11.4927 12.7452 11.6494 12.74 11.8214C12.7341 11.9929 12.6606 12.1493 12.5195 12.2904ZM10.0625 13.5084L11.7582 11.8127L5.07498 5.12944L3.37923 6.82519L10.0625 13.5084ZM15.9652 18.3349L12.4889 14.8586L13.1084 14.2391L16.5847 17.7154C16.6664 17.7971 16.7101 17.8974 16.716 18.0164C16.7218 18.1354 16.6781 18.2416 16.5847 18.3349C16.4914 18.4283 16.3881 18.4749 16.275 18.4749C16.1618 18.4749 16.0586 18.4283 15.9652 18.3349Z" fill="black"/>
<path d="M8.47918 12.2904L10.4584 14.2697C10.5996 14.4109 10.7588 14.4814 10.9362 14.4814C11.1135 14.4814 11.2728 14.4109 11.4139 14.2697L18.3807 7.30294C18.5218 7.16177 18.598 7.00981 18.6091 6.84706C18.6207 6.68431 18.5536 6.53031 18.4078 6.38506L16.3734 4.35069C16.2282 4.20544 16.0765 4.13281 15.9184 4.13281C15.7609 4.13281 15.6113 4.2034 15.4696 4.34456L8.46256 11.3516C8.32139 11.4927 8.25343 11.6494 8.25868 11.8214C8.26451 11.9929 8.33801 12.1493 8.47918 12.2904ZM10.9362 13.5084L9.24043 11.8127L15.9237 5.12944L17.6194 6.82519L10.9362 13.5084ZM5.03343 18.3349L8.50981 14.8586L7.89031 14.2391L4.41393 17.7154C4.33226 17.7971 4.28851 17.8974 4.28268 18.0164C4.27685 18.1354 4.3206 18.2416 4.41393 18.3349C4.50726 18.4283 4.61051 18.4749 4.72368 18.4749C4.83685 18.4749 4.9401 18.4283 5.03343 18.3349Z" fill="black"/>
<path d="M14.5 5.46027C14.5 5.51951 14.4735 5.62021 14.3334 5.75941C14.1913 5.90047 13.9603 6.05051 13.6348 6.18722C12.9859 6.45978 12.0546 6.64027 11 6.64027C9.94539 6.64027 9.01415 6.45978 8.36519 6.18722C8.03968 6.05051 7.80871 5.90047 7.66665 5.75941C7.52646 5.62021 7.5 5.51951 7.5 5.46027C7.5 5.40104 7.52646 5.30034 7.66665 5.16114C7.80871 5.02007 8.03968 4.87004 8.36519 4.73333C9.01415 4.46076 9.94539 4.28027 11 4.28027C12.0546 4.28027 12.9859 4.46076 13.6348 4.73333C13.9603 4.87004 14.1913 5.02007 14.3334 5.16114C14.4735 5.30034 14.5 5.40104 14.5 5.46027Z" fill="#D9D9D9" stroke="black"/>
</svg>
