<svg width="30" height="30" viewBox="0 0 30 30" fill="none" xmlns="http://www.w3.org/2000/svg">
<path d="M9.96732 26.9977V20.5331C9.96732 20.0055 10.1769 19.4996 10.5499 19.1266C10.9229 18.7536 11.4289 18.544 11.9564 18.544V10.5876C11.9564 10.5876 10.4646 9.59301 7.97821 9.59301C5.49183 9.59301 4 10.5876 4 10.5876V18.544C4.52754 18.544 5.03348 18.7536 5.40651 19.1266C5.77954 19.4996 5.98911 20.0055 5.98911 20.5331V26.9977M7.82903 7.60391C7.82903 7.60391 6.23774 6.60935 6.23774 5.36616C6.23774 4.90509 6.4209 4.4629 6.74693 4.13687C7.07296 3.81085 7.51515 3.62769 7.97622 3.62769C8.4373 3.62769 8.87948 3.81085 9.20551 4.13687C9.53154 4.4629 9.7147 4.90509 9.7147 5.36616C9.7147 6.60935 8.12739 7.60391 8.12739 7.60391H7.82903Z" stroke="black"/>
<path d="M17.0523 26.9977V22.6077C17.0523 22.2495 17.1946 21.9059 17.4479 21.6526C17.7012 21.3993 18.0448 21.257 18.403 21.257V15.854C18.403 15.854 17.3899 15.1786 15.7015 15.1786C14.0131 15.1786 13 15.854 13 15.854V21.257C13.3582 21.257 13.7018 21.3993 13.9551 21.6526C14.2084 21.9059 14.3508 22.2495 14.3508 22.6077V26.9977M15.6002 13.8278C15.6002 13.8278 14.5196 13.1525 14.5196 12.3082C14.5196 11.9951 14.644 11.6949 14.8654 11.4735C15.0868 11.2521 15.3871 11.1277 15.7002 11.1277C16.0133 11.1277 16.3135 11.2521 16.5349 11.4735C16.7563 11.6949 16.8807 11.9951 16.8807 12.3082C16.8807 13.1525 15.8028 13.8278 15.8028 13.8278H15.6002Z" stroke="black"/>
<path d="M24.9673 26.9977V20.5331C24.9673 20.0056 25.1769 19.4996 25.5499 19.1266C25.9229 18.7536 26.4289 18.544 26.9564 18.544V10.5876C26.9564 10.5876 25.4646 9.59301 22.9782 9.59301C20.4918 9.59301 19 10.5876 19 10.5876V18.544C19.5275 18.544 20.0335 18.7536 20.4065 19.1266C20.7795 19.4996 20.9891 20.0056 20.9891 20.5331V26.9977M22.829 7.60391C22.829 7.60391 21.2377 6.60935 21.2377 5.36616C21.2377 4.90509 21.4209 4.4629 21.7469 4.13687C22.073 3.81085 22.5151 3.62769 22.9762 3.62769C23.4373 3.62769 23.8795 3.81085 24.2055 4.13687C24.5315 4.4629 24.7147 4.90509 24.7147 5.36616C24.7147 6.60935 23.1274 7.60391 23.1274 7.60391H22.829Z" stroke="black"/>
</svg>
