<svg
    xmlns="http://www.w3.org/2000/svg"
    width='24'
    height='24'
    viewBox="0 0 24 24"
    fill="none"
>
    <path
        d="M11.003 20C9.89234 20 8.85133 19.7926 7.88 19.378C6.90867 18.9633 6.06034 18.3933 5.335 17.668C4.60967 16.9426 4.039 16.0946 3.623 15.124C3.207 14.1533 2.99933 13.113 3 12.003C3.00067 10.893 3.208 9.85197 3.622 8.87997C4.036 7.90797 4.60634 7.05931 5.333 6.33397C6.05967 5.60797 6.908 5.03764 7.878 4.62297C8.848 4.20831 9.88867 4.00064 11 3.99997C11.35 3.99997 11.6877 4.02097 12.013 4.06297C12.3383 4.10497 12.6673 4.16731 13 4.24997V5.29997C12.6667 5.19997 12.3377 5.12497 12.013 5.07497C11.6883 5.02497 11.3507 4.99997 11 4.99997C9.05934 4.99997 7.40734 5.68131 6.044 7.04397C4.68067 8.40664 3.99933 10.0586 4 12C4.00067 13.9413 4.682 15.5933 6.044 16.956C7.406 18.3186 9.058 19 11 19C12.942 19 14.594 18.3186 15.956 16.956C17.318 15.5933 17.9993 13.94 18 11.996C18 11.8153 17.9917 11.6306 17.975 11.442C17.9583 11.2533 17.927 11.0676 17.881 10.885H18.892C18.9253 11.0423 18.952 11.2216 18.972 11.423C18.9907 11.6243 19 11.8166 19 12C19 13.1113 18.7927 14.152 18.378 15.122C17.9633 16.092 17.3933 16.9403 16.668 17.667C15.942 18.3923 15.094 18.9623 14.124 19.377C13.154 19.7923 12.1137 20 11.003 20ZM14.146 15.854L10.5 12.208V6.99997H11.5V11.792L14.854 15.146L14.146 15.854ZM18 8.88397V5.88397H15V4.88397H18V1.88397H19V4.88397H22V5.88397H19V8.88397H18Z"
        fill="currentColor"
    />
</svg>