<svg width="9" height="8" viewBox="0 0 9 8" fill="none" xmlns="http://www.w3.org/2000/svg">
<path d="M4.875 7.23044C4.76727 7.2307 4.6613 7.20307 4.56741 7.15025C4.47351 7.09743 4.39489 7.02121 4.33917 6.92901L0.843403 1.21457C0.784407 1.11823 0.7522 1.00788 0.750109 0.894928C0.748017 0.781976 0.776116 0.670514 0.831504 0.572052C0.886032 0.474528 0.965551 0.393288 1.06189 0.336686C1.15822 0.280084 1.26789 0.250163 1.37963 0.25L8.37037 0.25C8.48211 0.250163 8.59178 0.280084 8.68811 0.336686C8.78445 0.393288 8.86397 0.474528 8.9185 0.572052C8.97388 0.670514 9.00198 0.781976 8.99989 0.894928C8.9978 1.00788 8.96559 1.11823 8.9066 1.21457L5.41083 6.92901C5.35511 7.02121 5.27649 7.09743 5.18259 7.15025C5.0887 7.20307 4.98273 7.2307 4.875 7.23044Z" fill="#001240"/>
</svg>
