<svg width="30" height="30" viewBox="0 0 30 30" fill="none" xmlns="http://www.w3.org/2000/svg">
<path fill-rule="evenodd" clip-rule="evenodd" d="M15.0001 26.4858L15.9016 25.4701C16.9244 24.2987 17.8444 23.1872 18.663 22.1301L19.3387 21.2387C22.1601 17.4372 23.5716 14.4201 23.5716 12.1901C23.5716 7.4301 19.7344 3.57153 15.0001 3.57153C10.2659 3.57153 6.42871 7.4301 6.42871 12.1901C6.42871 14.4201 7.84014 17.4372 10.6616 21.2387L11.3373 22.1301C12.5051 23.6264 13.7268 25.0783 15.0001 26.4858Z" stroke="black" stroke-width="1.5" stroke-linecap="round" stroke-linejoin="round"/>
<path d="M15.0001 15.7144C16.9726 15.7144 18.5716 14.1154 18.5716 12.143C18.5716 10.1705 16.9726 8.57153 15.0001 8.57153C13.0277 8.57153 11.4287 10.1705 11.4287 12.143C11.4287 14.1154 13.0277 15.7144 15.0001 15.7144Z" stroke="black" stroke-width="1.5" stroke-linecap="round" stroke-linejoin="round"/>
</svg>
