<svg width="23" height="24" viewBox="0 0 23 24" fill="none" xmlns="http://www.w3.org/2000/svg">
<path d="M1.1026 10.479C1.1026 10.479 0.334259 11.086 0.0808999 12.2151C0.0118603 12.5247 -0.0131832 12.8424 0.00650931 13.1589C0.0375476 13.671 0.160496 14.1734 0.369478 14.642C0.469744 14.8709 0.588697 15.0923 0.721666 15.3054C1.3132 16.2254 2.07292 17.016 2.93757 17.669C3.15386 17.8321 3.37611 17.9871 3.60385 18.1337C4.74415 18.8327 5.95596 19.4476 7.22276 19.881C7.47612 19.9672 7.7302 20.0466 7.98535 20.1174C10.4855 20.7693 13.1384 20.6809 15.6185 20.1052C15.8391 20.0524 16.0878 19.9866 16.3574 19.9051C17.9717 19.417 20.3565 18.3799 22.1897 16.2405C22.1897 16.2405 24.0713 13.6156 21.7667 11.5291L13.7778 11.2093L1.1062 10.479" fill="#858985"/>
<path d="M22.1014 11.6185L21.6133 13.8075L11.6134 19.3357C11.6134 19.3357 1.03479 18.1473 1.48257 11.6182L6.70142 14.3828L9.29359 15.5371L13.8745 14.8313L19.245 11.8485L22.0999 11.6185" fill="#3B4743"/>
<path d="M11.3582 16.4384C11.3274 16.0355 11.3035 15.6321 11.2867 15.2284L9.29465 15.5353L6.70248 14.381L1.48364 11.6167C1.03442 18.1465 11.6144 19.3343 11.6144 19.3343L11.6852 19.2947C11.6108 18.3413 11.4326 17.3922 11.3589 16.4384" fill="#2C3834"/>
<path d="M4.66091 9.58936L2.44824 10.8091L4.28285 13.8257L10.9529 16.2421L17.6383 12.9157L19.5502 11.7629L17.358 8.93817L13.6482 6.8042L10.9981 7.25342L4.66091 9.58936Z" fill="#627D5E"/>
<path d="M4.28225 10.1147C4.28225 10.1147 4.27578 10.1463 4.2668 10.2045C4.19887 10.6106 3.9412 12.3058 4.28225 12.9084L3.4122 12.4725L1.74219 9.59033H2.29095" fill="#2C3834"/>
<path d="M2.18381 9.89391L4.21141 10.8074C4.21141 10.8074 11.6595 7.73443 12.2564 7.77684L13.0459 6.58191L12.7617 5.22168L7.98628 6.43062L3.24145 8.18257L1.88086 8.87868L2.18381 9.89391Z" fill="#384440"/>
<path d="M12.8618 5.55278L12.1729 7.76832C12.1729 7.76832 17.5671 9.52423 18.1938 11.761L20.9944 10.7163L20.4927 9.02254L18.1518 6.72362L13.3854 5.34326L12.8618 5.55278Z" fill="#2C3834"/>
<path d="M6.60603 11.0823L11.1165 9.31527C11.1165 9.31527 13.7001 8.35178 15.5897 9.60456C15.5897 9.60456 17.7869 10.568 16.3217 12.651L9.46127 15.9475L5.14158 13.4804C5.1423 13.4801 4.86594 11.7644 6.60603 11.0823Z" fill="#F7941E"/>
<path d="M20.0935 7.46542C16.1009 4.77729 12.0025 4.82868 12.0025 4.82868C7.29474 5.34439 1.73556 8.15757 1.73556 8.15757C-0.0311231 10.257 1.50485 12.7148 1.50485 12.7148C4.47544 17.0158 11.4649 17.4517 11.4649 17.4517C15.8687 16.2992 22.8589 11.7675 22.8589 11.7675C22.552 8.87453 20.0935 7.46542 20.0935 7.46542ZM9.87756 15.1215C9.87756 15.1215 2.29835 13.099 3.32292 9.25834C3.32292 9.25834 9.21092 6.03223 13.334 5.80151C13.334 5.80151 19.2486 5.74976 20.349 10.2563C20.349 10.2563 13.5137 13.4059 9.87685 15.1215" fill="#9FA09F"/>
<path d="M12.0417 4.83054C11.9842 4.8291 11.9533 4.8291 11.9533 4.8291C7.58114 5.30851 2.48053 7.76484 1.77148 8.11523C2.30336 8.53606 2.88591 8.86309 3.49828 9.13873C4.52609 8.59751 8.91047 6.37549 12.4489 5.88638C12.3073 5.53683 12.1716 5.18459 12.0417 4.83054Z" fill="#C6CACC"/>
<path d="M20.2074 10.3227C19.2281 10.7748 13.3912 13.4665 10.0371 15.0474C10.2614 15.5315 10.4206 16.0425 10.6915 16.5104C10.8931 16.8601 11.1386 17.1627 11.4052 17.4459C11.4441 17.4502 11.4689 17.4516 11.4689 17.4516C15.8475 16.3056 22.7766 11.8231 22.8585 11.7696C22.0025 11.2402 21.1228 10.7507 20.2089 10.3213" fill="#D1D2D3"/>
<path d="M21.3071 12.7333C22.2411 12.1695 22.8352 11.786 22.8593 11.7705C22.0018 11.2412 21.1231 10.7517 20.2092 10.3223C20.0561 10.3923 19.7769 10.521 19.4154 10.6881C20.1639 11.2369 20.8022 11.9574 21.3071 12.7319M17.9405 11.3713C17.5017 11.5743 17.0273 11.7935 16.5224 12.0279C17.2483 12.7312 18.201 13.2523 18.8605 14.1528C19.6795 13.7094 19.7108 13.677 20.3814 13.2835C19.7345 12.4512 18.9036 11.7263 17.9405 11.3713ZM15.3002 12.5932C14.7755 12.8365 14.2378 13.0851 13.7031 13.3342C14.0082 13.64 15.7077 15.1454 15.8964 15.7043C16.5429 15.3999 16.7014 15.3054 17.3281 14.9773C16.9515 13.9854 16.172 13.2023 15.3002 12.5932ZM12.5075 13.8905C11.618 14.3067 10.767 14.7045 10.0371 15.048C10.2606 15.5321 10.4198 16.0432 10.6908 16.5111C10.8924 16.8607 11.1379 17.1633 11.4052 17.4465C11.4441 17.4508 11.4689 17.4523 11.4689 17.4523C12.4029 17.2075 13.4551 16.8065 14.5307 16.3332C14.0862 15.3578 13.3973 14.5381 12.5075 13.8905Z" fill="#A5B6C4"/>
<path d="M6.55566 11.8952L12.8587 9.34473L16.2548 11.8952L9.86551 14.8256L6.55566 11.8952Z" fill="#39784E"/>
<path d="M22.1334 16.2408L22.1557 16.2067L19.675 14.6348L13.9717 17.7477L15.9073 20.0168C17.5069 19.5855 20.1439 18.5613 22.1334 16.2408Z" fill="#44514D"/>
<path d="M18.3221 16.8083C19.2338 16.2764 19.4796 15.8124 20.0057 14.8443L19.6769 14.6348L13.9736 17.7477L14.3973 18.2443C15.5157 18.0531 17.4538 17.3132 18.3221 16.8083Z" fill="#5F6865"/>
<path d="M10.0547 10.479L13.178 13.3062M10.8457 11.8586C10.8626 11.4705 11.2212 11.1722 11.6467 11.1913C12.0726 11.2096 12.4025 11.5377 12.3867 11.9262C12.3698 12.3133 12.0104 12.6115 11.586 12.5925C11.159 12.5749 10.8277 12.2464 10.8457 11.8586Z" stroke="white" stroke-width="0.0898438" stroke-miterlimit="10"/>
<path d="M13.0278 4.08268L12.9639 4.53765C12.9639 4.53765 13.1558 4.6566 13.163 4.65588C13.1701 4.65373 13.5874 4.65732 13.5874 4.65732C13.5874 4.65732 14.074 4.40288 14.0855 4.38995C14.0981 4.37701 14.1919 4.23793 14.1919 4.23793L13.8152 4.24979L13.4027 4.1082L13.2618 3.98134L13.0843 3.88574L13.0278 4.08268Z" fill="white"/>
<path d="M12.585 3.5807L12.6223 4.18805C12.6223 4.18805 12.7632 4.12803 12.7826 4.12156C12.8027 4.11437 13.0148 4.07053 13.0148 4.07053C13.0148 4.07053 13.1909 4.13558 13.1973 4.13414C13.2034 4.13342 13.2354 4.07987 13.2354 4.07987L13.3163 3.73236L13.3066 3.56561L13.1269 3.45312L12.8929 3.45816C12.8929 3.45816 12.7111 3.49912 12.6974 3.51098C12.6609 3.53572 12.6234 3.55897 12.585 3.5807Z" fill="#E6E7E8"/>
<path d="M13.9741 4.18587C13.6981 4.18299 13.4745 4.09818 13.3042 3.93467L13.3459 3.78265C13.3563 3.74606 13.3638 3.70868 13.3681 3.67088C13.373 3.63159 13.3678 3.59172 13.3531 3.55497C13.3384 3.51822 13.3146 3.48578 13.2841 3.46065C13.2204 3.40495 13.1356 3.37656 13.0311 3.37512C12.8794 3.37224 12.7331 3.42184 12.5908 3.5239C12.5944 3.56199 12.5973 3.60009 12.5998 3.63854C12.7626 3.54151 12.8977 3.49443 13.0052 3.49587C13.0979 3.49731 13.1723 3.51995 13.2273 3.56523C13.2534 3.58444 13.2739 3.61023 13.2868 3.63997C13.2997 3.6697 13.3044 3.70232 13.3006 3.73449C13.2952 3.77646 13.2864 3.81792 13.2744 3.85848L13.2143 4.07267C13.1683 4.02738 13.1036 4.00474 13.0203 4.00259C12.8974 4.00115 12.7723 4.04571 12.6454 4.13484C12.6483 4.17509 12.6512 4.21426 12.6526 4.25523C12.7716 4.16323 12.8898 4.11795 13.0099 4.11938L12.9157 4.54524C12.9038 4.59268 12.9283 4.63221 12.9894 4.66491C13.0494 4.69798 13.1295 4.71379 13.2312 4.71523C13.4591 4.71905 13.6839 4.66198 13.8824 4.54992C14.0873 4.43671 14.2741 4.26816 14.4438 4.04607C14.3036 4.14202 14.1473 4.18874 13.9741 4.18587ZM13.0605 4.12657C13.1407 4.14634 13.178 4.18012 13.173 4.22971C13.1687 4.27068 13.1256 4.31237 13.0429 4.35585C13.0315 4.36184 13.0201 4.36795 13.0088 4.37418L13.0605 4.12657ZM13.224 4.59484C13.1446 4.5934 13.0853 4.58334 13.0472 4.56285C13.0099 4.54237 12.9922 4.51254 12.9962 4.47373C12.9982 4.45852 13.0052 4.4444 13.016 4.43348L13.0634 4.40796C13.1468 4.36556 13.1942 4.32602 13.2054 4.29045L13.2726 4.05973C13.4397 4.21965 13.6632 4.30302 13.9431 4.30662C13.9658 4.30662 14.0039 4.3059 14.0564 4.30159C13.8242 4.49804 13.528 4.6024 13.224 4.59484Z" fill="#D0D2D3"/>
<path d="M12.8203 5.65156C12.8232 5.6839 12.7808 5.71804 12.7269 5.72774C12.6741 5.73781 12.6295 5.71948 12.6266 5.68606L12.4922 3.51902C12.4908 3.48632 12.5325 3.45182 12.5857 3.44248C12.6392 3.43277 12.6845 3.45182 12.6866 3.48416L12.8203 5.6512" fill="#A6A8AB"/>
<path d="M12.7244 5.66868L12.59 3.50165C12.5885 3.47973 12.6069 3.45781 12.636 3.44092C12.6192 3.43856 12.6022 3.43905 12.5857 3.44236C12.5328 3.4517 12.4908 3.4862 12.4922 3.5189L12.6266 5.68593C12.6295 5.71936 12.6741 5.73768 12.7269 5.72762C12.7438 5.72462 12.76 5.71892 12.7751 5.71073C12.7463 5.70534 12.7251 5.68989 12.7244 5.66796" fill="#939292"/>
<path d="M3.77236 6.39313L3.72852 6.78485C3.72852 6.78485 3.89598 6.8826 3.90245 6.88116C3.90892 6.87972 4.26614 6.87254 4.26614 6.87254C4.26614 6.87254 4.67798 6.64038 4.68769 6.62996C4.69775 6.61953 4.7725 6.49699 4.7725 6.49699L4.45194 6.51604L4.094 6.40571L3.97002 6.30113L3.81513 6.22314L3.77236 6.39313Z" fill="#F7941E"/>
<path d="M3.38184 5.97398L3.42927 6.49471L3.56512 6.43254C3.58129 6.42679 3.76241 6.38439 3.76241 6.38439C3.76241 6.38439 3.91443 6.4347 3.9209 6.43398C3.92521 6.43254 3.95288 6.38582 3.95288 6.38582L4.0129 6.08646L4.00032 5.94307L3.84327 5.85107L3.64238 5.86221C3.64238 5.86221 3.48677 5.90175 3.47599 5.91181C3.44507 5.93323 3.41368 5.95396 3.38184 5.97398Z" fill="#F7941E"/>
<path d="M4.58662 6.45895C4.34943 6.46254 4.15645 6.39606 4.00515 6.25949L4.03749 6.12868C4.04612 6.08915 4.05187 6.05645 4.05366 6.03165C4.05678 5.99805 4.05143 5.96421 4.03813 5.9332C4.02482 5.9022 4.00397 5.87501 3.97748 5.85412C3.91998 5.8074 3.84738 5.78476 3.75754 5.7862C3.62745 5.78835 3.50346 5.83507 3.38379 5.92492C3.38738 5.95726 3.39098 5.98996 3.39385 6.02303C3.53113 5.93606 3.64649 5.89221 3.73777 5.89078C3.81791 5.8879 3.88296 5.90623 3.93112 5.94396C3.95373 5.96017 3.97174 5.98197 3.9834 6.00723C3.99505 6.0325 3.99995 6.06035 3.9976 6.08807C3.99408 6.1241 3.98771 6.15979 3.97855 6.19481L3.93255 6.38024C3.89159 6.34215 3.83552 6.32454 3.76401 6.32526C3.65871 6.32742 3.5527 6.36767 3.44632 6.44817L3.45459 6.55095C3.55377 6.46937 3.65404 6.42696 3.75754 6.42553L3.68674 6.79281C3.67884 6.83378 3.70076 6.8672 3.75323 6.89379C3.8057 6.92003 3.87613 6.9326 3.96274 6.93188C4.15813 6.92853 4.34912 6.87334 4.51618 6.77196C4.69012 6.6699 4.84716 6.52148 4.98588 6.32634C4.87009 6.41151 4.73035 6.45792 4.58662 6.45895ZM3.8021 6.42984C3.87074 6.44529 3.90309 6.47368 3.90021 6.51537C3.89877 6.55023 3.86212 6.58832 3.79276 6.62785C3.78254 6.63246 3.77258 6.63762 3.76293 6.64331L3.8021 6.42984ZM3.95268 6.82731C3.88548 6.82874 3.83445 6.82084 3.80138 6.80467C3.76796 6.78778 3.75323 6.7637 3.75466 6.72848C3.75653 6.71588 3.76188 6.70405 3.77012 6.69434C3.78845 6.68463 3.8021 6.67673 3.81037 6.6717C3.88188 6.6336 3.91998 6.59803 3.92932 6.56712L3.98107 6.36695C4.12877 6.50135 4.32284 6.56568 4.56254 6.56281C4.5823 6.56209 4.61501 6.55993 4.65993 6.55562C4.46544 6.7298 4.21376 6.82648 3.95268 6.82731Z" fill="#D0D2D3"/>
<path d="M3.63479 7.74528C3.63766 7.77368 3.60388 7.80422 3.55788 7.81321C3.51116 7.82327 3.47235 7.80746 3.46947 7.77942L3.29985 5.92577C3.29841 5.89594 3.33291 5.86611 3.37891 5.85713C3.42419 5.84707 3.463 5.86216 3.46588 5.89019L3.63479 7.74528Z" fill="#A6A8AB"/>
<path d="M3.55225 7.75942L3.38155 5.90433C3.38083 5.886 3.39593 5.86623 3.41964 5.8515C3.4057 5.84964 3.39152 5.85062 3.37796 5.85437C3.33196 5.86336 3.2971 5.89319 3.29889 5.92302L3.46852 7.77667C3.47139 7.80506 3.51021 7.82052 3.55693 7.81045C3.57113 7.80764 3.58474 7.80242 3.59718 7.795C3.57202 7.79177 3.55369 7.77847 3.55225 7.75942Z" fill="#939292"/>
<path d="M7.9097 4.87195L7.87305 5.20941C7.87305 5.20941 8.01644 5.2935 8.02219 5.29206C8.02794 5.29063 8.33556 5.28416 8.33556 5.28416C8.33556 5.28416 8.69062 5.08542 8.69925 5.07608C8.70787 5.06638 8.77364 4.96072 8.77364 4.96072L8.4962 4.97689L8.18714 4.8813L8.08112 4.79145L7.94744 4.72461L7.9097 4.87195Z" fill="#F7941E"/>
<path d="M7.57227 4.51041L7.61323 4.95891C7.61323 4.95891 7.71566 4.91148 7.73003 4.90573C7.74513 4.89998 7.90145 4.86404 7.90145 4.86404C7.90145 4.86404 8.03227 4.90788 8.0373 4.90716C8.04161 4.90573 8.06497 4.86476 8.06497 4.86476L8.11744 4.60709L8.10558 4.48346L7.97045 4.40332L7.79795 4.41338C7.79795 4.41338 7.66355 4.44716 7.65456 4.45651C7.64378 4.46585 7.57227 4.51041 7.57227 4.51041Z" fill="#F7941E"/>
<path d="M8.61395 4.92842C8.41018 4.93129 8.24271 4.87379 8.11298 4.75592L8.13993 4.64343C8.14855 4.60929 8.15287 4.58198 8.15431 4.55934C8.15719 4.53057 8.15274 4.50154 8.14137 4.47495C8.12999 4.44837 8.11206 4.4251 8.08926 4.40733C8.03496 4.36557 7.96755 4.34455 7.89915 4.34803C7.78666 4.35018 7.67993 4.38972 7.57715 4.4677L7.58577 4.55251C7.70401 4.4774 7.80355 4.43931 7.88298 4.43787C7.9509 4.43643 8.00732 4.45189 8.04829 4.48459C8.068 4.49843 8.08375 4.51719 8.09396 4.53901C8.10417 4.56082 8.1085 4.58493 8.10651 4.60893C8.10435 4.63158 8.09932 4.66284 8.09034 4.70093L8.05009 4.86086C8.01008 4.82685 7.95836 4.80983 7.90598 4.81342C7.8147 4.81486 7.72341 4.85043 7.63141 4.91872C7.63357 4.94854 7.63716 4.97837 7.63896 5.00784C7.72377 4.93704 7.8111 4.90111 7.89951 4.90039L7.83949 5.21592C7.8323 5.2515 7.85063 5.28097 7.89591 5.30361C7.9412 5.32625 8.00193 5.33703 8.07632 5.33631C8.2449 5.33387 8.40978 5.28648 8.55393 5.19903C8.70379 5.11134 8.8382 4.98233 8.9593 4.81414C8.85724 4.88817 8.74188 4.92554 8.61395 4.92842ZM7.9376 4.90362C7.99654 4.91584 8.02457 4.941 8.0217 4.97658C8.02026 5.00748 7.98935 5.03947 7.92898 5.07289C7.92251 5.0772 7.91388 5.08115 7.90346 5.08798L7.9376 4.90362ZM8.0677 5.24683C8.02295 5.24947 7.97815 5.24274 7.93616 5.22706C7.90777 5.21197 7.8952 5.19004 7.89663 5.16129C7.89663 5.15159 7.90238 5.14153 7.91029 5.13147C7.92646 5.12212 7.93796 5.11529 7.94515 5.1117C8.00588 5.07828 8.04002 5.04881 8.04685 5.02186L8.09213 4.84936C8.21935 4.96472 8.38646 5.02078 8.5931 5.0179C8.60999 5.01718 8.6391 5.01575 8.67791 5.01215C8.50975 5.16188 8.29285 5.24529 8.0677 5.24683Z" fill="#D0D2D3"/>
<path d="M7.79228 6.03663C7.79443 6.06071 7.76532 6.08766 7.72507 6.09628C7.68554 6.10383 7.6514 6.09053 7.65032 6.06717L7.50298 4.4676C7.50154 4.4428 7.53137 4.41656 7.5709 4.40794C7.60971 4.40039 7.64457 4.41297 7.64709 4.43777L7.79228 6.03663Z" fill="#A6A8AB"/>
<path d="M7.72112 6.0518L7.57521 4.4515C7.57378 4.43533 7.58671 4.41916 7.60792 4.40622C7.59559 4.40458 7.58307 4.40507 7.5709 4.40766C7.53137 4.41628 7.50154 4.44252 7.50298 4.46732L7.65032 6.06689C7.65176 6.09025 7.68554 6.10391 7.72507 6.096C7.73752 6.09316 7.74941 6.08831 7.76029 6.08163C7.73945 6.07875 7.72328 6.06797 7.72112 6.0518Z" fill="#939292"/>
<path d="M11.5317 4.20491L11.499 4.49421C11.499 4.49421 11.6223 4.565 11.627 4.56429C11.6316 4.56357 11.8951 4.55782 11.8951 4.55782C11.8951 4.55782 12.198 4.38711 12.2063 4.37957C12.2138 4.37202 12.2688 4.28146 12.2688 4.28146L12.0323 4.29619L11.7689 4.21354L11.6776 4.13699L11.563 4.08057L11.5317 4.20491Z" fill="#F7941E"/>
<path d="M11.2441 3.8973L11.2794 4.28004C11.2794 4.28004 11.367 4.23907 11.3793 4.23404C11.3918 4.22973 11.5255 4.19846 11.5255 4.19846C11.5255 4.19846 11.6373 4.23584 11.6416 4.23548C11.6459 4.23404 11.6657 4.1999 11.6657 4.1999L11.7095 3.97924L11.7005 3.87395L11.5837 3.80566L11.4364 3.81393C11.4364 3.81393 11.3218 3.84232 11.3135 3.85095C11.3049 3.85849 11.2441 3.8973 11.2441 3.8973Z" fill="#F7941E"/>
<path d="M12.1329 4.25317C11.959 4.25676 11.816 4.20717 11.7049 4.1069L11.7283 4.00987C11.7355 3.98076 11.7394 3.95668 11.7409 3.93835C11.743 3.91368 11.739 3.88886 11.7292 3.86613C11.7193 3.84341 11.7039 3.82352 11.6844 3.80826C11.6384 3.77162 11.5803 3.75366 11.5216 3.75795C11.4214 3.76114 11.325 3.79698 11.2471 3.86001C11.2492 3.88481 11.2514 3.90817 11.2543 3.93296C11.3556 3.86792 11.4404 3.83665 11.5083 3.83485C11.5587 3.8314 11.6087 3.84536 11.6499 3.87439C11.6668 3.88625 11.6802 3.90239 11.6888 3.92114C11.6974 3.9399 11.7008 3.96059 11.6988 3.98112C11.6963 4.00746 11.6916 4.03354 11.6848 4.0591L11.6521 4.19639C11.6174 4.16709 11.5726 4.15263 11.5274 4.15614C11.4498 4.15685 11.3711 4.18704 11.2927 4.24598L11.2999 4.32145C11.3729 4.26143 11.4472 4.23089 11.5227 4.22873L11.471 4.50042C11.4645 4.53024 11.4807 4.55576 11.5198 4.57553C11.5586 4.59385 11.6097 4.60392 11.674 4.60248C11.8178 4.5996 11.9543 4.56151 12.0823 4.48496C12.2095 4.40985 12.3248 4.30024 12.4273 4.15649C12.3419 4.2191 12.2388 4.25295 12.1329 4.25317ZM11.5547 4.23268C11.6057 4.24418 11.6294 4.26467 11.6276 4.29485C11.6255 4.32109 11.5993 4.34876 11.5475 4.37823C11.5399 4.38152 11.5326 4.38536 11.5256 4.38973L11.5547 4.23268ZM11.6665 4.52557C11.6282 4.52853 11.5897 4.52275 11.554 4.50868C11.5299 4.49646 11.5184 4.47742 11.5198 4.45334C11.5198 4.44435 11.5249 4.43573 11.5321 4.4271L11.5612 4.41021C11.6136 4.38182 11.6427 4.35739 11.6489 4.33331L11.6862 4.18596C11.7958 4.28515 11.9378 4.33259 12.1153 4.33043C12.1297 4.33043 12.1534 4.32828 12.1868 4.3254C12.0436 4.4533 11.8585 4.52448 11.6665 4.52557Z" fill="#D0D2D3"/>
<path d="M11.4309 5.2007C11.433 5.22191 11.4082 5.24455 11.3744 5.25102C11.3403 5.25856 11.3108 5.24742 11.3094 5.22694L11.1847 3.85952C11.1825 3.83903 11.2088 3.81639 11.2422 3.80992C11.2753 3.80273 11.3051 3.8128 11.3065 3.834L11.4309 5.2007Z" fill="#A6A8AB"/>
<path d="M11.3709 5.21522L11.2454 3.84779C11.244 3.8345 11.2551 3.8194 11.2724 3.80898C11.2623 3.8073 11.2519 3.80804 11.2422 3.81114C11.2088 3.81761 11.1825 3.84025 11.1847 3.86073L11.3094 5.22815C11.3108 5.24864 11.3403 5.25978 11.3744 5.25223C11.3848 5.24978 11.3948 5.24616 11.4043 5.24145C11.3856 5.23786 11.3716 5.22887 11.3709 5.21522Z" fill="#939292"/>
<path d="M2.43123 7.14403L2.3457 7.74527C2.3457 7.74527 2.59906 7.90088 2.60877 7.89944C2.61847 7.898 3.16831 7.90231 3.16831 7.90231C3.16831 7.90231 3.8098 7.56558 3.82561 7.55013C3.84178 7.53323 3.96505 7.34923 3.96505 7.34923L3.46839 7.36433L2.92502 7.17817L2.73886 7.01106L2.50491 6.88672L2.43123 7.14403Z" fill="white"/>
<path d="M1.84961 6.48375L1.8992 7.28587C1.8992 7.28587 2.08464 7.20573 2.1098 7.19675C2.13603 7.1874 2.41563 7.13098 2.41563 7.13098C2.41563 7.13098 2.64778 7.21507 2.65677 7.21364C2.66395 7.21292 2.7078 7.1414 2.7078 7.1414L2.81381 6.68464L2.79944 6.46398L2.56405 6.31592L2.25427 6.3231C2.25427 6.3231 2.01492 6.37737 1.99659 6.39246C1.97898 6.40792 1.84961 6.48375 1.84961 6.48375Z" fill="#E6E7E8"/>
<path d="M3.67884 7.28151C3.31443 7.27719 3.0201 7.16615 2.79549 6.9498L2.85084 6.74963C2.86629 6.68997 2.87635 6.64218 2.88066 6.60229C2.88692 6.55049 2.88003 6.49795 2.86062 6.44953C2.84121 6.4011 2.80991 6.35834 2.76962 6.32521C2.68552 6.25154 2.57448 6.21344 2.43576 6.21201C2.23702 6.20913 2.04296 6.27418 1.85645 6.40786C1.86004 6.4589 1.86291 6.50885 1.86795 6.55844C2.08141 6.43194 2.2611 6.36905 2.40198 6.37121C2.52452 6.37193 2.62191 6.40283 2.69559 6.46249C2.76782 6.52143 2.7998 6.59546 2.79118 6.68602C2.78759 6.72699 2.77501 6.78233 2.75704 6.84954L2.67726 7.13201C2.61652 7.07235 2.53135 7.04216 2.42174 7.04001C2.25966 7.03857 2.09507 7.09643 1.92724 7.21394C1.93155 7.26677 1.93443 7.31996 1.9373 7.37386C2.09363 7.25204 2.24996 7.19274 2.40701 7.19418L2.28302 7.75588C2.26685 7.81805 2.30063 7.87052 2.38005 7.91293C2.4602 7.95605 2.56549 7.97797 2.6999 7.98013C3.00002 7.98441 3.2959 7.90901 3.55737 7.76163C3.82905 7.61213 4.07523 7.39076 4.29876 7.09715C4.11703 7.22306 3.89984 7.28765 3.67884 7.28151ZM2.47421 7.20388C2.58023 7.22868 2.62838 7.27324 2.62263 7.33829C2.6176 7.39183 2.55974 7.44861 2.45157 7.50504C2.43935 7.51079 2.42462 7.51941 2.40557 7.52983L2.47421 7.20388ZM2.68912 7.82057C2.58454 7.81913 2.50727 7.80512 2.45696 7.77816C2.40593 7.75121 2.38401 7.7124 2.38904 7.66065C2.39159 7.64043 2.40112 7.62174 2.41599 7.60782C2.44295 7.59272 2.46415 7.58158 2.47673 7.57476C2.58777 7.51869 2.64923 7.4673 2.6636 7.41915L2.75201 7.11476C2.97266 7.32679 3.26771 7.43604 3.63679 7.44107C3.66662 7.44107 3.71621 7.43891 3.78665 7.43532C3.48025 7.69368 3.08977 7.83074 2.68912 7.82057Z" fill="#D0D2D3"/>
<path d="M2.16003 9.21483C2.1629 9.25868 2.10756 9.30396 2.03676 9.31654C1.96597 9.32947 1.90667 9.30539 1.90379 9.26155L1.7277 6.40488C1.72411 6.36104 1.78089 6.31575 1.85025 6.30318C1.92104 6.29024 1.98034 6.31575 1.98322 6.35888L2.16003 9.21483Z" fill="#A6A8AB"/>
<path d="M2.03147 9.23727L1.85466 6.3806C1.85179 6.35149 1.87658 6.3213 1.91432 6.30154C1.89279 6.29793 1.8708 6.29793 1.84927 6.30154C1.77991 6.31412 1.72313 6.3594 1.72672 6.40324L1.90282 9.25991C1.90569 9.30376 1.96499 9.32783 2.03579 9.3149C2.05801 9.31099 2.07948 9.30359 2.0994 9.29297C2.06022 9.28579 2.03291 9.2653 2.03147 9.23727Z" fill="#939292"/>
<path d="M5.44453 5.70972L5.39062 6.09748C5.39062 6.09748 5.55342 6.19847 5.55953 6.19775C5.566 6.19631 5.9225 6.19919 5.9225 6.19919C5.9225 6.19919 6.33722 5.98213 6.34764 5.97134C6.3577 5.96164 6.43677 5.84269 6.43677 5.84269L6.11548 5.85203L5.76438 5.73092L5.64434 5.62347L5.49305 5.54297L5.44525 5.70972" fill="white"/>
<path d="M5.07129 5.28272L5.10327 5.79986C5.10327 5.79986 5.22295 5.74883 5.23984 5.74344C5.25673 5.73697 5.43785 5.70103 5.43785 5.70103C5.43785 5.70103 5.58771 5.7553 5.59346 5.75458C5.59777 5.75314 5.6258 5.70786 5.6258 5.70786L5.69445 5.41209L5.68546 5.26942L5.53273 5.17383L5.33327 5.17886C5.33327 5.17886 5.1791 5.21336 5.16652 5.2227C5.15502 5.23313 5.07129 5.28272 5.07129 5.28272Z" fill="#E6E7E8"/>
<path d="M6.25199 5.79877C6.01732 5.79589 5.82613 5.72402 5.68202 5.58458L5.7158 5.4552C5.72659 5.41639 5.73341 5.38441 5.73557 5.35889C5.73972 5.32556 5.73533 5.29171 5.72282 5.26053C5.71031 5.22936 5.69009 5.20187 5.66405 5.18064C5.60943 5.13249 5.5372 5.10841 5.44807 5.10697C5.31941 5.10553 5.19471 5.14722 5.07324 5.23347C5.0754 5.26689 5.07899 5.29923 5.08079 5.33122C5.21879 5.24892 5.33487 5.20795 5.42579 5.20939C5.50593 5.21011 5.5681 5.22988 5.61554 5.26833C5.63737 5.28515 5.65449 5.30731 5.66526 5.33268C5.67602 5.35805 5.68006 5.38577 5.67699 5.41316C5.67231 5.44869 5.66522 5.48387 5.65579 5.51845L5.60332 5.70174C5.56451 5.66292 5.50916 5.6428 5.43909 5.64208C5.33379 5.63992 5.22705 5.67838 5.11852 5.75456C5.1214 5.7887 5.12355 5.82248 5.12499 5.85734C5.22526 5.779 5.3266 5.74055 5.42902 5.74127L5.34852 6.10423C5.33846 6.14448 5.35966 6.17791 5.41213 6.20594C5.46316 6.23433 5.53109 6.24834 5.61734 6.24906C5.81137 6.25187 6.00269 6.20326 6.17185 6.10819C6.34723 6.01116 6.50643 5.86849 6.65126 5.67874C6.53423 5.75999 6.39443 5.80202 6.25199 5.79877ZM5.47359 5.74809C5.54151 5.76427 5.57277 5.79338 5.5699 5.83578C5.56559 5.87064 5.52821 5.90586 5.45813 5.94323C5.45095 5.94611 5.44124 5.9515 5.4283 5.95869L5.47359 5.74809ZM5.61266 6.147C5.54474 6.14556 5.49515 6.1373 5.4628 6.12005C5.4301 6.10244 5.41609 6.0762 5.41896 6.04278C5.42145 6.03021 5.42728 6.01853 5.43585 6.009C5.45346 5.99966 5.46676 5.99211 5.47538 5.98708C5.54762 5.9515 5.58751 5.91772 5.59649 5.88717L5.65291 5.69059C5.79595 5.82716 5.98605 5.89795 6.2254 5.90047C6.24373 5.90047 6.27643 5.89975 6.32243 5.89759C6.12425 6.06464 5.87178 6.15336 5.61266 6.147Z" fill="#D0D2D3"/>
<path d="M5.26879 7.04683C5.27167 7.07522 5.23645 7.10433 5.18973 7.1126C5.14445 7.12015 5.10636 7.10505 5.10492 7.0763L4.99028 5.22983C4.98884 5.20216 5.02406 5.17305 5.06934 5.16479C5.11606 5.15652 5.15343 5.17233 5.15559 5.20108L5.26879 7.04683Z" fill="#A6A8AB"/>
<path d="M5.18685 7.06154L5.07365 5.21579C5.0715 5.19747 5.08767 5.1777 5.11175 5.16476C5.09776 5.16188 5.08333 5.16188 5.06934 5.16476C5.02406 5.17303 4.98884 5.20214 4.99028 5.22981L5.10492 7.07628C5.10636 7.10467 5.14445 7.12012 5.18973 7.11257C5.20446 7.11023 5.21861 7.10511 5.23142 7.09748C5.20554 7.09353 5.18829 7.08023 5.18685 7.06154Z" fill="#939292"/>
<path d="M10.036 4.23526L9.98926 4.57343C9.98926 4.57343 10.1316 4.66256 10.137 4.66112C10.1427 4.6604 10.4532 4.66328 10.4532 4.66328C10.4532 4.66328 10.8162 4.47281 10.8234 4.46382C10.8334 4.4552 10.9017 4.35134 10.9017 4.35134L10.6218 4.35961L10.3149 4.25359L10.211 4.16015L10.0787 4.08936L10.036 4.23526Z" fill="white"/>
<path d="M9.70996 3.86291L9.73691 4.31429C9.73691 4.31429 9.84185 4.26973 9.8573 4.2647C9.87204 4.25895 10.0294 4.22768 10.0294 4.22768C10.0294 4.22768 10.1603 4.2744 10.1653 4.2744C10.1689 4.27296 10.1944 4.23343 10.1944 4.23343L10.2544 3.97504L10.2465 3.85141L10.1128 3.7666L9.9378 3.77127C9.9378 3.77127 9.80268 3.80218 9.79262 3.8108C9.7822 3.81907 9.70996 3.86291 9.70996 3.86291Z" fill="#E6E7E8"/>
<path d="M10.7412 4.31283C10.536 4.30996 10.3699 4.24707 10.2424 4.1256L10.2733 4.01311C10.2819 3.97897 10.2884 3.95166 10.2901 3.92902C10.2934 3.89986 10.2894 3.87035 10.2786 3.84309C10.2677 3.81583 10.2504 3.79166 10.228 3.77269C10.1749 3.72985 10.1082 3.70731 10.04 3.70908C9.92682 3.70764 9.81793 3.74466 9.71191 3.81941C9.71479 3.84924 9.71695 3.87763 9.7191 3.90494C9.83913 3.83343 9.9412 3.79821 10.0203 3.79893C10.0896 3.79964 10.145 3.81653 10.1859 3.85068C10.2053 3.86491 10.2205 3.8841 10.2299 3.90623C10.2394 3.92836 10.2427 3.95262 10.2395 3.97646C10.2373 4.00053 10.2312 4.03036 10.2204 4.06846L10.1759 4.22838C10.1421 4.1946 10.0936 4.17735 10.0318 4.17663C9.94048 4.17519 9.84704 4.20825 9.75288 4.27402C9.75432 4.30457 9.75648 4.33403 9.75863 4.36386C9.84632 4.29594 9.93401 4.26216 10.0231 4.2636L9.95305 4.57913C9.94407 4.61543 9.96312 4.64418 10.0084 4.66825C10.053 4.69305 10.1137 4.70527 10.1888 4.70635C10.3577 4.70922 10.5191 4.66753 10.6718 4.58308C10.8253 4.49827 10.964 4.37357 11.0908 4.20825C10.988 4.27863 10.8658 4.31519 10.7412 4.31283ZM10.0616 4.26755C10.1212 4.283 10.1493 4.30708 10.145 4.34482C10.1428 4.375 10.1101 4.40627 10.0486 4.43897C10.0415 4.44185 10.0339 4.44652 10.0231 4.45299L10.0616 4.26755ZM10.1831 4.61722C10.1238 4.61578 10.0799 4.6086 10.0515 4.59243C10.0231 4.57733 10.0106 4.55541 10.0141 4.52666C10.0154 4.515 10.0207 4.50415 10.0292 4.49611C10.044 4.48857 10.0555 4.48138 10.0637 4.47707C10.1252 4.44616 10.1608 4.41705 10.169 4.39082L10.2186 4.21832C10.3433 4.33835 10.5094 4.39944 10.7182 4.40232C10.7351 4.40232 10.7627 4.4016 10.803 4.39944C10.6294 4.54443 10.4092 4.62178 10.1831 4.61722Z" fill="#D0D2D3"/>
<path d="M9.88305 5.4026C9.8852 5.42668 9.85394 5.45219 9.81369 5.45974C9.77416 5.46693 9.74002 5.45255 9.73894 5.42811L9.63975 3.81668C9.6376 3.7926 9.66958 3.76708 9.70911 3.75918C9.74864 3.75199 9.78278 3.76636 9.7835 3.79116L9.88305 5.4026Z" fill="#A6A8AB"/>
<path d="M9.81189 5.41494L9.71235 3.80351C9.71091 3.78805 9.7242 3.77116 9.74541 3.75894C9.73341 3.75678 9.72111 3.75678 9.70911 3.75894C9.66958 3.76685 9.6376 3.79237 9.63975 3.81644L9.73894 5.42788C9.74038 5.45268 9.77416 5.46669 9.81369 5.45951C9.82605 5.45725 9.83803 5.45326 9.84927 5.44765C9.82806 5.44334 9.81261 5.43148 9.81189 5.41494Z" fill="#939292"/>
<path d="M10.7846 14.3601L10.914 15.0914C10.914 15.0914 10.6114 15.2952 10.5999 15.2938C10.5873 15.2923 9.91348 15.3222 9.91348 15.3222C9.91348 15.3222 9.11136 14.9373 9.09088 14.9182C9.07039 14.8988 8.91406 14.6789 8.91406 14.6789L9.52033 14.6746L10.1794 14.4219L10.4001 14.2113L10.6818 14.0464L10.7846 14.3601Z" fill="#F7941E"/>
<path d="M11.4693 13.5241L11.4445 14.5095C11.4445 14.5095 11.213 14.4196 11.1814 14.4099C11.1483 14.4002 10.803 14.3434 10.803 14.3434C10.803 14.3434 10.523 14.4563 10.513 14.4556C10.5033 14.4541 10.4465 14.3689 10.4465 14.3689L10.2959 13.8134L10.3034 13.5424L10.587 13.349L10.9654 13.3447C10.9654 13.3447 11.2619 13.4001 11.2853 13.4184C11.3079 13.4378 11.4693 13.5241 11.4693 13.5241Z" fill="#F7941E"/>
<path d="M8.49316 14.3844C8.7803 14.7341 9.09296 14.9939 9.43185 15.1661C9.77074 15.3382 10.1244 15.4158 10.4931 15.3968C10.6559 15.3892 10.7867 15.3565 10.8823 15.3012C10.9779 15.2441 11.0153 15.1779 10.9941 15.1017L10.8165 14.4204C11.0102 14.4099 11.205 14.4764 11.4009 14.6187C11.4016 14.553 11.4045 14.4879 11.4059 14.4232C11.1953 14.287 10.9912 14.2216 10.7921 14.2324C10.6591 14.2389 10.5556 14.2795 10.483 14.3564L10.3731 14.0125C10.3519 13.9476 10.3354 13.8813 10.3235 13.8141C10.3153 13.762 10.3211 13.7087 10.3402 13.6596C10.3594 13.6105 10.3911 13.5674 10.4324 13.5345C10.5179 13.459 10.6376 13.4174 10.7874 13.4102C10.9599 13.4026 11.1831 13.4709 11.4512 13.6172C11.4533 13.5557 11.4555 13.4935 11.4584 13.431C11.223 13.2761 10.9836 13.2042 10.7396 13.2161C10.57 13.2251 10.4349 13.2761 10.3342 13.3717C10.2354 13.4644 10.1941 13.5798 10.2113 13.7146C10.2185 13.7624 10.2333 13.8224 10.2545 13.8946L10.3306 14.1379C10.064 14.4125 9.70749 14.5627 9.26151 14.5835C8.991 14.6001 8.72221 14.5304 8.49388 14.3844M10.8349 14.8315C10.8157 14.8216 10.7962 14.8121 10.7766 14.8031C10.6408 14.7381 10.5671 14.6723 10.5589 14.6062C10.5491 14.5278 10.6077 14.4707 10.7342 14.434L10.8349 14.8315ZM9.13501 14.7762C9.22054 14.7776 9.28271 14.7776 9.32045 14.7762C9.77182 14.7539 10.129 14.6069 10.3896 14.3374L10.5125 14.7068C10.5323 14.7647 10.6102 14.8257 10.7475 14.8894C10.7644 14.8969 10.7914 14.9109 10.8259 14.9274C10.8434 14.9445 10.8555 14.9664 10.8607 14.9903C10.8683 15.0539 10.8424 15.1035 10.782 15.138C10.7213 15.1736 10.6271 15.1948 10.4996 15.2006C9.9932 15.2261 9.53895 15.0845 9.13501 14.7762Z" fill="#E5851C"/>
<path d="M11.209 16.8855C11.2076 16.938 11.2755 16.9919 11.3632 17.0044C11.4509 17.0163 11.5231 16.9832 11.5245 16.9293L11.6165 13.4197C11.6151 13.3661 11.5465 13.3122 11.4595 13.3004C11.3732 13.2882 11.3003 13.3216 11.2996 13.3751L11.209 16.8855Z" fill="#A6A8AB"/>
<path d="M11.3672 16.9079L11.4585 13.3975C11.4585 13.3612 11.4283 13.3267 11.3816 13.3019C11.4078 13.297 11.4347 13.2966 11.461 13.3005C11.548 13.3123 11.6167 13.3662 11.6181 13.4198L11.5261 16.9294C11.5247 16.9833 11.4524 17.0164 11.3647 17.0045C11.3376 17.0007 11.3113 16.9922 11.2871 16.9794C11.3335 16.9693 11.3672 16.9442 11.3672 16.9079Z" fill="#939292"/>
<path d="M20.6278 9.66028L20.7424 10.3061C20.7424 10.3061 20.4758 10.4858 20.465 10.4843C20.4539 10.4829 19.8602 10.5091 19.8602 10.5091C19.8602 10.5091 19.1518 10.1702 19.1342 10.1526C19.1155 10.1364 18.9775 9.94203 18.9775 9.94203L19.513 9.93843L20.0945 9.71634L20.2878 9.52946L20.5372 9.38428L20.6278 9.66028Z" fill="#F7941E"/>
<path d="M21.2278 8.9229L21.2056 9.79223C21.2056 9.79223 21.0011 9.71317 20.9734 9.70454C20.9443 9.69556 20.6392 9.64596 20.6392 9.64596C20.6392 9.64596 20.3923 9.74551 20.3833 9.74479C20.3743 9.74336 20.3244 9.66861 20.3244 9.66861L20.1914 9.17842L20.199 8.93907L20.4491 8.76873L20.7833 8.76514C20.7833 8.76514 21.0446 8.81401 21.0647 8.82946C21.0855 8.84636 21.2278 8.9229 21.2278 8.9229Z" fill="#F7941E"/>
<path d="M18.6035 9.6813C18.8569 9.99036 19.1329 10.2204 19.4315 10.3717C19.7305 10.523 20.0425 10.5909 20.3673 10.5747C20.5118 10.5675 20.6264 10.5388 20.7098 10.4906C20.7953 10.4396 20.8288 10.3817 20.8101 10.3152L20.653 9.714C20.8245 9.70466 20.9952 9.7636 21.1687 9.88794C21.1695 9.83044 21.1709 9.7733 21.1723 9.7158C20.9869 9.59505 20.8065 9.53827 20.6311 9.54761C20.5132 9.55265 20.4227 9.58858 20.358 9.65722L20.261 9.35391C20.2425 9.29676 20.2281 9.2384 20.2178 9.17925C20.211 9.13335 20.2162 9.08645 20.233 9.04317C20.2497 8.99988 20.2775 8.9617 20.3134 8.93236C20.39 8.86588 20.4945 8.82922 20.6268 8.82275C20.7799 8.81557 20.9758 8.87666 21.2119 9.00604C21.2147 8.95177 21.2162 8.89643 21.219 8.84144C21.0113 8.70488 20.8004 8.64127 20.5837 8.65205C20.4345 8.66032 20.3149 8.7056 20.2265 8.78933C20.1846 8.82672 20.1527 8.874 20.1339 8.92686C20.115 8.97972 20.1096 9.03647 20.1183 9.09193C20.124 9.13361 20.1373 9.1868 20.1557 9.25041L20.2232 9.46496C19.9885 9.70754 19.6737 9.83907 19.2802 9.85883C19.0415 9.87281 18.8046 9.81065 18.6035 9.6813ZM20.6678 10.0759C20.6466 10.0648 20.629 10.0568 20.6175 10.0511C20.4971 9.99396 20.432 9.93574 20.4252 9.87788C20.4158 9.80852 20.4676 9.75785 20.5801 9.72515L20.6678 10.0759ZM19.1688 10.0277C19.2443 10.0285 19.2985 10.0285 19.332 10.0277C19.7302 10.008 20.045 9.87788 20.2757 9.63997L20.3842 9.96664C20.4011 10.017 20.4698 10.0709 20.5905 10.1273C20.6063 10.1338 20.6293 10.1449 20.6606 10.1607C20.6757 10.1758 20.6863 10.1949 20.6911 10.2157C20.6976 10.2725 20.6739 10.3163 20.6218 10.3465C20.5682 10.3771 20.4845 10.3961 20.3727 10.4011C19.9392 10.4284 19.5108 10.2955 19.1688 10.0277Z" fill="#E5851C"/>
<path d="M21.002 11.8879C20.9999 11.9346 21.0602 11.982 21.1375 11.9932C21.2151 12.0036 21.2784 11.9741 21.2798 11.9274L21.3603 8.83104C21.3603 8.7836 21.2996 8.73617 21.223 8.7261C21.1468 8.7146 21.0821 8.74443 21.0814 8.79115L21.002 11.8879Z" fill="#A6A8AB"/>
<path d="M21.1389 11.9072L21.2194 8.81086C21.2194 8.7796 21.1921 8.74869 21.1511 8.72677C21.1744 8.72219 21.1982 8.72195 21.2216 8.72605C21.2981 8.73575 21.3588 8.78355 21.3588 8.83099L21.2783 11.9274C21.2769 11.9741 21.2136 12.0035 21.136 11.9931C21.1121 11.9894 21.0889 11.9819 21.0674 11.9708C21.1084 11.9622 21.1382 11.9392 21.1389 11.9072Z" fill="#939292"/>
<path d="M16.6604 16.2808L16.585 15.6224L17.735 15.083L17.7062 15.7051L16.6604 16.2808Z" fill="#D3E6ED"/>
<path d="M16.6611 16.281L18.7013 18.2004C19.147 17.9563 19.5747 17.6808 19.9814 17.376L17.7062 15.7046L16.6611 16.281Z" fill="#858985"/>
</svg>
