<svg width="20" height="20" viewBox="0 0 20 20" fill="none" xmlns="http://www.w3.org/2000/svg">
<path d="M15.8333 16.6666H4.16667C3.72464 16.6666 3.30072 16.491 2.98816 16.1784C2.67559 15.8659 2.5 15.4419 2.5 14.9999V7.49992C2.5 7.05789 2.67559 6.63397 2.98816 6.32141C3.30072 6.00885 3.72464 5.83325 4.16667 5.83325H15.8333C16.2754 5.83325 16.6993 6.00885 17.0118 6.32141C17.3244 6.63397 17.5 7.05789 17.5 7.49992V14.9999C17.5 15.4419 17.3244 15.8659 17.0118 16.1784C16.6993 16.491 16.2754 16.6666 15.8333 16.6666Z" stroke="black" stroke-width="1.25"/>
<path d="M13.75 11.6666C13.6395 11.6666 13.5335 11.6227 13.4554 11.5445C13.3772 11.4664 13.3333 11.3604 13.3333 11.2499C13.3333 11.1394 13.3772 11.0334 13.4554 10.9553C13.5335 10.8772 13.6395 10.8333 13.75 10.8333C13.8605 10.8333 13.9665 10.8772 14.0446 10.9553C14.1228 11.0334 14.1667 11.1394 14.1667 11.2499C14.1667 11.3604 14.1228 11.4664 14.0446 11.5445C13.9665 11.6227 13.8605 11.6666 13.75 11.6666Z" fill="black" stroke="black" stroke-width="1.25" stroke-linecap="round" stroke-linejoin="round"/>
<path d="M15 5.8333V4.66913C14.9999 4.41372 14.9412 4.16174 14.8282 3.93265C14.7153 3.70356 14.5512 3.50349 14.3487 3.34789C14.1461 3.1923 13.9105 3.08533 13.66 3.03527C13.4096 2.9852 13.151 2.99336 12.9042 3.05913L3.7375 5.5033C3.38254 5.59789 3.06878 5.8071 2.84499 6.0984C2.6212 6.38971 2.49992 6.74679 2.5 7.11413V7.49997" stroke="black" stroke-width="1.25"/>
</svg>
