<svg width="20" height="20" viewBox="0 0 20 20" fill="none" xmlns="http://www.w3.org/2000/svg">
<path d="M14.375 14.375C14.375 15.038 14.1116 15.6739 13.6428 16.1428C13.1739 16.6116 12.538 16.875 11.875 16.875C10.8047 16.875 9.76953 16.1773 9.41406 15.2172C9.35997 15.0626 9.36872 14.893 9.43842 14.7448C9.50812 14.5966 9.6332 14.4816 9.78677 14.4247C9.94033 14.3678 10.1101 14.3734 10.2596 14.4404C10.409 14.5074 10.5262 14.6303 10.5859 14.7828C10.7609 15.2555 11.3281 15.625 11.875 15.625C12.2065 15.625 12.5245 15.4933 12.7589 15.2589C12.9933 15.0245 13.125 14.7065 13.125 14.375C13.125 14.0435 12.9933 13.7255 12.7589 13.4911C12.5245 13.2567 12.2065 13.125 11.875 13.125H3.125C2.95924 13.125 2.80027 13.0592 2.68306 12.9419C2.56585 12.8247 2.5 12.6658 2.5 12.5C2.5 12.3342 2.56585 12.1753 2.68306 12.0581C2.80027 11.9408 2.95924 11.875 3.125 11.875H11.875C12.538 11.875 13.1739 12.1384 13.6428 12.6072C14.1116 13.0761 14.375 13.712 14.375 14.375ZM9.375 8.125C10.038 8.125 10.6739 7.86161 11.1428 7.39277C11.6116 6.92393 11.875 6.28804 11.875 5.625C11.875 4.96196 11.6116 4.32607 11.1428 3.85723C10.6739 3.38839 10.038 3.125 9.375 3.125C8.30469 3.125 7.26953 3.82266 6.91406 4.78281C6.85997 4.93739 6.86872 5.10703 6.93842 5.25523C7.00812 5.40343 7.1332 5.51835 7.28677 5.57527C7.44033 5.63219 7.6101 5.62656 7.75955 5.5596C7.90901 5.49263 8.02621 5.36968 8.08594 5.21719C8.26094 4.74453 8.82812 4.375 9.375 4.375C9.70652 4.375 10.0245 4.5067 10.2589 4.74112C10.4933 4.97554 10.625 5.29348 10.625 5.625C10.625 5.95652 10.4933 6.27446 10.2589 6.50888C10.0245 6.7433 9.70652 6.875 9.375 6.875H1.875C1.70924 6.875 1.55027 6.94085 1.43306 7.05806C1.31585 7.17527 1.25 7.33424 1.25 7.5C1.25 7.66576 1.31585 7.82473 1.43306 7.94194C1.55027 8.05915 1.70924 8.125 1.875 8.125H9.375ZM16.25 5.625C15.1797 5.625 14.1445 6.32266 13.7891 7.28281C13.735 7.43739 13.7437 7.60703 13.8134 7.75523C13.8831 7.90343 14.0082 8.01835 14.1618 8.07527C14.3153 8.13219 14.4851 8.12656 14.6346 8.0596C14.784 7.99263 14.9012 7.86968 14.9609 7.71719C15.1359 7.24453 15.7031 6.875 16.25 6.875C16.5815 6.875 16.8995 7.0067 17.1339 7.24112C17.3683 7.47554 17.5 7.79348 17.5 8.125C17.5 8.45652 17.3683 8.77446 17.1339 9.00888C16.8995 9.2433 16.5815 9.375 16.25 9.375H2.5C2.33424 9.375 2.17527 9.44085 2.05806 9.55806C1.94085 9.67527 1.875 9.83424 1.875 10C1.875 10.1658 1.94085 10.3247 2.05806 10.4419C2.17527 10.5592 2.33424 10.625 2.5 10.625H16.25C16.913 10.625 17.5489 10.3616 18.0178 9.89277C18.4866 9.42393 18.75 8.78804 18.75 8.125C18.75 7.46196 18.4866 6.82607 18.0178 6.35723C17.5489 5.88839 16.913 5.625 16.25 5.625Z" fill="#858585"/>
</svg>
