<svg width="21" height="21" viewBox="0 0 21 21" fill="none" xmlns="http://www.w3.org/2000/svg">
<g clip-path="url(#clip0_1394_4081)">
<path d="M10.5 1.15174C5.33662 1.15174 1.1515 5.33687 1.1515 10.5002C1.1515 15.6636 5.33662 19.8487 10.5 19.8487C15.6634 19.8487 19.8485 15.6636 19.8485 10.5002C19.838 5.34124 15.659 1.16224 10.5009 1.15174H10.5ZM10.5 20.6616C4.88775 20.6616 0.338623 16.1125 0.338623 10.5002C0.338623 4.88799 4.88775 0.338867 10.5 0.338867C16.1122 0.338867 20.6614 4.88799 20.6614 10.5002V10.5134C20.6614 16.1177 16.1184 20.6607 10.514 20.6607L10.5 20.6616Z" fill="black"/>
<path d="M10.5 21C4.71275 20.9702 0.02975 16.2873 0 10.5026V10.5C0 4.70138 4.70138 0 10.5 0C16.2986 0 21 4.70138 21 10.5C20.9702 16.2873 16.2873 20.9702 10.5026 21H10.5ZM10.5 0.67725C5.075 0.67725 0.67725 5.075 0.67725 10.5C0.67725 15.925 5.075 20.3228 10.5 20.3228C15.925 20.3228 20.3228 15.925 20.3228 10.5C20.3193 5.07675 15.9233 0.681625 10.5009 0.67725H10.5ZM10.5 20.1871C5.15025 20.1871 0.812875 15.8497 0.812875 10.5C0.812875 5.15025 5.15025 0.812875 10.5 0.812875C15.8497 0.812875 20.1871 5.15025 20.1871 10.5C20.1871 15.8497 15.8497 20.1871 10.5 20.1871ZM10.5 1.49012C5.52388 1.49012 1.49012 5.52388 1.49012 10.5C1.49012 15.4761 5.52388 19.5099 10.5 19.5099C15.4761 19.5099 19.5099 15.4761 19.5099 10.5V10.4956C19.5099 5.52212 15.4779 1.49012 10.5044 1.49012H10.5Z" fill="black"/>
<path d="M8.46746 8.67163V8.6795C8.46746 9.68575 7.65196 10.5013 6.64571 10.5013H6.63783C6.27614 10.5013 5.92257 10.394 5.62183 10.1931C5.3211 9.99211 5.0867 9.70649 4.94829 9.37233C4.80987 9.03817 4.77366 8.67047 4.84422 8.31573C4.91478 7.96099 5.08896 7.63513 5.34471 7.37938C5.60047 7.12362 5.92632 6.94945 6.28106 6.87889C6.6358 6.80833 7.0035 6.84454 7.33767 6.98296C7.67183 7.12137 7.95744 7.35577 8.15838 7.6565C8.35933 7.95724 8.46658 8.31081 8.46658 8.6725L8.46746 8.67163ZM10.5001 17.2073C10.3922 17.2073 10.2887 17.1644 10.2124 17.0881C10.1361 17.0118 10.0932 16.9083 10.0932 16.8004C10.0932 16.6925 10.1361 16.589 10.2124 16.5127C10.2887 16.4364 10.3922 16.3935 10.5001 16.3935H10.5097C11.7725 16.3936 13.0038 15.9996 14.032 15.2664C15.0601 14.5333 15.8339 13.4976 16.2453 12.3038L16.2585 12.2609C16.2718 12.2117 16.2948 12.1657 16.326 12.1254C16.3573 12.0852 16.3962 12.0516 16.4406 12.0265C16.485 12.0014 16.5339 11.9854 16.5844 11.9794C16.635 11.9734 16.6863 11.9774 16.7353 11.9914L16.7327 11.9905C16.782 12.0037 16.8281 12.0267 16.8684 12.0579C16.9087 12.0891 16.9425 12.128 16.9676 12.1724C16.9928 12.2168 17.0089 12.2657 17.015 12.3163C17.021 12.367 17.017 12.4183 17.0031 12.4674L17.004 12.4648C16.0931 15.2385 13.5267 17.2064 10.501 17.2064L10.5001 17.2073Z" fill="black"/>
<path d="M10.4999 17.5459C10.3029 17.5441 10.1145 17.4651 9.97507 17.3259C9.83568 17.1866 9.75645 16.9983 9.75439 16.8013C9.76762 16.6085 9.85009 16.4269 9.9866 16.2901C10.1231 16.1532 10.3045 16.0703 10.4973 16.0567H10.5664C11.7537 16.0567 12.9104 15.6802 13.8703 14.9813C14.8301 14.2824 15.5437 13.2972 15.9083 12.1673L15.9196 12.1279C15.9743 11.9546 16.0945 11.8095 16.2548 11.7237L16.2583 11.7219C16.4258 11.631 16.6216 11.6072 16.806 11.6554L16.8008 11.6545C16.896 11.6839 16.9842 11.7322 17.0601 11.7967C17.136 11.8613 17.198 11.9405 17.2423 12.0298C17.2865 12.119 17.3122 12.2163 17.3177 12.3157C17.3232 12.4152 17.3084 12.5147 17.2741 12.6083L17.2759 12.603C16.3501 15.4932 13.6875 17.5485 10.5454 17.5485H10.4999H10.5025L10.4999 17.5459ZM10.4999 16.8004C10.4824 16.8179 10.471 16.8415 10.471 16.8678C10.471 16.894 10.4824 16.9185 10.4999 16.9352H10.5148C11.8728 16.9351 13.1964 16.5075 14.298 15.7132C15.3995 14.9188 16.2231 13.798 16.652 12.5094L16.6651 12.4639V12.3965H16.5978C15.7298 14.9752 13.3349 16.7995 10.513 16.7995L10.4999 16.8004ZM15.7158 8.87466H14.2256L14.8355 8.40041C14.8937 8.3575 14.9425 8.30314 14.979 8.24067C15.0154 8.1782 15.0386 8.10894 15.0473 8.03715C15.056 7.96536 15.0498 7.89256 15.0293 7.82322C15.0088 7.75388 14.9744 7.68946 14.928 7.63394C14.8817 7.57841 14.8245 7.53295 14.76 7.50034C14.6954 7.46773 14.6249 7.44866 14.5527 7.44432C14.4806 7.43997 14.4082 7.45043 14.3403 7.47506C14.2723 7.49969 14.21 7.53797 14.1574 7.58753L14.1583 7.58666L12.3969 8.94116C12.3181 9.03916 12.2499 9.15028 12.1974 9.27016L12.1939 9.27978V9.41541C12.2201 9.68316 12.4433 9.88966 12.7154 9.88966H12.7373H12.7364H15.7245C15.7948 9.88977 15.8643 9.87602 15.9292 9.8492C15.9942 9.82237 16.0531 9.78299 16.1028 9.73333C16.1525 9.68366 16.1919 9.62468 16.2187 9.55976C16.2455 9.49485 16.2593 9.42527 16.2591 9.35503V9.34716C16.2467 9.21742 16.1864 9.09696 16.09 9.00927C15.9936 8.92159 15.868 8.87297 15.7376 8.87291H15.7158V8.87466Z" fill="black"/>
</g>
<defs>
<clipPath id="clip0_1394_4081">
<rect width="21" height="21" fill="white"/>
</clipPath>
</defs>
</svg>
