<svg width="68" height="68" viewBox="0 0 68 68" fill="none" xmlns="http://www.w3.org/2000/svg">
<path d="M51.5951 31.5296C52.7745 30.5574 59.5851 26.3446 63.3145 22.7958C66.2257 20.0227 67.352 12.7818 62.8735 9.25958C57.051 4.68552 51.4623 9.48802 51.4623 9.48802C51.4623 9.48802 50.9735 6.77333 47.5735 5.17958C43.2916 3.17146 37.8676 2.4224 32.8791 2.48615C28.0448 2.54458 23.5929 3.12896 19.6404 5.06802C16.1023 6.80521 15.8898 9.28083 15.8898 9.28083C15.8898 9.28083 11.2466 4.84489 5.55696 8.44677C-0.127417 12.054 1.50352 19.2789 4.23946 22.3124C7.80415 26.2649 12.086 28.2783 14.0304 29.7339C15.9695 31.1896 17.8288 32.5761 17.8288 33.8246C17.8288 35.073 17.2763 35.3493 17.0638 35.2802C16.8566 35.2111 16.4901 33.9946 15.5391 34.5152C14.2429 35.2324 14.636 38.1224 17.3401 38.3986C19.9591 38.6696 20.4585 35.9018 20.4585 35.9018L20.8729 33.1977L25.1707 36.178L29.8829 40.0614L29.7448 43.3871C29.7448 43.3871 29.5376 45.953 28.2891 48.1736C27.0407 50.3943 25.0326 52.6096 25.0326 52.6096L24.9688 54.6177L42.4416 54.2033L41.8891 52.2642C41.8891 52.2642 39.6366 49.7886 38.282 47.1324C37.3151 45.2305 37.161 43.3127 37.161 43.3127L37.1185 38.5421L46.187 32.9852C46.187 32.9852 47.1591 33.7502 47.021 34.0264C46.8829 34.3027 46.851 37.1343 49.0291 38.1861C51.1807 39.2274 52.9126 37.9099 52.7054 36.1036C52.4982 34.3027 51.3879 34.9243 51.0426 35.2005C50.6973 35.4768 49.9323 35.5458 49.7251 34.5046C49.5126 33.4739 50.4157 32.5018 51.5951 31.5296ZM6.95415 21.7227L4.87696 15.4008L7.38977 12.1124L10.2054 11.289C10.2054 11.289 13.802 13.9718 13.9295 14.1896C14.057 14.4074 16.2245 18.8646 16.2245 18.8646L19.0826 29.2133L6.95415 21.7227ZM47.786 30.0368C47.8285 29.8189 50.4688 18.9496 50.4688 18.9496C50.4688 18.8221 52.3282 17.9561 52.3282 17.7808C52.3282 17.6055 55.707 12.1071 55.707 12.1071L61.3382 12.3249L62.507 17.9083L59.6913 22.5408C59.6966 22.5461 47.7435 30.2493 47.786 30.0368Z" fill="#FEC417"/>
<path d="M63.7079 16.2786C63.2935 11.3274 58.3954 10.1427 56.382 10.8599C54.3685 11.5771 53.0616 12.9211 52.6154 14.8336C52.2541 16.3796 51.8929 17.4102 51.4785 17.5696C51.0216 17.7396 50.602 17.6705 50.602 17.6705C50.602 17.6705 50.5276 14.3236 50.5488 12.9743C50.602 10.1905 51.452 9.47863 51.452 9.47863C51.452 9.47863 51.2713 8.53832 50.9101 8.0177C50.5488 7.50238 49.8795 6.83301 49.8795 6.83301C49.8795 6.83301 50.0335 8.17176 49.3641 8.4852C48.6948 8.79863 47.9723 8.33113 47.9723 8.33113L48.6416 11.1149C48.6416 11.1149 47.5579 24.9911 47.457 25.2993C47.356 25.6074 43.2813 32.673 43.2813 32.673C43.2813 32.673 40.9066 34.8936 39.7751 35.4089C38.6382 35.9243 37.6607 37.2683 33.2779 37.3161C28.8951 37.3693 25.1285 33.9108 25.1285 33.9108L21.3619 30.2983L18.5782 22.0958L18.1638 13.7393L18.3391 10.7005L18.4613 9.43082L18.2648 8.78801C18.2648 8.78801 17.9035 9.14926 17.2341 8.9952C16.5648 8.84113 16.3044 7.96457 16.3044 7.96457C16.3044 7.96457 16.0441 8.37895 15.9963 8.58613C15.9432 8.79332 15.8901 9.27145 15.8901 9.27145C15.8901 9.27145 16.6126 10.0311 16.7666 11.1149C16.9207 12.1986 16.7135 16.6877 15.9432 16.5814C15.1676 16.4805 15.4226 12.7139 12.4848 11.2689C9.94007 10.0152 6.14164 10.3924 4.59039 13.5374C3.04445 16.6824 4.17601 20.3958 9.02632 23.8543C13.8766 27.3127 19.0404 30.2186 19.8585 32.9918C20.836 36.2908 18.6207 38.2511 18.6207 38.2511C18.6207 38.2511 20.2304 38.028 21.022 36.3014C21.277 35.7436 21.3726 34.9308 21.4098 34.4474C23.2426 36.838 25.681 38.8621 28.911 39.8396C30.1329 40.2593 31.5088 40.4718 33.4213 40.4718C33.6976 40.4718 33.9685 40.4611 34.2395 40.4505C36.476 40.3708 38.3885 39.9511 40.2426 39.0321C42.7448 37.8739 44.6838 36.1049 46.182 34.0968C46.1395 34.5749 46.4316 35.7649 46.9895 36.7052C47.967 38.3574 49.6191 38.4583 49.6191 38.4583C49.6191 38.4583 47.3507 37.1196 47.8129 33.9214C48.2751 30.7233 50.3895 29.5864 53.5876 27.5252C56.7963 25.4586 64.117 21.2299 63.7079 16.2786ZM11.3001 23.2964C9.86039 22.2818 7.33695 20.9271 6.2957 18.8605C4.90914 16.1033 6.03539 12.7724 8.67039 12.3633C14.1423 11.5027 14.2432 18.2974 14.6044 19.1208C14.9657 19.9443 15.9963 19.9974 15.9963 19.9974C15.9963 19.9974 16.0335 20.4543 16.1823 21.3361C16.1876 21.3627 16.1929 21.3839 16.1929 21.4105L16.2088 21.4902C16.3098 22.0905 16.4532 22.8396 16.6551 23.6949L16.671 23.7586C16.7826 24.2421 16.8994 24.6989 17.0216 25.1186C17.266 26.0005 17.5635 26.9514 17.9301 27.9289C17.3988 27.5677 14.3548 25.4586 11.3001 23.2964ZM60.871 19.4768C59.7288 21.3255 57.4179 22.7014 55.7126 23.8596C53.5132 25.3524 50.2407 27.5943 49.3163 28.2211C49.5288 27.658 49.7148 27.1002 49.8848 26.553C50.161 25.8305 50.4532 24.9486 50.6551 23.9977C51.1863 21.5008 51.2766 19.3174 51.2766 19.3174C51.2766 19.3174 52.3604 19.6255 53.0298 18.903C53.6991 18.1805 53.9488 15.9386 54.5757 14.8814C55.5532 13.2293 57.5135 11.5293 60.4566 13.5905C62.1566 14.7858 62.2204 17.288 60.871 19.4768ZM32.1516 42.1346L35.1532 42.0974C35.1532 42.0974 35.2329 45.3752 35.7057 47.8189C36.1785 50.268 36.8107 52.988 36.8107 52.988C36.8107 52.988 30.696 55.0386 30.7332 52.8286C30.7704 50.6186 31.6788 46.3155 31.6788 46.3155C31.6788 46.3155 32.2313 41.1889 32.1516 42.1346Z" fill="#FFA828"/>
<path d="M27.1149 8.06892C27.1149 8.06892 30.4564 7.69173 33.5642 7.73954C36.6721 7.78735 39.8702 8.39829 39.8702 8.39829C39.8702 8.39829 39.6842 18.8002 39.1158 24.6386C38.5527 30.477 36.3427 34.8492 35.753 36.087C35.1846 37.2877 34.7702 37.9305 34.7702 37.9305L31.7739 37.5798L26.5942 27.178L27.1149 8.06892Z" fill="#FFA828"/>
<path d="M23.1147 9.62738C23.1147 9.62738 24.055 9.15457 25.4204 8.63926C26.6582 8.17176 27.7738 8.02832 27.7738 8.02832C27.7738 8.02832 27.8057 14.9239 27.9172 19.8433C28.0129 24.0349 29.5641 30.9039 30.3185 32.7421C31.0729 34.5802 32.4329 37.3852 32.4329 37.3852C32.4329 37.3852 29.6969 36.9921 28.0129 34.8564C27.1257 33.7302 22.9766 25.0177 22.8332 19.2749C22.6897 13.5321 23.2529 9.48395 23.1147 9.62738Z" fill="#FFEFAB"/>
<path d="M21.5581 10.423C21.4625 10.7046 20.7134 16.6386 21.8875 22.1424C23.0616 27.6461 24.7988 31.4127 25.9463 32.9055C26.9663 34.2283 27.6303 34.8552 28.0075 34.8552C28.3847 34.8552 26.4563 30.2918 25.5584 26.7111C24.6659 23.1358 24.1931 18.8486 24.0975 16.7343C24.0019 14.6146 23.9116 9.15332 23.9116 9.15332C23.9116 9.15332 22.8756 9.62613 22.6419 9.76426C22.4081 9.9077 21.5581 10.423 21.5581 10.423Z" fill="#FFFCFD"/>
<path d="M28.3372 52.5991C28.3372 52.5991 30.3612 49.3053 30.7862 46.8084C31.2112 44.3116 31.445 42.1016 31.445 42.1016L32.6987 42.1547C32.6987 42.1547 32.5765 45.7725 32.4331 48.2216C32.2897 50.6706 31.87 53.0719 31.87 53.0719L28.3372 52.5991Z" fill="#FFEFAB"/>
<path d="M29.8933 40.0612C29.8933 40.0612 30.8336 39.1421 33.4208 39.1421C36.0079 39.1421 37.1183 40.1356 37.1183 40.1356L37.1873 43.3284C37.1873 43.3284 35.4661 42.7918 33.3729 42.7653C31.6304 42.744 29.7551 43.3921 29.7551 43.3921L29.8933 40.0612ZM18.5936 8.35089C19.0292 7.94714 23.2048 4.81277 33.0914 4.72777C43.727 4.63214 47.7167 7.71339 47.9664 7.88339C48.2479 8.06933 48.5773 8.91933 48.4392 9.29652C48.2958 9.6737 48.0142 9.81183 47.2173 9.48245C46.4151 9.15308 42.4626 6.26839 32.9533 6.56589C23.8211 6.84745 19.9483 9.62589 19.5392 9.85964C19.2098 10.0456 18.5989 10.0934 18.3173 9.7162C18.0304 9.34433 18.312 8.61652 18.5936 8.35089ZM48.4392 10.5662C47.2173 10.6618 48.062 20.5006 45.4748 26.6631C42.7017 33.2559 39.1636 35.1365 39.307 35.5137C39.4504 35.8909 42.9142 34.8443 45.0976 31.7471C47.1217 28.8784 48.3436 26.3337 48.912 22.9443C49.4698 19.555 49.7992 10.46 48.4392 10.5662ZM18.3333 11.6925C18.0251 11.6765 18.3386 16.5853 17.8392 18.7421C17.648 19.5709 17.1804 19.7409 17.1326 19.9268C17.0848 20.1128 18.1579 26.4293 19.9589 29.2025C21.7014 31.8853 25.1386 35.2268 25.7017 34.6637C26.2648 34.1006 23.2048 32.2146 21.1383 28.1187C19.9483 25.7706 18.737 22.2325 18.6892 18.1843C18.6573 15.5068 18.992 11.7296 18.3333 11.6925Z" fill="#D1701C"/>
<path d="M46.0966 59.8767L46.0913 52.2852H21.7228C21.7972 52.2852 21.7388 58.4583 21.7282 59.9033H18.2644V65.4017H49.2097V59.9033L46.0966 59.8767Z" fill="#865C50"/>
<path d="M29.5321 56.2767C28.9317 56.2502 28.2411 56.3723 28.2146 57.1161C28.188 57.8598 28.188 60.0114 28.188 60.4205C28.188 60.8295 28.5227 61.1855 29.3621 61.212C30.2014 61.2386 38.0799 61.212 38.6324 61.212C39.1849 61.212 39.4717 60.7339 39.493 60.2558C39.5196 59.7777 39.4664 57.7642 39.4664 57.217C39.4664 56.3086 38.6536 56.3086 38.1011 56.3086C37.5061 56.298 29.5321 56.2767 29.5321 56.2767Z" fill="#FCC219"/>
</svg>
