<svg width="36" height="25" viewBox="0 0 36 25" fill="none" xmlns="http://www.w3.org/2000/svg">
<g clip-path="url(#clip0_1394_3961)">
<path d="M34.7703 3.89931C34.5664 3.14563 34.1685 2.45853 33.6165 1.90643C33.0644 1.35432 32.3773 0.956474 31.6236 0.7525C28.8645 0 17.7598 0 17.7598 0C17.7598 0 6.65447 0.0227777 3.8953 0.775278C3.14162 0.979264 2.45453 1.37713 1.90245 1.92926C1.35037 2.4814 0.952557 3.16852 0.748638 3.92222C-0.0859455 8.82472 -0.409696 16.295 0.771554 21.0014C0.975495 21.7551 1.37331 22.4422 1.92539 22.9943C2.47748 23.5464 3.16456 23.9442 3.91822 24.1482C6.67739 24.9007 17.7824 24.9007 17.7824 24.9007C17.7824 24.9007 28.8873 24.9007 31.6463 24.1482C32.4 23.9442 33.0871 23.5464 33.6392 22.9943C34.1913 22.4422 34.5891 21.7551 34.7931 21.0014C35.6734 16.0919 35.9446 8.62625 34.7703 3.89931Z" fill="#FF0000"/>
<path d="M14.2251 17.7859L23.4373 12.4501L14.2251 7.11426V17.7859Z" fill="white"/>
</g>
<defs>
<clipPath id="clip0_1394_3961">
<rect width="35.5556" height="25" fill="white"/>
</clipPath>
</defs>
</svg>
