<svg xmlns="http://www.w3.org/2000/svg" xmlns:xlink="http://www.w3.org/1999/xlink" fill="none" version="1.1" width="24" height="24" viewBox="0 0 24 24"><defs><clipPath id="master_svg0_51_09927"><rect x="0" y="0" width="24" height="24" rx="0"/></clipPath></defs><g clip-path="url(#master_svg0_51_09927)"><g><path d="M10.0365064453125,-0.0872211125C10.1381064453125,-0.0883343125,10.2397064453125,-0.09019221250000001,10.3414064453125,-0.0922774125C10.8147064453125,-0.1019146325,11.2878064453125,-0.1049640525,11.7612064453125,-0.1050486425C11.8743064453125,-0.1051584925,11.9874064453125,-0.1055528815,12.1005064453125,-0.1060316965C14.3374064453125,-0.1148342225,16.2936064453125,0.008595687500000004,18.3100064453125,1.0673846875C18.7187064453125,1.2801546875,19.1476064453125,1.4325246875,19.5809064453125,1.5868446875C20.3962064453125,1.8788646875,21.1029064453125,2.1869346875,21.5625064453125,2.9534346875C21.7478064453125,3.3469946875,21.8862064453125,3.7601846875,22.0257064453125,4.1716346875C22.0474064453125,4.2353146875,22.0691064453125,4.2989946875,22.0909064453125,4.3626746875C22.1615064453125,4.5695746875,22.2316064453125,4.7766246875,22.3017064453125,4.9837046875C22.3197064453125,5.0369246875,22.3197064453125,5.0369246875,22.3380064453125,5.0912246875C22.4516064453125,5.4269946875,22.5649064453125,5.7628446875,22.6778064453125,6.0988246875C22.8212064453125,6.5252846875,22.9655064453125,6.9514046875,23.1110064453125,7.3771146875C23.2139064453125,7.6783546875,23.3157064453125,7.979954687499999,23.4168064453125,8.2818346875C23.4768064453125,8.4612546875,23.5374064453125,8.6404946875,23.5991064453125,8.8193546875C24.2093064453125,10.5899546875,24.2093064453125,10.5899546875,23.9584064453125,11.1567546875C23.8709064453125,11.3149546875,23.7826064453125,11.4391546875,23.6367064453125,11.5462546875C23.6079064453125,11.5682546875,23.5791064453125,11.5903546875,23.5495064453125,11.6130546875C23.2843064453125,11.7530546875,22.9830064453125,11.7815546875,22.6880064453125,11.8023546875C22.6526064453125,11.8051546875,22.6173064453125,11.8079546875,22.5809064453125,11.8107546875C22.4654064453125,11.8196546875,22.3498064453125,11.8281546875,22.2343064453125,11.8366546875C22.1534064453125,11.8427546875,22.0725064453125,11.8489546875,21.9916064453125,11.8551546875C21.8227064453125,11.8680546875,21.6538064453125,11.8806546875,21.4849064453125,11.8931546875C21.2686064453125,11.9091546875,21.0524064453125,11.9255546875,20.8362064453125,11.9420546875C20.6294064453125,11.9577546875,20.4225064453125,11.9733546875,20.2157064453125,11.9889546875C20.1764064453125,11.9919546875,20.1371064453125,11.9948546875,20.0966064453125,11.9979546875C19.9853064453125,12.0063546875,19.8739064453125,12.0146546875,19.7625064453125,12.0228546875C19.7297064453125,12.0253546875,19.6970064453125,12.0278546875,19.6632064453125,12.0303546875C19.4989064453125,12.0423546875,19.3365064453125,12.0481546875,19.1718064453125,12.0471546875C19.1720064453125,12.1020546875,19.1722064453125,12.1569546875,19.1724064453125,12.2135546875C19.1764064453125,13.5164546875,19.1795064453125,14.8193546875,19.1814064453125,16.1221546875C19.1816064453125,16.2824546875,19.1819064453125,16.4427546875,19.1821064453125,16.6030546875C19.1822064453125,16.6349546875,19.1822064453125,16.6668546875,19.1823064453125,16.6997546875C19.1831064453125,17.2167546875,19.1846064453125,17.7337546875,19.1863064453125,18.2507546875C19.1880064453125,18.7810546875,19.1891064453125,19.3114546875,19.1895064453125,19.8417546875C19.1897064453125,20.1396546875,19.1903064453125,20.4376546875,19.1917064453125,20.7355546875C19.1929064453125,21.0158546875,19.1933064453125,21.2960546875,19.1930064453125,21.5763546875C19.1931064453125,21.6793546875,19.1935064453125,21.7823546875,19.1942064453125,21.8853546875C19.1951064453125,22.0257546875,19.1949064453125,22.1660546875,19.1944064453125,22.3063546875C19.1949064453125,22.3474546875,19.1955064453125,22.3884546875,19.1960064453125,22.4307546875C19.1933064453125,22.7060546875,19.1933064453125,22.7060546875,19.0839064453125,22.8517546875C18.9706064453125,22.9318546875,18.8686064453125,22.9769546875,18.7370064453125,23.0212546875C18.6875064453125,23.0379546875,18.6380064453125,23.0547546875,18.5870064453125,23.0720546875C18.5335064453125,23.0892546875,18.4799064453125,23.1065546875,18.4248064453125,23.1243546875C18.3686064453125,23.1426546875,18.3125064453125,23.1609546875,18.2546064453125,23.1797546875C16.6096064453125,23.7035546875,14.8705064453125,24.0145546875,13.1423064453125,24.0160546875C13.0558064453125,24.0163546875,12.9693064453125,24.0166546875,12.8828064453125,24.0169546875C12.7023064453125,24.0175546875,12.5219064453125,24.0177546875,12.3414064453125,24.0176546875C12.1599064453125,24.0176546875,11.9785064453125,24.0183546875,11.7970064453125,24.0196546875C9.5736364453125,24.0351546875,7.4310064453125,23.7543546875,5.3158764453125,23.0395546875C5.2628564453125,23.0216546875,5.2098364453125,23.0037546875,5.1552064453125,22.9852546875C4.9993564453125,22.9148546875,4.9299864453125,22.8721546875,4.8280864453125,22.7346546875C4.8003864453125,22.5920546875,4.8036064453125,22.4513546875,4.8055364453125,22.3063546875C4.8053764453125,22.2625546875,4.8052164453125,22.2187546875,4.8050564453125,22.1736546875C4.8047464453125,22.0265546875,4.8057764453125,21.8794546875,4.8067964453125,21.7323546875C4.8068564453125,21.6269546875,4.8068264453125,21.5216546875,4.8067164453125,21.4163546875C4.8066664453125,21.1300546875,4.8077664453125,20.8438546875,4.8090764453125,20.5575546875C4.8102464453125,20.2585546875,4.8103564453125,19.9594546875,4.8105764453125,19.6604546875C4.8110964453125,19.1584546875,4.8122664453125,18.6563546875,4.8139464453125,18.1543546875C4.8156664453125,17.6372546875,4.8169864453125,17.1201546875,4.8177864453125,16.6030546875C4.8178564453125,16.5552546875,4.8178564453125,16.5552546875,4.8179364453125,16.5064546875C4.8181764453125,16.3465546875,4.8184164453125,16.1866546875,4.8186464453125,16.0267546875C4.8205964453125,14.7002546875,4.8239064453125,13.3737546875,4.8280864453125,12.0471546875C4.7875164453125,12.0445546875,4.7469464453125,12.0419546875,4.7051464453125,12.0392546875C4.5512364453125,12.0294546875,4.3973264453125,12.0195546875,4.2434264453125,12.0096546875C4.1774464453125,12.0053546875,4.1114664453125,12.0011546875,4.0454864453125,11.9968546875C3.4466964453125,11.9584546875,2.8480564453125,11.9183546875,2.2496764453125,11.8739546875C2.1446064453125,11.8662546875,2.0395164453125,11.8587546875,1.9344164453125,11.8514546875C1.7780164453125,11.8406546875,1.6216864453125,11.8290546875,1.4653564453125,11.8173546875C1.3958464453125,11.8127546875,1.3958464453125,11.8127546875,1.3249364453125,11.8080546875C0.9079904453125,11.7754546875,0.5309874453125,11.7099546875,0.20961744531249998,11.4281546875C-0.0673544546875,11.0908546875,-0.0587141546875,10.6924546875,-0.0228276546875,10.2793546875C0.059271445312500004,9.7244346875,0.2729514453125,9.1846746875,0.4545064453125,8.6558146875C0.5189654453125,8.4671446875,0.5818714453125,8.2779446875,0.6449834453125,8.0888146875C0.7509944453125,7.7718646875,0.8580514453125,7.4552746875,0.9658464453125,7.1389146875C1.1036964453125,6.7343046875,1.2397764453125,6.3291246875,1.3753064453125,5.9237346875C1.4926364453125,5.5728546875,1.6107964453125,5.2222546875,1.7290764453125,4.8717046875C1.7667164453125,4.7600446875,1.8042264453125,4.6483546875,1.8417264453125,4.5366646875C1.9008864453125,4.3606246875,1.9605664453124998,4.1847646875,2.0206364453125,4.0090246875C2.0424464453125,3.9449746875000002,2.0641064453125,3.8808646875,2.0855864453125,3.8166946875C2.3431264453125,3.0482346875,2.6619964453125,2.4372846875,3.3749564453125,2.0159346875C3.8346964453125,1.7991946875,4.3131464453125,1.6241246875,4.7890864453125,1.4468446875C4.8607864453125,1.4200046875,4.9324864453125,1.3931546875,5.0041764453125,1.3662946875C5.1917464453125,1.2960546875,5.3793764453125,1.2260046875,5.5670264453125,1.1560046875C5.7167564453125,1.1001046875,5.8664464453125,1.0440746875,6.0161264453125,0.9880346874999999C6.2657564453125,0.8945946874999999,6.5154064453125,0.8012196875,6.7650864453125,0.7079186875C6.7975264453125,0.6957686875,6.8299664453125,0.6836176875,6.8633864453125,0.6710986875C6.9306464453125,0.6460766875,6.9980164453125,0.6213246875,7.0654764453125,0.5968286875C7.2761164453125,0.5198916875,7.4827164453125,0.4368936875,7.6887664453125,0.3483336875C8.4731764453125,0.020532687500000008,9.1927564453125,-0.0794861125,10.0365064453125,-0.0872211125ZM9.5155864453125,0.8440606875C9.6067564453125,1.4822846875,9.9332164453125,1.9790746874999998,10.4238064453125,2.3905646875C10.9910064453125,2.8141646875,11.6798064453125,3.0232846875,12.3867064453125,2.9270646875C12.8771064453125,2.8220646875,13.2974064453125,2.6096446875,13.6875064453125,2.2971846875C13.7168064453125,2.2738046875,13.7461064453125,2.2504146875,13.7763064453125,2.2263246875C14.1072064453125,1.9297246874999998,14.3678064453125,1.4581946875,14.4843064453125,1.0315646875C14.4843064453125,0.9696846875,14.4843064453125,0.9078146874999999,14.4843064453125,0.8440606875C12.8446064453125,0.8440606875,11.2050064453125,0.8440606875,9.5155864453125,0.8440606875ZM8.2646064453125,1.1253146875C8.2077764453125,1.1514146875,8.2077764453125,1.1514146875,8.1498064453125,1.1780446875C8.1065664453125,1.1983446875,8.1065664453125,1.1983446875,8.0624664453125,1.2190646875C8.1170564453125,2.0015846875,8.6125664453125,2.6902246875,9.1405864453125,3.2346846875C9.1658464453125,3.2633846875,9.1911064453125,3.2920846875,9.2171264453125,3.3216646875C9.8835664453125,4.0534046875,10.9261064453125,4.4003046875,11.8889064453125,4.4499446875C12.8852064453125,4.4822646875,13.9088064453125,4.1259446875,14.6455064453125,3.4485546875C14.7342064453125,3.3631746875,14.8201064453125,3.2759046875,14.9062064453125,3.1878146875C14.9437064453125,3.1513146875,14.9811064453125,3.1148146875,15.0197064453125,3.0772146875C15.4429064453125,2.6423846875,15.8284064453125,2.0100446875,15.9375064453125,1.4065646875C15.9355064453125,1.2802046875,15.9355064453125,1.2802046875,15.8906064453125,1.1721846875C15.8099064453125,1.1138146875,15.8099064453125,1.1138146875,15.7089064453125,1.0872246875C15.6762064453125,1.0762846875,15.6434064453125,1.0653546875,15.6097064453125,1.0540846875C15.5089064453125,1.0261046875,15.5089064453125,1.0261046875,15.3750064453125,1.0315646875C15.3585064453125,1.0859446875,15.3420064453125,1.1403246875,15.3250064453125,1.1963546875C15.0090064453125,2.2088746875,14.4919064453125,2.9290346875,13.5554064453125,3.4485546875C12.7093064453125,3.8624046875,11.7313064453125,3.8865546875,10.8427064453125,3.6008946875C9.9218864453125,3.2705846875,9.2989564453125,2.6621646875,8.8759964453125,1.7901646875C8.7710664453125,1.5437046875,8.6957264453125,1.2896246875,8.6249664453125,1.0315646875C8.4732464453125,1.0315646875,8.4005464453125,1.0622646875,8.2646064453125,1.1253146875ZM6.8448764453125,1.6474846875C6.8018664453125,1.6634846875,6.8018664453125,1.6634846875,6.7579964453125,1.6798146875C6.6628464453125,1.7152846875,6.5677964453125,1.7509746875,6.4727364453125,1.7866846875C6.4065164453125,1.8114646875,6.3402864453125,1.8362446875,6.2740564453125,1.8610046875C6.1349164453125,1.9130846875,5.9958164453125,1.9652746875,5.8567464453125,2.0175346875C5.6793764453125,2.0841846875,5.5018864453125,2.1505146875,5.3243564453125,2.2167446875C5.1873264453125,2.2679146875,5.0503764453125,2.3192746875,4.9134364453125,2.3706946875C4.8480964453125,2.3951946875,4.7827264453125,2.4196446875,4.7173364453125,2.4440146875C3.9305264453125,2.7375646875,3.4478864453125,2.9686046875,3.0862064453125,3.7543346875C2.9767464453125,4.0038246875,2.8924064453125,4.2622746875,2.8073464453125,4.5208146875C2.7856364453125,4.5855846875,2.7638764453125,4.6503446875,2.7420864453125,4.7150846875C2.6838364453125,4.8885646875,2.6261864453125,5.0622346875,2.5686964453125,5.2359646875C2.5081264453125,5.4186646875,2.4470664453125,5.6012146875,2.3860864453125,5.7837746875C2.2839764453125,6.0897146875,2.1822664453125,6.3957946875,2.0808064453125,6.7019446875C1.9636364453125,7.0554746875,1.8458064453125,7.4087846875,1.7276364453125,7.7619846875C1.6135464453125,8.1030346875,1.4999264453125,8.4442546875,1.3865264453125,8.7855346875C1.3384064453125,8.9303246875,1.2901164453125,9.0750446875,1.2416964453125,9.2197246875C1.1847864453125,9.3898246875,1.1282964453125,9.5600446875,1.0721264453125,9.7303846875C1.0514864453125,9.7927446875,1.0306964453125,9.8550646875,1.0097664453125,9.9173546875C0.9811664453125,10.0024546875,0.9531404453125,10.0877546875,0.9251424453125,10.1731546875C0.9093224453125,10.2207546875,0.8935024453125,10.2683546875,0.8772024453125,10.3174546875C0.8413674453125,10.4629546875,0.8325734453125,10.5853546875,0.8437114453125,10.7346546875C0.9495364453125,10.8602546875,1.0277564453125,10.8747546875,1.1895264453125,10.9028546875C1.2532464453125,10.9082546875,1.3170364453125,10.9129546875,1.3808564453125,10.9170546875C1.4157864453125,10.9198546875,1.4507164453125,10.9226546875,1.4867064453125,10.9254546875C1.6019264453125,10.9344546875,1.7171964453125,10.9425546875,1.8324764453125,10.9505546875C1.9126864453125,10.9566546875,1.9928964453125002,10.9627546875,2.0730964453125,10.9688546875C2.2841364453125,10.9849546875,2.4952264453125,11.0002546875,2.7063264453125,11.0153546875C2.9210064453125,11.0308546875,3.1356164453125,11.0472546875,3.3502464453125,11.0634546875C3.6637864453125,11.0869546875,3.9773364453125,11.1103546875,4.2909464453125,11.1329546875C4.3401164453125,11.1365546875,4.3401164453125,11.1365546875,4.3902864453125,11.1402546875C4.5369364453125,11.1507546875,4.6809164453125,11.1565546875,4.8280864453125,11.1565546875C4.8284964453125,11.1050546875,4.8284964453125,11.1050546875,4.8289164453125,11.0525546875C4.8316364453125,10.7290546875,4.8350164453125,10.4055546875,4.8391364453125,10.0820546875C4.8412364453125,9.9157546875,4.8430764453125,9.7494646875,4.8443264453125,9.5831446875C4.8457764453125,9.3919646875,4.8483464453125,9.2008146875,4.8509764453125,9.0096446875C4.8512764453125,8.9498746875,4.8515764453125,8.8901146875,4.8518864453125,8.8285346875C4.8528064453125,8.7731746875,4.8537364453125,8.7178146875,4.8546964453125,8.6607746875C4.8552164453125,8.6119546875,4.8557364453125,8.5631346875,4.8562664453125,8.5128346875C4.8749664453125,8.3909346875,4.8749664453125,8.3909346875,4.9395864453125,8.3049246875C5.0451364453125,8.2290746875,5.1211264453125,8.2315846875,5.2499664453125,8.2327346875C5.2905664453125,8.2323646875,5.3311764453125,8.2320046875,5.3730064453125,8.2316346875C5.4843364453125,8.2503146875,5.4843364453125,8.2503146875,5.5663664453125,8.3070746875C5.6817364453125,8.4721946875,5.6777464453125,8.6699046875,5.6783364453125,8.8657146875C5.6785964453125,8.9133746875,5.6788464453125,8.9610246875,5.6791164453125,9.0101246875C5.6791564453125,9.0621546875,5.6792064453125,9.1141846875,5.6792564453125,9.1677846875C5.6795964453125,9.2510646875,5.6795964453125,9.2510646875,5.6799564453125,9.3360246875C5.6805464453125,9.4899546875,5.6809364453125,9.6438746875,5.6812364453125,9.7978046875C5.6816164453125,9.9638546875,5.6822564453125,10.1299546875,5.6828664453125,10.2959546875C5.6838864453125,10.5836546875,5.6847364453125,10.8712546875,5.6854764453125,11.1589546875C5.6865364453125,11.5748546875,5.6878564453125,11.9906546875,5.6892364453125,12.4065546875C5.6914764453125,13.0813546875,5.6935064453125,13.7560546875,5.6953964453125,14.4308546875C5.6972464453125,15.0862546875,5.6991864453125,15.7417546875,5.7012564453125,16.3972546875C5.7013864453125,16.4376546875,5.7015164453125,16.4780546875,5.7016464453125,16.5196546875C5.7022864453125,16.7223546875,5.7029264453125,16.9250546875,5.7035764453125,17.1277546875C5.7089164453125,18.8091546875,5.7139264453125,20.4906546875,5.7187064453125,22.1721546875C5.7939464453125,22.2024546875,5.8692064453125,22.2327546875,5.9444764453125,22.2629546875C5.9863864453125,22.2798546875,6.0282964453125,22.2967546875,6.0714764453125,22.3140546875C7.2942564453125,22.7948546875,8.6838564453125,22.9854546875,9.9843064453125,23.1096546875C10.0490064453125,23.1160546875,10.0490064453125,23.1160546875,10.1149064453125,23.1224546875C12.8181064453125,23.3687546875,15.7188064453125,23.1459546875,18.2812064453125,22.2190546875C18.3576064453125,22.1426546875,18.3341064453125,22.0571546875,18.3342064453125,21.9515546875C18.3344064453125,21.8795546875,18.3344064453125,21.8795546875,18.3347064453125,21.8060546875C18.3347064453125,21.7526546875,18.3346064453125,21.6993546875,18.3345064453125,21.6442546875C18.3347064453125,21.5880546875,18.3348064453125,21.5318546875,18.3350064453125,21.4739546875C18.3353064453125,21.3171546875,18.3354064453125,21.1604546875,18.3354064453125,21.0036546875C18.3355064453125,20.8349546875,18.3359064453125,20.6661546875,18.3362064453125,20.4973546875C18.3367064453125,20.2046546875,18.3371064453125,19.9119546875,18.3374064453125,19.6192546875C18.3379064453125,19.1569546875,18.3389064453125,18.6945546875,18.3399064453125,18.2321546875C18.3403064453125,18.0741546875,18.3406064453125,17.9160546875,18.3410064453125,17.7580546875C18.3411064453125,17.6987546875,18.3411064453125,17.6987546875,18.3412064453125,17.6383546875C18.3422064453125,17.1883546875,18.3431064453125,16.7383546875,18.3439064453125,16.2883546875C18.3440064453125,16.2472546875,18.3441064453125,16.2060546875,18.3441064453125,16.1636546875C18.3454064453125,15.4966546875,18.3463064453125,14.8295546875,18.3470064453125,14.1624546875C18.3479064453125,13.4782546875,18.3492064453125,12.7940546875,18.3510064453125,12.1098546875C18.3521064453125,11.6874546875,18.3528064453125,11.2650546875,18.3529064453125,10.8426546875C18.3530064453125,10.5533546875,18.3536064453125,10.2640546875,18.3546064453125,9.9747546875C18.3551064453125,9.8075946875,18.3555064453125,9.6405046875,18.3552064453125,9.4733946875C18.3549064453125,9.2924946875,18.3557064453125,9.1116146875,18.3566064453125,8.9307246875C18.3563064453125,8.8775346875,18.3561064453125,8.8243546875,18.3558064453125,8.7695646875C18.3562064453125,8.7213146875,18.3566064453125,8.6730546875,18.3570064453125,8.6233346875C18.3571064453125,8.5815446875,18.3572064453125,8.5397646875,18.3572064453125,8.4967146875C18.3787064453125,8.3688146875,18.4128064453125,8.3271946875,18.5156064453125,8.2503146875C18.6269064453125,8.2316346875,18.6269064453125,8.2316346875,18.7500064453125,8.2327346875C18.7906064453125,8.2323646875,18.8312064453125,8.2320046875,18.8730064453125,8.2316346875C19.0095064453125,8.2545346875,19.0424064453125,8.2811046875,19.1250064453125,8.3909346875C19.1436064453125,8.5128346875,19.1436064453125,8.5128346875,19.1452064453125,8.6607746875C19.1461064453125,8.7161346875,19.1471064453125,8.7714946875,19.1480064453125,8.8285346875C19.1485064453125,8.9181846875,19.1485064453125,8.9181846875,19.1489064453125,9.0096446875C19.1502064453125,9.1014246875,19.1502064453125,9.1014246875,19.1515064453125,9.1950646875C19.1537064453125,9.3575846875,19.1551064453125,9.5200946875,19.1563064453125,9.6826246875C19.1577064453125,9.8485346875,19.1599064453125,10.0144546875,19.1620064453125,10.1803546875C19.1661064453125,10.5057546875,19.1692064453125,10.8311546875,19.1718064453125,11.1565546875C19.8127064453125,11.1142546875,20.4534064453125,11.0706546875,21.0940064453125,11.0257546875C21.2291064453125,11.0162546875,21.3641064453125,11.0070546875,21.4992064453125,10.9977546875C21.7014064453125,10.9837546875,21.9036064453125,10.9691546875,22.1058064453125,10.9539546875C22.1808064453125,10.9484546875,22.2558064453125,10.9430546875,22.3309064453125,10.9379546875C22.4352064453125,10.9308546875,22.5393064453125,10.9229546875,22.6435064453125,10.9148546875C22.7021064453125,10.9105546875,22.7606064453125,10.9063546875,22.8209064453125,10.9019546875C23.0195064453125,10.8696546875,23.0195064453125,10.8696546875,23.1562064453125,10.7346546875C23.1427064453125,10.3582546875,23.0254064453125,10.0209546875,22.9062064453125,9.6663746875C22.8849064453125,9.6020446875,22.8637064453125,9.5377046875,22.8425064453125,9.4733546875C22.7850064453125,9.2995646875,22.7271064453125,9.1259546875,22.6690064453125,8.9523946875C22.6203064453125,8.8069646875,22.5720064453125,8.6614546875,22.5236064453125,8.5159446875C22.4095064453125,8.1723346875,22.2949064453125,7.8288546875,22.1800064453125,7.4854746875C22.0619064453125,7.1324546875,21.9444064453125,6.7792246875,21.8273064453125,6.4258746875C21.7264064453125,6.1214346875,21.6251064453125,5.8171346875,21.5235064453125,5.5129346875C21.4629064453125,5.3317146875,21.4025064453125,5.1504646875,21.3425064453125,4.9690846875C21.2860064453125,4.7983346875,21.2290064453125,4.6277546875,21.1716064453125,4.4572846875C21.1507064453125,4.3951246875,21.1301064453125,4.3329046875,21.1096064453125,4.2706246875C20.8981064453125,3.6284646875,20.6744064453125,3.0672046875,20.0455064453125,2.7495146875C19.7398064453125,2.6000146875,19.4221064453125,2.4838346875,19.1030064453125,2.3665846875C19.0387064453125,2.3427646875,18.9744064453125,2.3189246875,18.9102064453125,2.2950746875C18.7766064453125,2.2455546875,18.6430064453125,2.1962046875,18.5093064453125,2.1470046875C18.3378064453125,2.0838746875,18.1665064453125,2.0203746875,17.9952064453125,1.9567546875000001C17.8630064453125,1.9076946874999998,17.7307064453125,1.8587946875,17.5985064453125,1.8099446875C17.5352064453125,1.7865646875,17.4720064453125,1.7631446875,17.4088064453125,1.7396846875C17.3209064453125,1.7071146875,17.2329064453125,1.6747746875,17.1449064453125,1.6424346875C17.0949064453125,1.6239846875,17.0449064453125,1.6055446875,16.9934064453125,1.5865346875C16.8809064453125,1.5422546875,16.8809064453125,1.5422546875,16.7812064453125,1.5471846875C16.7692064453125,1.5920846875,16.7572064453125,1.6369746875,16.7448064453125,1.6832346875C16.4202064453125,2.8347046875,15.7400064453125,3.8542246875,14.7187064453125,4.5003146875C14.6828064453125,4.5242346875,14.6469064453125,4.5481646875,14.6099064453125,4.5728246875C13.4784064453125,5.2972746875,12.1271064453125,5.4077846875,10.8343064453125,5.1701146875C10.1376064453125,5.0067846875,9.4544064453125,4.6794346875,8.9062064453125,4.2190646875C8.8458464453125,4.1683946875,8.8458464453125,4.1683946875,8.7842664453125,4.1167046875C8.0123864453125,3.4439346875,7.4387564453125,2.5551846875,7.2187064453125,1.5471846875C7.0813064453125,1.5471846875,6.9735364453125,1.5993946875,6.8448764453125,1.6474846875Z" fill="#666666" fill-opacity="1" style="mix-blend-mode:passthrough"/></g></g></svg>