<svg width="12" height="12" viewBox="0 0 12 12" fill="none" xmlns="http://www.w3.org/2000/svg">
<path d="M2.64663 2.85366C2.60014 2.80717 2.56327 2.75198 2.53811 2.69124C2.51295 2.6305 2.5 2.5654 2.5 2.49966C2.5 2.43391 2.51295 2.36881 2.53811 2.30807C2.56327 2.24733 2.60014 2.19214 2.64663 2.14565C2.69312 2.09917 2.74831 2.06229 2.80905 2.03713C2.86979 2.01197 2.93489 1.99902 3.00063 1.99902C3.06638 1.99902 3.13148 2.01197 3.19221 2.03713C3.25295 2.06229 3.30814 2.09917 3.35463 2.14565L6.85463 5.64565C6.90119 5.6921 6.93814 5.74728 6.96334 5.80802C6.98855 5.86877 7.00152 5.93389 7.00152 5.99965C7.00152 6.06542 6.98855 6.13054 6.96334 6.19129C6.93814 6.25203 6.90119 6.30721 6.85463 6.35365L3.35463 9.85365C3.30814 9.90014 3.25295 9.93702 3.19221 9.96218C3.13148 9.98734 3.06638 10.0003 3.00063 10.0003C2.93489 10.0003 2.86979 9.98734 2.80905 9.96218C2.74831 9.93702 2.69312 9.90014 2.64663 9.85365C2.60014 9.80717 2.56327 9.75198 2.53811 9.69124C2.51295 9.6305 2.5 9.5654 2.5 9.49965C2.5 9.43391 2.51295 9.36881 2.53811 9.30807C2.56327 9.24733 2.60014 9.19214 2.64663 9.14565L5.79363 5.99965L2.64663 2.85366ZM10.0006 2.49966C10.0006 2.36705 9.94795 2.23987 9.85419 2.1461C9.76042 2.05233 9.63324 1.99966 9.50063 1.99966C9.36802 1.99966 9.24085 2.05233 9.14708 2.1461C9.05331 2.23987 9.00063 2.36705 9.00063 2.49966V9.49965C9.00063 9.63226 9.05331 9.75944 9.14708 9.85321C9.24085 9.94698 9.36802 9.99965 9.50063 9.99965C9.63324 9.99965 9.76042 9.94698 9.85419 9.85321C9.94795 9.75944 10.0006 9.63226 10.0006 9.49965V2.49966Z" fill="white"/>
</svg>
