<svg width="21" height="21" viewBox="0 0 21 21" fill="none" xmlns="http://www.w3.org/2000/svg">
<path d="M16.8438 2.40625H4.15625C3.69212 2.40625 3.247 2.59062 2.91881 2.91881C2.59062 3.247 2.40625 3.69212 2.40625 4.15625V16.8438C2.40625 17.3079 2.59062 17.753 2.91881 18.0812C3.247 18.4094 3.69212 18.5938 4.15625 18.5938H16.8438C17.3079 18.5938 17.753 18.4094 18.0812 18.0812C18.4094 17.753 18.5938 17.3079 18.5938 16.8438V4.15625C18.5938 3.69212 18.4094 3.247 18.0812 2.91881C17.753 2.59062 17.3079 2.40625 16.8438 2.40625Z" stroke="#504F4F" stroke-linecap="round" stroke-linejoin="round"/>
<path d="M10.5 17.0625C14.1244 17.0625 17.0625 14.1244 17.0625 10.5C17.0625 6.87563 14.1244 3.9375 10.5 3.9375C6.87563 3.9375 3.9375 6.87563 3.9375 10.5C3.9375 14.1244 6.87563 17.0625 10.5 17.0625Z" stroke="#504F4F" stroke-linecap="round" stroke-linejoin="round"/>
</svg>
