<svg width="15" height="14" viewBox="0 0 15 14" fill="none" xmlns="http://www.w3.org/2000/svg">
<path d="M9.63877 10.7199L10.7355 9.62326L14.0411 12.9055L12.921 14.01L9.63877 10.7199ZM0.227504 2.4287L2.42865 0.227547C2.57702 0.0817169 2.77673 0 2.98477 0C3.19281 0 3.39252 0.0817169 3.54089 0.227547L10.1288 6.83099C10.4321 7.13433 10.4321 7.62434 10.1288 7.92768L7.92763 10.121C7.85587 10.1949 7.77002 10.2536 7.67516 10.2937C7.58031 10.3338 7.47838 10.3544 7.3754 10.3544C7.27242 10.3544 7.17049 10.3338 7.07564 10.2937C6.98078 10.2536 6.89493 10.1949 6.82317 10.121L0.227504 3.53316C-0.0758346 3.22204 -0.0758346 2.73203 0.227504 2.4287Z" fill="#001240"/>
</svg>
