<svg width="16" height="15" viewBox="0 0 16 15" fill="none" xmlns="http://www.w3.org/2000/svg">
<path d="M10.3268 11.4851L11.5017 10.3101L15.0433 13.8267L13.8433 15.01L10.3268 11.4851ZM0.243742 2.60205L2.602 0.243789C2.76096 0.0875496 2.97493 0 3.19782 0C3.4207 0 3.63467 0.0875496 3.79363 0.243789L10.8517 7.31857C11.1767 7.64356 11.1767 8.16854 10.8517 8.49354L8.49349 10.8435C8.4166 10.9226 8.32462 10.9855 8.223 11.0284C8.12137 11.0714 8.01217 11.0935 7.90184 11.0935C7.79151 11.0935 7.6823 11.0714 7.58068 11.0284C7.47905 10.9855 7.38708 10.9226 7.31019 10.8435L0.243742 3.78535C-0.0812475 3.45202 -0.0812475 2.92704 0.243742 2.60205Z" fill="#E1B281"/>
</svg>
