<svg width="21" height="21" viewBox="0 0 21 21" fill="none" xmlns="http://www.w3.org/2000/svg">
<path d="M2.40625 13.4837L6.89938 18.3269C6.97695 18.4108 7.071 18.4778 7.17563 18.5237C7.28026 18.5696 7.39324 18.5935 7.5075 18.5938H13.4837M2.40625 13.4837H13.4837V18.5938M2.40625 13.4837V7.5075C2.40655 7.39324 2.4304 7.28026 2.47632 7.17563C2.52224 7.071 2.58923 6.97695 2.67313 6.89938L7.51625 2.40625M2.40625 13.4837H7.51625V2.40625M13.4837 18.5938L18.3269 14.1006C18.4108 14.023 18.4778 13.929 18.5237 13.8244C18.5696 13.7197 18.5935 13.6068 18.5938 13.4925V7.51625M13.4837 18.5938V7.51625H18.5938M7.51625 2.40625H13.4925C13.6068 2.40655 13.7197 2.4304 13.8244 2.47632C13.929 2.52224 14.023 2.58923 14.1006 2.67313L18.5938 7.51625M7.51625 2.40625V7.51625H18.5938" stroke="#504F4F" stroke-linecap="round" stroke-linejoin="round"/>
</svg>
