<svg width="28" height="28" viewBox="0 0 28 28" fill="none" xmlns="http://www.w3.org/2000/svg">
<path d="M12.1499 18.6869L12.5035 19.0405L12.8571 18.6869L21.1054 10.4374L21.4588 10.0839L21.1055 9.73041L19.457 8.08074L19.1035 7.72693L18.7498 8.08061L12.5035 14.3269L9.55655 11.3799L9.203 11.0264L8.84945 11.3799L7.19978 13.0296L6.84623 13.3832L7.19978 13.7367L12.1499 18.6869ZM13.6667 24.8333C7.49931 24.8333 2.5 19.834 2.5 13.6667C2.5 7.49931 7.49931 2.5 13.6667 2.5C19.834 2.5 24.8333 7.49931 24.8333 13.6667C24.8333 19.834 19.834 24.8333 13.6667 24.8333Z" fill="#E4453B" stroke="#E4453B"/>
</svg>
