<svg width="10" height="10" viewBox="0 0 10 10" fill="none" xmlns="http://www.w3.org/2000/svg">
<path d="M9.24264 0.758266C8.85212 0.367741 8.21895 0.367741 7.82843 0.758265L5 3.58669L2.17157 0.758266C1.78105 0.367741 1.14788 0.367741 0.757359 0.758266C0.366835 1.14879 0.366835 1.78195 0.757359 2.17248L3.58579 5.00091L0.757359 7.82933C0.366835 8.21986 0.366835 8.85302 0.757359 9.24355C1.14788 9.63407 1.78105 9.63407 2.17157 9.24355L5 6.41512L7.82843 9.24355C8.21895 9.63407 8.85212 9.63407 9.24264 9.24355C9.63316 8.85302 9.63317 8.21986 9.24264 7.82933L6.41421 5.00091L9.24264 2.17248C9.63316 1.78195 9.63316 1.14879 9.24264 0.758266Z" fill="white"/>
</svg>
