<svg width="21" height="21" viewBox="0 0 21 21" fill="none" xmlns="http://www.w3.org/2000/svg">
<path d="M16.8812 5.53055C15.2496 4.71516 12.9831 4.26562 10.5 4.26562C8.01691 4.26562 5.75039 4.71516 4.11879 5.53055C2.54297 6.31641 1.64062 7.41152 1.64062 8.53125V12.4688C1.64062 13.5885 2.54297 14.6836 4.11879 15.4695C5.75039 16.2848 8.01691 16.7344 10.5 16.7344C12.9831 16.7344 15.2496 16.2848 16.8812 15.4695C18.457 14.6836 19.3594 13.5885 19.3594 12.4688V8.53125C19.3594 7.41152 18.457 6.31641 16.8812 5.53055ZM10.5 4.92188C15.5671 4.92188 18.7031 6.79547 18.7031 8.53125C18.7031 10.267 15.5671 12.1406 10.5 12.1406C5.43293 12.1406 2.29688 10.267 2.29688 8.53125C2.29688 6.79547 5.43293 4.92188 10.5 4.92188ZM10.1719 12.7969V16.0781C8.36719 16.0494 6.81352 15.7787 5.57812 15.3636V12.1119C6.90949 12.5303 8.48531 12.7657 10.1719 12.7969ZM10.8281 12.7969C12.5147 12.7698 14.0905 12.5344 15.4219 12.116V15.3636C14.1865 15.7787 12.6369 16.0494 10.8281 16.0781V12.7969ZM2.29688 12.4688V10.1653C2.71934 10.6731 3.33621 11.1407 4.11879 11.532C4.37145 11.6583 4.64051 11.7739 4.92188 11.883V15.1134C3.23941 14.4104 2.29688 13.4195 2.29688 12.4688ZM18.7031 12.4688C18.7031 13.4195 17.7606 14.4104 16.0781 15.1134V11.883C16.3595 11.7739 16.6286 11.6583 16.8812 11.532C17.6638 11.1407 18.2807 10.6731 18.7031 10.1653V12.4688Z" fill="#504F4F"/>
</svg>
