<svg width="49" height="57" viewBox="0 0 49 57" fill="none" xmlns="http://www.w3.org/2000/svg">
<path fill-rule="evenodd" clip-rule="evenodd" d="M24.1299 0.0425974C31.7336 -0.511589 38.7368 4.41953 43.5973 10.2932C48.0445 15.6674 48.4999 22.7885 48.7216 29.7606C48.954 37.0684 49.7799 45.0837 44.8761 50.5069C39.8268 56.0909 31.6522 57.2575 24.1299 56.9565C16.9379 56.6686 9.74534 54.3048 4.98032 48.9102C0.447378 43.7783 -0.334073 36.5935 0.107944 29.7606C0.517272 23.4331 3.32131 17.8693 7.30735 12.9381C11.9247 7.22588 16.8042 0.576512 24.1299 0.0425974Z" fill="#626262" fill-opacity="0.1"/>
<path d="M23.9987 13.626L32.7254 27.2288H15.272L23.9987 13.626ZM23.9987 18.8733L20.457 24.3955H27.5404L23.9987 18.8733ZM9.83203 30.4163H22.582V43.1663H9.83203V30.4163ZM12.6654 33.2496V40.333H19.7487V33.2496H12.6654ZM31.7904 33.2496C30.8511 33.2496 29.9502 33.6228 29.286 34.287C28.6218 34.9512 28.2487 35.852 28.2487 36.7913C28.2487 37.7306 28.6218 38.6315 29.286 39.2956C29.9502 39.9598 30.8511 40.333 31.7904 40.333C32.7297 40.333 33.6305 39.9598 34.2947 39.2956C34.9589 38.6315 35.332 37.7306 35.332 36.7913C35.332 35.852 34.9589 34.9512 34.2947 34.287C33.6305 33.6228 32.7297 33.2496 31.7904 33.2496ZM25.4154 36.7913C25.4154 35.9541 25.5803 35.1252 25.9006 34.3517C26.221 33.5783 26.6906 32.8755 27.2826 32.2835C27.8745 31.6915 28.5773 31.222 29.3508 30.9016C30.1242 30.5812 30.9532 30.4163 31.7904 30.4163C32.6275 30.4163 33.4565 30.5812 34.23 30.9016C35.0034 31.222 35.7062 31.6915 36.2982 32.2835C36.8901 32.8755 37.3597 33.5783 37.6801 34.3517C38.0005 35.1252 38.1654 35.9541 38.1654 36.7913C38.1654 38.4821 37.4937 40.1036 36.2982 41.2991C35.1026 42.4947 33.4811 43.1663 31.7904 43.1663C30.0996 43.1663 28.4781 42.4947 27.2826 41.2991C26.087 40.1036 25.4154 38.4821 25.4154 36.7913Z" fill="#001240"/>
</svg>
