<svg width="49" height="57" viewBox="0 0 49 57" fill="none" xmlns="http://www.w3.org/2000/svg">
<path fill-rule="evenodd" clip-rule="evenodd" d="M24.1299 0.0425974C31.7336 -0.511589 38.7368 4.41953 43.5973 10.2932C48.0445 15.6674 48.4999 22.7885 48.7216 29.7606C48.954 37.0684 49.7799 45.0837 44.8761 50.5069C39.8268 56.0909 31.6522 57.2575 24.1299 56.9565C16.9379 56.6686 9.74534 54.3048 4.98032 48.9102C0.447378 43.7783 -0.334073 36.5935 0.107944 29.7606C0.517272 23.4331 3.32131 17.8693 7.30735 12.9381C11.9247 7.22588 16.8042 0.576512 24.1299 0.0425974Z" fill="#626262" fill-opacity="0.1"/>
<path d="M23.1449 24.6875H18.3551C18.2515 24.6884 18.1488 24.6687 18.0528 24.6297C17.9568 24.5907 17.8694 24.5331 17.7958 24.4603C17.7221 24.3874 17.6636 24.3007 17.6236 24.2051C17.5835 24.1095 17.5628 24.007 17.5625 23.9034V18.0342C17.5628 17.9305 17.5835 17.828 17.6236 17.7324C17.6636 17.6369 17.7221 17.5502 17.7958 17.4773C17.8694 17.4044 17.9568 17.3468 18.0528 17.3078C18.1488 17.2688 18.2515 17.2492 18.3551 17.25H23.1449C23.2485 17.2492 23.3512 17.2688 23.4472 17.3078C23.5432 17.3468 23.6306 17.4044 23.7042 17.4773C23.7779 17.5502 23.8364 17.6369 23.8764 17.7324C23.9165 17.828 23.9372 17.9305 23.9375 18.0342V23.9034C23.9334 24.1115 23.8483 24.3099 23.7003 24.4563C23.5523 24.6027 23.353 24.6856 23.1449 24.6875ZM26.1262 17.7813C26.1262 17.6404 26.1822 17.5053 26.2818 17.4056C26.3815 17.306 26.5166 17.25 26.6575 17.25H31.8C31.9409 17.25 32.076 17.306 32.1757 17.4056C32.2753 17.5053 32.3312 17.6404 32.3312 17.7813C32.3312 17.9222 32.2753 18.0573 32.1757 18.1569C32.076 18.2566 31.9409 18.3125 31.8 18.3125H26.6575C26.5166 18.3125 26.3815 18.2566 26.2818 18.1569C26.1822 18.0573 26.1262 17.9222 26.1262 17.7813ZM26.1262 22.0313C26.1262 21.8904 26.1822 21.7553 26.2818 21.6556C26.3815 21.556 26.5166 21.5 26.6575 21.5H31.8C31.9409 21.5 32.076 21.556 32.1757 21.6556C32.2753 21.7553 32.3312 21.8904 32.3312 22.0313C32.3312 22.1722 32.2753 22.3073 32.1757 22.4069C32.076 22.5066 31.9409 22.5625 31.8 22.5625H26.6575C26.5166 22.5625 26.3815 22.5066 26.2818 22.4069C26.1822 22.3073 26.1262 22.1722 26.1262 22.0313ZM26.6575 19.375C26.5166 19.375 26.3815 19.431 26.2818 19.5306C26.1822 19.6303 26.1262 19.7654 26.1262 19.9063C26.1262 20.0472 26.1822 20.1823 26.2818 20.2819C26.3815 20.3816 26.5166 20.4375 26.6575 20.4375H31.8C31.9409 20.4375 32.076 20.3816 32.1757 20.2819C32.2753 20.1823 32.3312 20.0472 32.3312 19.9063C32.3312 19.7654 32.2753 19.6303 32.1757 19.5306C32.076 19.431 31.9409 19.375 31.8 19.375H26.6575ZM26.1262 24.1563C26.1262 24.0154 26.1822 23.8803 26.2818 23.7806C26.3815 23.681 26.5166 23.625 26.6575 23.625H31.8C31.9409 23.625 32.076 23.681 32.1757 23.7806C32.2753 23.8803 32.3312 24.0154 32.3312 24.1563C32.3312 24.2972 32.2753 24.4323 32.1757 24.5319C32.076 24.6316 31.9409 24.6875 31.8 24.6875H26.6575C26.5166 24.6875 26.3815 24.6316 26.2818 24.5319C26.1822 24.4323 26.1262 24.2972 26.1262 24.1563Z" fill="#001240"/>
<path d="M14.375 16.5774V23.6037H11.91C11.5368 23.6031 11.167 23.6759 10.8219 23.8181C10.4768 23.9603 10.1631 24.169 9.89871 24.4324C9.6343 24.6959 9.42436 25.0088 9.28088 25.3534C9.1374 25.6979 9.0632 26.0674 9.0625 26.4406V30.85C9.0625 32.1749 9.9635 33.2863 11.1875 33.6051V41.5387C11.1886 42.6994 11.6502 43.8122 12.4709 44.6329C13.2916 45.4536 14.4044 45.9151 15.565 45.9163H34.435C35.5956 45.9151 36.7084 45.4536 37.5291 44.6329C38.3498 43.8122 38.8114 42.6994 38.8125 41.5387V33.6051C40.0365 33.2863 40.9375 32.1749 40.9375 30.85V26.4406C40.9368 26.0674 40.8626 25.6979 40.7191 25.3534C40.5756 25.0088 40.3657 24.6959 40.1013 24.4324C39.8369 24.169 39.5232 23.9603 39.1781 23.8181C38.833 23.6759 38.4632 23.6031 38.09 23.6037H35.625V16.5774C35.625 15.1303 34.3914 14.0625 33.0176 14.0625H16.9824C15.6086 14.0625 14.375 15.1303 14.375 16.5774ZM18.625 27.875V28.9375H16.9824C15.6086 28.9375 14.375 30.0053 14.375 31.4524V40.2351C14.375 41.6822 15.6086 42.75 16.9824 42.75H33.0176C34.3861 42.75 35.625 41.6971 35.625 40.2351V31.4524C35.625 30.0053 34.3914 28.9375 33.0176 28.9375H31.375V27.875H33.0176C34.2714 27.875 35.4093 26.9846 35.5974 25.7287H38.09C38.4959 25.7287 38.8125 26.0539 38.8125 26.4406V30.85C38.8125 31.2516 38.4916 31.5725 38.09 31.5725H36.6875V41.5387C36.6875 42.7798 35.676 43.7913 34.435 43.7913H15.565C14.9679 43.7901 14.3957 43.5525 13.9735 43.1303C13.5513 42.7081 13.3136 42.1358 13.3125 41.5387V31.5725H11.91C11.815 31.5729 11.7209 31.5545 11.633 31.5184C11.5452 31.4822 11.4653 31.429 11.3982 31.3618C11.331 31.2947 11.2778 31.2148 11.2416 31.127C11.2055 31.0391 11.1871 30.945 11.1875 30.85V26.4406C11.1875 26.0539 11.5041 25.7287 11.91 25.7287H14.4026C14.5907 26.9846 15.7286 27.875 16.9824 27.875H18.625ZM18.625 26.8125H16.9824C16.1324 26.8125 15.4375 26.1591 15.4375 25.3601V16.5774C15.4375 15.7784 16.1324 15.125 16.9824 15.125H33.0176C33.8676 15.125 34.5625 15.7784 34.5625 16.5774V25.3601C34.5625 26.1591 33.8676 26.8125 33.0176 26.8125H31.375V26.515C31.375 26.3741 31.319 26.239 31.2194 26.1393C31.1198 26.0397 30.9846 25.9838 30.8438 25.9838C30.7029 25.9838 30.5677 26.0397 30.4681 26.1393C30.3685 26.239 30.3125 26.3741 30.3125 26.515V26.8125H19.6875V26.515C19.6875 26.3741 19.6315 26.239 19.5319 26.1393C19.4323 26.0397 19.2971 25.9838 19.1562 25.9838C19.0154 25.9838 18.8802 26.0397 18.7806 26.1393C18.681 26.239 18.625 26.3741 18.625 26.515V26.8125ZM19.6875 27.875H30.3125V28.9375H19.6875V27.875ZM30.3125 30V30.7969C30.3125 30.9378 30.3685 31.0729 30.4681 31.1725C30.5677 31.2722 30.7029 31.3281 30.8438 31.3281C30.9846 31.3281 31.1198 31.2722 31.2194 31.1725C31.319 31.0729 31.375 30.9378 31.375 30.7969V30H33.0176C33.8676 30 34.5625 30.6534 34.5625 31.4524V40.2351C34.5625 41.0447 33.8676 41.6875 33.0176 41.6875H16.9824C16.1324 41.6875 15.4375 41.0341 15.4375 40.2351V31.4524C15.4375 30.6534 16.1324 30 16.9824 30H18.625V30.7969C18.625 30.9378 18.681 31.0729 18.7806 31.1725C18.8802 31.2722 19.0154 31.3281 19.1562 31.3281C19.2971 31.3281 19.4323 31.2722 19.5319 31.1725C19.6315 31.0729 19.6875 30.9378 19.6875 30.7969V30H30.3125Z" fill="#001240"/>
</svg>
