<svg width="14" height="14" viewBox="0 0 14 14" fill="none" xmlns="http://www.w3.org/2000/svg">
<path d="M11.1241 2.87577C10.0239 1.81318 8.55041 1.22521 7.02093 1.2385C5.49145 1.25179 4.02837 1.86528 2.94683 2.94683C1.86528 4.02837 1.25179 5.49145 1.2385 7.02093C1.22521 8.55041 1.81318 10.0239 2.87577 11.1241C3.97595 12.1867 5.44946 12.7747 6.97894 12.7614C8.50842 12.7481 9.97149 12.1346 11.053 11.053C12.1346 9.97149 12.7481 8.50842 12.7614 6.97894C12.7747 5.44946 12.1867 3.97595 11.1241 2.87577ZM3.69827 3.69827C4.3555 3.04076 5.19414 2.59454 6.10666 2.41682C7.01918 2.23909 7.96398 2.33797 8.81993 2.70077L8.65077 2.87577L9.06493 3.28993L9.36827 2.98077C9.53739 3.08282 9.70096 3.19381 9.85827 3.31327L3.31327 9.85827C3.19381 9.70096 3.08282 9.53739 2.98077 9.36827L3.28993 9.06493L2.87577 8.65077L2.7066 8.81993C2.34308 7.96454 2.24326 7.02008 2.41993 6.10759C2.59661 5.1951 3.04174 4.35616 3.69827 3.69827ZM10.3016 10.3016C9.64436 10.9591 8.80572 11.4053 7.89321 11.5831C6.98069 11.7608 6.03588 11.6619 5.17993 11.2991L5.3491 11.1241L4.93493 10.7099L4.6316 11.0191C4.46248 10.9171 4.29891 10.8061 4.1416 10.6866L10.6866 4.1416C10.8061 4.29891 10.9171 4.46248 11.0191 4.6316L10.7099 4.93493L11.1241 5.3491L11.2933 5.17993C11.6568 6.03533 11.7566 6.97979 11.5799 7.89228C11.4033 8.80476 10.9581 9.64371 10.3016 10.3016ZM6.58577 9.06493L6.99993 9.47327L6.17743 10.3016L5.76327 9.9166L6.58577 9.06493ZM8.2366 7.4141L8.65077 7.82243L7.82243 8.65077L7.4141 8.2366L8.2366 7.4141ZM9.9166 5.76327L10.3308 6.17743L9.47327 6.99993L9.06493 6.58577L9.9166 5.76327ZM7.4141 4.93493L6.99993 4.5266L7.82243 3.69827L8.2366 4.11243L7.4141 4.93493ZM5.76327 6.58577L5.3491 6.17743L6.17743 5.3491L6.58577 5.76327L5.76327 6.58577ZM4.11243 8.2366L3.69827 7.82243L4.5266 6.99993L4.93493 7.4141L4.11243 8.2366Z" fill="#001240"/>
</svg>
