<svg width="22" height="22" viewBox="0 0 22 22" fill="none" xmlns="http://www.w3.org/2000/svg">
<path d="M11.7851 15.189C13.9957 13.5184 15.9876 11.3207 15.9876 9.21374V4.98607C15.075 4.62628 13.6226 4.1377 11.0014 4.1377C8.37971 4.1377 6.92771 4.62582 6.01562 4.98561V9.21374C6.01562 11.3212 8.00708 13.5184 10.2176 15.189V15.6519C9.06079 16.2299 8.41867 17.1553 8.41867 17.1553V17.862H13.5845V17.1553C13.5845 17.1553 13.0666 16.41 12.1248 15.8394C11.1943 16.3069 9.70337 17.0398 9.70337 17.0398" stroke="#001240" stroke-linecap="round" stroke-linejoin="round"/>
<path d="M10.2157 15.1889C3.97048 11.4493 4.23998 10.6527 4.23998 7.18315C4.57457 6.86185 5.29415 6.5919 5.29415 6.5919M11.7832 15.1889C18.0289 11.4493 17.759 10.6527 17.759 7.18315C17.4244 6.86185 16.7048 6.5919 16.7048 6.5919M9.87977 11.5176V5.89844M9.87977 11.5176H11.4216C11.858 11.5176 12.2765 11.3442 12.5851 11.0357C12.8937 10.7271 13.067 10.3086 13.067 9.87219V7.54385C13.067 7.10746 12.8937 6.68894 12.5851 6.38037C12.2765 6.07179 11.858 5.89844 11.4216 5.89844H9.87977M9.87977 11.5176H8.93194M9.87977 5.89844H8.93194" stroke="#001240" stroke-linecap="round" stroke-linejoin="round"/>
</svg>
