<svg width="20" height="15" viewBox="0 0 20 15" fill="none" xmlns="http://www.w3.org/2000/svg">
<g clip-path="url(#clip0_2475_6761)">
<path d="M15.8643 7.40829C15.8643 7.38029 15.8526 7.35462 15.8293 7.33129C15.806 7.30796 15.7803 7.29629 15.7523 7.29629L13.4143 4.95829C13.321 4.87429 13.2136 4.83229 13.0923 4.83229C12.971 4.83229 12.8636 4.87429 12.7703 4.95829C12.677 5.04229 12.6326 5.14962 12.6373 5.28029C12.642 5.41096 12.6863 5.51829 12.7703 5.60229L14.3523 7.18429H3.78231C3.66098 7.18429 3.55365 7.22629 3.46031 7.31029C3.36698 7.39429 3.32031 7.50862 3.32031 7.65329C3.32031 7.79796 3.36231 7.90996 3.44631 7.98929C3.53031 8.06862 3.64231 8.10829 3.78231 8.10829H14.4083L12.8263 9.69029C12.7423 9.77429 12.7003 9.87929 12.7003 10.0053C12.7003 10.1313 12.7423 10.241 12.8263 10.3343C12.8543 10.3623 12.8963 10.388 12.9523 10.4113C13.0083 10.4346 13.0643 10.4463 13.1203 10.4463C13.1763 10.4463 13.2323 10.4346 13.2883 10.4113C13.3443 10.388 13.3863 10.3623 13.4143 10.3343L15.7523 7.99629C15.771 7.97762 15.7896 7.95429 15.8083 7.92629C15.827 7.89829 15.8456 7.88429 15.8643 7.88429C15.8923 7.76296 15.9063 7.66962 15.9063 7.60429C15.9063 7.53896 15.8923 7.47362 15.8643 7.40829Z" fill="#504F4F"/>
</g>
<defs>
<clipPath id="clip0_2475_6761">
<rect width="14" height="14" fill="white" transform="matrix(1 0 0 -1 3.2002 14.5898)"/>
</clipPath>
</defs>
</svg>
