<svg width="31" height="31" viewBox="0 0 31 31" fill="none" xmlns="http://www.w3.org/2000/svg">
<path d="M26.6001 13.9151C27.0888 12.8617 27.2767 11.6937 27.143 10.5401C27.0093 9.3866 26.5592 8.29249 25.8425 7.37878C25.1258 6.46508 24.1704 5.76735 23.0819 5.36276C21.9934 4.95816 20.8142 4.86244 19.6747 5.08619C19.0055 4.13867 18.0876 3.3944 17.0222 2.93552C15.9568 2.47664 14.7854 2.32097 13.6371 2.48568C12.4889 2.6504 11.4084 3.1291 10.515 3.86898C9.62157 4.60885 8.94988 5.58114 8.57404 6.67858C7.41885 6.78367 6.31513 7.20581 5.38465 7.89843C4.45417 8.59105 3.73308 9.52722 3.30094 10.6037C2.86881 11.6802 2.74241 12.8551 2.93569 13.9988C3.12898 15.1426 3.63444 16.2107 4.39631 17.0854C4.01065 17.918 3.81164 18.8249 3.81321 19.7425C3.81478 20.6602 4.01689 21.5664 4.40539 22.3977C4.79389 23.229 5.3594 23.9654 6.06232 24.5553C6.76524 25.1452 7.5886 25.5743 8.47475 25.8126C9.01114 25.9588 9.56445 26.0337 10.1204 26.0354C10.5242 26.0339 10.9269 25.9934 11.3229 25.9143C11.992 26.8616 12.9097 27.6056 13.9747 28.0645C15.0398 28.5233 16.211 28.6791 17.359 28.5146C18.507 28.3502 19.5873 27.8719 20.4807 27.1325C21.3742 26.3931 22.0461 25.4213 22.4223 24.3244C23.5775 24.2193 24.6812 23.7971 25.6117 23.1045C26.5422 22.4119 27.2633 21.4757 27.6954 20.3992C28.1276 19.3228 28.254 18.1479 28.0607 17.0041C27.8674 15.8604 27.3619 14.7922 26.6001 13.9176V13.9151ZM22.2649 6.12397C22.9872 6.3174 23.6606 6.66069 24.2415 7.13151C24.8223 7.60232 25.2976 8.19013 25.6364 8.85669C25.9751 9.52326 26.1698 10.2537 26.2078 11.0004C26.2457 11.7472 26.126 12.4935 25.8565 13.191C25.5907 12.9707 25.3072 12.7727 25.0089 12.5989L19.6154 9.48795C19.5417 9.44544 19.4582 9.42306 19.3732 9.42306C19.2882 9.42306 19.2046 9.44544 19.131 9.48795L13.0763 12.9839V9.62721L18.2228 6.66041C18.8276 6.30812 19.4963 6.07931 20.1901 5.98723C20.8839 5.89515 21.5892 5.94163 22.2649 6.12397ZM17.9201 16.9013L15.4982 18.2987L13.0763 16.9013V14.104L15.4982 12.7066L17.9201 14.104V16.9013ZM9.20131 8.71901C9.20134 7.61674 9.54324 6.54161 10.1799 5.64178C10.8165 4.74196 11.7166 4.06173 12.756 3.69484C13.7954 3.32796 14.923 3.29247 15.9835 3.59328C17.0439 3.89409 17.9849 4.51638 18.6769 5.3744C18.3526 5.4945 18.0387 5.64111 17.7384 5.81276L12.3497 8.9285C12.2762 8.97097 12.2151 9.03204 12.1726 9.10558C12.1301 9.17912 12.1076 9.26254 12.1076 9.34748V16.3394L9.20131 14.6611V8.71901ZM4.52709 10.2847C4.92298 9.59426 5.46947 9.00192 6.12589 8.5518C6.78231 8.10167 7.53178 7.80535 8.31853 7.68487C8.26147 8.02663 8.23272 8.37251 8.23256 8.71901V14.9408C8.23265 15.0257 8.25507 15.1092 8.29758 15.1827C8.34008 15.2562 8.40118 15.3173 8.47475 15.3598L14.5294 18.8558L11.6232 20.5341L6.4767 17.5588C5.25417 16.8522 4.36214 15.6892 3.99658 14.3253C3.63103 12.9613 3.82183 11.5081 4.52709 10.2847ZM8.73146 24.8765C8.00921 24.6831 7.33575 24.3398 6.75488 23.869C6.17402 23.3982 5.69875 22.8104 5.35998 22.1438C5.02122 21.4773 4.82654 20.7468 4.78861 20.0001C4.75068 19.2533 4.87034 18.507 5.13982 17.8095C5.40566 18.0298 5.68917 18.2279 5.98748 18.4017L11.381 21.5126C11.4546 21.5551 11.5382 21.5775 11.6232 21.5775C11.7082 21.5775 11.7917 21.5551 11.8654 21.5126L17.9201 18.0166V21.3733L12.7736 24.3401C12.1688 24.6924 11.5001 24.9212 10.8063 25.0133C10.1124 25.1054 9.40722 25.0589 8.73146 24.8765ZM21.7951 22.2815C21.7951 23.384 21.4531 24.4593 20.8163 25.3592C20.1795 26.2592 19.2793 26.9394 18.2396 27.3062C17.1999 27.673 16.0721 27.7083 15.0116 27.4071C13.951 27.106 13.01 26.4833 12.3183 25.6249C12.643 25.5054 12.9573 25.3592 13.2579 25.1878L18.6466 22.072C18.7202 22.0295 18.7813 21.9685 18.8238 21.8949C18.8663 21.8214 18.8887 21.738 18.8888 21.653V14.6611L21.7951 16.3394V22.2815ZM26.4693 20.7158C26.0734 21.4063 25.5269 21.9986 24.8705 22.4487C24.2141 22.8988 23.4646 23.1952 22.6778 23.3156C22.7349 22.9739 22.7636 22.628 22.7638 22.2815V16.0597C22.7637 15.9748 22.7413 15.8913 22.6988 15.8178C22.6563 15.7443 22.5952 15.6832 22.5216 15.6407L16.4669 12.1447L19.3732 10.4664L24.5197 13.4417C25.7422 14.1483 26.6342 15.3113 26.9998 16.6753C27.3653 18.0392 27.1745 19.4924 26.4693 20.7158Z" fill="#001240"/>
</svg>
