<svg width="49" height="57" viewBox="0 0 49 57" fill="none" xmlns="http://www.w3.org/2000/svg">
<path fill-rule="evenodd" clip-rule="evenodd" d="M24.1299 0.0425974C31.7336 -0.511589 38.7368 4.41953 43.5973 10.2932C48.0445 15.6674 48.4999 22.7885 48.7216 29.7606C48.954 37.0684 49.7799 45.0837 44.8761 50.5069C39.8268 56.0909 31.6522 57.2575 24.1299 56.9565C16.9379 56.6686 9.74534 54.3048 4.98032 48.9102C0.447378 43.7783 -0.334073 36.5935 0.107944 29.7606C0.517272 23.4331 3.32131 17.8693 7.30735 12.9381C11.9247 7.22588 16.8042 0.576512 24.1299 0.0425974Z" fill="#626262" fill-opacity="0.1"/>
<path d="M12.25 23.3333H21.4583C22.1588 23.3333 22.8436 23.1256 23.426 22.7365C24.0084 22.3473 24.4623 21.7942 24.7304 21.147C24.9985 20.4999 25.0686 19.7877 24.9319 19.1007C24.7953 18.4137 24.458 17.7826 23.9627 17.2873C23.4674 16.792 22.8363 16.4547 22.1493 16.3181C21.4623 16.1814 20.7502 16.2515 20.103 16.5196C19.4558 16.7877 18.9027 17.2416 18.5135 17.824C18.1244 18.4064 17.9167 19.0912 17.9167 19.7917V20.2974M13.6667 31.8333H34.2083C35.189 31.8333 36.1476 32.1241 36.963 32.669C37.7784 33.2138 38.414 33.9882 38.7892 34.8942C39.1645 35.8002 39.2627 36.7972 39.0714 37.759C38.8801 38.7208 38.4078 39.6043 37.7144 40.2977C37.021 40.9912 36.1375 41.4634 35.1757 41.6547C34.2138 41.846 33.2169 41.7479 32.3109 41.3726C31.4048 40.9973 30.6305 40.3618 30.0856 39.5464C29.5408 38.731 29.25 37.7723 29.25 36.7917V36.0833" stroke="#001240" stroke-width="2" stroke-linecap="round"/>
<path d="M10.832 27.5837H34.207C35.1877 27.5837 36.1463 27.2929 36.9617 26.748C37.7771 26.2032 38.4126 25.4288 38.7879 24.5228C39.1632 23.6168 39.2614 22.6198 39.0701 21.658C38.8788 20.6962 38.4065 19.8127 37.7131 19.1193C37.0197 18.4258 36.1362 17.9536 35.1744 17.7623C34.2125 17.5709 33.2156 17.6691 32.3096 18.0444C31.4035 18.4197 30.6292 19.0552 30.0843 19.8706C29.5395 20.686 29.2487 21.6447 29.2487 22.6253V23.3337" stroke="#001240" stroke-width="2" stroke-linecap="round"/>
</svg>
