<svg width="16" height="16" viewBox="0 0 16 16" fill="none" xmlns="http://www.w3.org/2000/svg">
<g clip-path="url(#clip0_2693_51807)">
<path d="M1.9535 10.318L6.216 10.32L3.828 14.8255C2.65952 14.1101 1.69404 13.107 1.02385 11.912C0.353655 10.717 0.0011421 9.37009 0 8C0 3.5885 3.5885 0 8 0C9.1745 0 10.292 0.2555 11.294 0.708L3.62 8.3855H10.4535L5.4275 13.4635L7.503 9.544H2.5315C2.302 8.776 2.318 8 2.318 8C2.3225 4.8565 4.8725 2.3155 8.0135 2.318C8.0755 2.318 8.138 2.32 8.201 2.32L8.9305 1.5885C8.627 1.54442 8.32069 1.52252 8.014 1.523C4.4435 1.523 1.5265 4.427 1.5265 7.9995C1.5265 7.9995 1.487 9.1455 1.954 10.3175L1.9535 10.318ZM12.1695 1.1775C13.3388 1.89147 14.3051 2.8938 14.9759 4.08844C15.6466 5.28307 15.9992 6.62995 16 8C16 12.4115 12.4115 16 8 16C6.8637 16.0027 5.74017 15.7603 4.706 15.2895L12.3225 7.615H5.4685L10.5725 2.537L8.497 6.4565H13.471C13.6815 7.175 13.6815 8.0005 13.6815 8.0005C13.677 11.144 11.127 13.685 7.984 13.6825C7.9135 13.6825 7.846 13.6805 7.7755 13.678L7.0515 14.4095C10.596 14.928 13.89 12.475 14.408 8.931C14.5691 7.83436 14.4435 6.7147 14.0435 5.681H9.7835L12.1695 1.1775Z" fill="#626262"/>
</g>
<defs>
<clipPath id="clip0_2693_51807">
<rect width="16" height="16" fill="white"/>
</clipPath>
</defs>
</svg>
