<svg width="20" height="21" viewBox="0 0 20 21" fill="none" xmlns="http://www.w3.org/2000/svg">
<path d="M18.0909 17.389L14.9992 14.3223C16.1993 12.826 16.7804 10.9267 16.6232 9.01505C16.466 7.10338 15.5822 5.32462 14.1538 4.0445C12.7253 2.76439 10.8607 2.08022 8.94329 2.13269C7.02589 2.18516 5.20146 2.97027 3.84514 4.32658C2.48882 5.6829 1.70371 7.50733 1.65125 9.42474C1.59878 11.3421 2.28294 13.2068 3.56306 14.6352C4.84317 16.0637 6.62194 16.9474 8.5336 17.1046C10.4453 17.2619 12.3445 16.6807 13.8409 15.4806L16.9075 18.5473C16.985 18.6254 17.0772 18.6874 17.1787 18.7297C17.2803 18.772 17.3892 18.7938 17.4992 18.7938C17.6092 18.7938 17.7181 18.772 17.8197 18.7297C17.9212 18.6874 18.0134 18.6254 18.0909 18.5473C18.2411 18.3919 18.325 18.1842 18.325 17.9681C18.325 17.752 18.2411 17.5444 18.0909 17.389ZM9.16585 15.4806C8.01213 15.4806 6.88432 15.1385 5.92503 14.4975C4.96574 13.8566 4.21807 12.9455 3.77656 11.8796C3.33505 10.8137 3.21953 9.64083 3.44461 8.50927C3.66969 7.37772 4.22526 6.33832 5.04106 5.52251C5.85687 4.7067 6.89627 4.15113 8.02783 3.92605C9.15938 3.70097 10.3323 3.81649 11.3982 4.258C12.4641 4.69951 13.3751 5.44719 14.0161 6.40647C14.6571 7.36576 14.9992 8.49358 14.9992 9.6473C14.9992 11.1944 14.3846 12.6781 13.2906 13.7721C12.1967 14.8661 10.713 15.4806 9.16585 15.4806Z" fill="#626262"/>
</svg>
