<svg width="21" height="21" viewBox="0 0 21 21" fill="none" xmlns="http://www.w3.org/2000/svg">
<path d="M3.90419 6.12498V3.16398L6.86519 4.64448L3.90419 6.12498ZM15.0097 6.12498V3.16398L17.9707 4.64448L15.0097 6.12498ZM9.82706 5.38473V2.42285L12.7889 3.90423L9.82706 5.38473ZM9.18744 18.6278C8.18002 18.587 7.26885 18.5013 6.45394 18.3706C5.63902 18.2399 4.9396 18.0775 4.35569 17.8832C3.77177 17.689 3.32056 17.4696 3.00206 17.2252C2.68356 16.9808 2.52402 16.7247 2.52344 16.457V9.25485C2.52344 8.94627 2.72235 8.66043 3.12019 8.39735C3.51802 8.13427 4.0716 7.90473 4.78094 7.70873C5.49027 7.51273 6.33202 7.35698 7.30619 7.24148C8.28035 7.12598 9.34494 7.06793 10.4999 7.06735C11.6549 7.06677 12.7195 7.12481 13.6937 7.24148C14.6679 7.35814 15.5099 7.51418 16.2198 7.7096C16.9297 7.90502 17.483 8.13427 17.8797 8.39735C18.2764 8.66043 18.475 8.94627 18.4756 9.25485V16.4561C18.4756 16.7244 18.3163 16.9811 17.9978 17.2261C17.6793 17.4711 17.2281 17.6904 16.6442 17.8841C16.0609 18.0778 15.3614 18.2399 14.5459 18.3706C13.731 18.5013 12.8199 18.587 11.8124 18.6278V15.1445H9.18744V18.6278ZM10.4999 10.5674C11.9484 10.5674 13.3043 10.4527 14.5678 10.2235C15.8313 9.99423 16.7751 9.69148 17.3993 9.31523C17.2086 9.00664 16.5115 8.70068 15.3081 8.39735C14.1046 8.09402 12.5019 7.94235 10.4999 7.94235C8.49794 7.94235 6.89552 8.09402 5.69269 8.39735C4.48985 8.70068 3.79277 9.00693 3.60144 9.3161C4.22444 9.69177 5.10352 9.99423 6.23869 10.2235C7.37385 10.4527 8.79427 10.5674 10.4999 10.5674ZM8.31244 17.689V14.2695H12.6874V17.6881C14.0676 17.5831 15.1771 17.4005 16.0159 17.1403C16.8548 16.8808 17.3833 16.6241 17.6014 16.3703V10.1902C16.6419 10.6347 15.5738 10.9544 14.3972 11.1492C13.2206 11.3441 11.9215 11.4418 10.4999 11.4424C9.07835 11.4429 7.77927 11.3452 6.60269 11.1492C5.4261 10.9544 4.35802 10.6347 3.39844 10.1902V16.3712C3.6166 16.6244 4.11156 16.8811 4.88331 17.1412C5.65506 17.4008 6.7981 17.5834 8.31244 17.689Z" fill="#504F4F"/>
</svg>
