<svg width="49" height="57" viewBox="0 0 49 57" fill="none" xmlns="http://www.w3.org/2000/svg">
<path fill-rule="evenodd" clip-rule="evenodd" d="M24.1299 0.0425974C31.7336 -0.511589 38.7368 4.41953 43.5973 10.2932C48.0445 15.6674 48.4999 22.7885 48.7216 29.7606C48.954 37.0684 49.7799 45.0837 44.8761 50.5069C39.8268 56.0909 31.6522 57.2575 24.1299 56.9565C16.9379 56.6686 9.74534 54.3048 4.98032 48.9102C0.447378 43.7783 -0.334073 36.5935 0.107944 29.7606C0.517272 23.4331 3.32131 17.8693 7.30735 12.9381C11.9247 7.22588 16.8042 0.576512 24.1299 0.0425974Z" fill="#626262" fill-opacity="0.1"/>
<path d="M11.25 17.1C11.25 16.8746 11.3396 16.6584 11.499 16.499C11.6584 16.3396 11.8746 16.25 12.1 16.25H35.9C36.1254 16.25 36.3416 16.3396 36.501 16.499C36.6604 16.6584 36.75 16.8746 36.75 17.1V36.65C36.75 36.7616 36.728 36.8722 36.6853 36.9753C36.6426 37.0784 36.58 37.1721 36.501 37.251C36.4221 37.33 36.3284 37.3926 36.2253 37.4353C36.1222 37.478 36.0116 37.5 35.9 37.5H30.035C29.9188 37.4998 29.8037 37.5235 29.697 37.5696C29.5903 37.6156 29.4941 37.6831 29.4145 37.7677L24.6191 42.8635C24.5396 42.948 24.4437 43.0153 24.3372 43.0613C24.2307 43.1073 24.116 43.1311 24 43.1311C23.884 43.1311 23.7693 43.1073 23.6628 43.0613C23.5563 43.0153 23.4604 42.948 23.3809 42.8635L18.5855 37.7677C18.5059 37.6831 18.4097 37.6156 18.303 37.5696C18.1963 37.5235 18.0812 37.4998 17.965 37.5H12.1C11.8746 37.5 11.6584 37.4104 11.499 37.251C11.3396 37.0916 11.25 36.8754 11.25 36.65V17.1Z" stroke="#001240" stroke-width="1.5"/>
<path d="M23.9987 21.917L26.0174 25.5649L29.6654 27.5837L26.0174 29.6024L23.9987 33.2503L21.9799 29.6024L18.332 27.5837L21.9799 25.5649L23.9987 21.917Z" stroke="#001240" stroke-width="1.5" stroke-linecap="round" stroke-linejoin="round"/>
</svg>
